{"glyphs":{"0":{"ha":842,"x_min":0,"x_max":0,"o":"m 420 -16 b 62 489 195 -16 62 178 l 62 490 b 420 995 62 801 195 995 b 781 490 646 995 781 801 l 781 489 b 420 -16 781 178 646 -16 m 420 90 b 658 489 570 90 658 243 l 658 490 b 420 888 658 736 570 888 b 184 490 271 888 184 736 l 184 489 b 420 90 184 243 271 90 "},"1":{"ha":616,"x_min":0,"x_max":0,"o":"m 329 849 l 326 849 l 67 669 l 67 791 l 328 979 l 447 979 l 447 0 l 329 0 "},"2":{"ha":786,"x_min":0,"x_max":0,"o":"m 79 84 l 424 444 b 587 715 556 581 587 634 l 587 717 b 404 888 586 817 511 888 b 191 699 282 888 191 804 l 191 696 l 73 696 l 73 700 b 402 995 73 869 220 995 b 709 723 579 995 709 876 l 709 722 b 479 350 709 614 659 534 l 247 111 l 247 109 l 725 109 l 725 0 l 79 0 "},"3":{"ha":822,"x_min":0,"x_max":0,"o":"m 409 -16 b 63 251 207 -16 76 96 l 62 259 l 180 259 l 180 252 b 409 90 191 156 279 90 b 625 265 537 90 625 161 l 625 267 b 401 454 625 387 538 454 l 279 454 l 279 557 l 396 557 b 594 726 513 557 594 629 l 594 728 b 408 889 594 830 527 889 b 200 729 292 889 210 828 l 199 722 l 82 722 l 83 729 b 408 995 98 888 224 995 b 717 743 594 995 717 891 l 717 741 b 509 512 717 621 631 538 l 509 509 b 749 269 652 497 749 408 l 749 268 b 409 -16 749 104 605 -16 "},"4":{"ha":840,"x_min":0,"x_max":0,"o":"m 545 203 l 53 203 l 53 314 l 482 979 l 663 979 l 663 311 l 801 311 l 801 203 l 663 203 l 663 0 l 545 0 m 545 311 l 545 874 l 541 874 l 174 313 l 174 311 "},"5":{"ha":812,"x_min":0,"x_max":0,"o":"m 416 -16 b 81 260 229 -16 95 100 l 80 267 l 200 267 l 201 262 b 417 91 213 165 300 91 b 642 315 550 91 642 183 l 642 316 b 419 537 642 445 549 537 b 252 478 353 537 296 517 b 206 420 235 462 219 443 l 98 420 l 149 979 l 709 979 l 709 870 l 249 870 l 216 541 l 218 541 b 441 642 264 607 346 642 b 764 318 629 642 764 506 l 764 317 b 416 -16 764 121 619 -16 "},"6":{"ha":857,"x_min":0,"x_max":0,"o":"m 433 -16 b 62 471 253 -16 62 109 l 62 473 b 441 995 62 802 202 995 b 764 758 608 995 732 900 l 766 749 l 642 749 l 640 756 b 440 887 610 837 541 887 b 180 505 258 887 186 710 b 180 484 180 498 180 491 l 182 484 b 455 641 222 570 322 641 b 780 317 642 641 780 503 l 780 316 b 433 -16 780 123 633 -16 m 209 317 b 432 92 209 192 307 92 b 656 313 557 92 656 190 l 656 315 b 434 534 656 442 563 534 b 209 318 306 534 209 443 l 209 317 "},"7":{"ha":760,"x_min":0,"x_max":0,"o":"m 578 867 l 578 870 l 52 870 l 52 979 l 699 979 l 699 865 l 264 0 l 136 0 "},"8":{"ha":833,"x_min":0,"x_max":0,"o":"m 416 -16 b 61 264 209 -16 61 100 l 61 266 b 271 516 61 387 146 487 l 271 519 b 96 736 164 552 96 633 l 96 738 b 416 995 96 886 231 995 b 736 738 602 995 736 886 l 736 736 b 562 519 736 633 669 552 l 562 516 b 772 266 687 487 772 387 l 772 264 b 416 -16 772 100 624 -16 m 416 564 b 615 726 534 564 615 631 l 615 728 b 416 890 615 823 534 890 b 218 728 298 890 218 823 l 218 726 b 416 564 218 631 298 564 m 416 90 b 648 272 551 90 648 166 l 648 273 b 416 457 648 380 552 457 b 185 273 281 457 185 380 l 185 272 b 416 90 185 166 281 90 "},"9":{"ha":857,"x_min":0,"x_max":0,"o":"m 424 995 b 795 507 604 995 795 870 l 795 506 b 416 -16 795 176 655 -16 b 93 221 250 -16 125 79 l 91 230 l 215 230 l 218 222 b 417 92 247 142 317 92 b 677 474 600 92 671 269 b 677 495 677 481 677 488 l 675 495 b 402 338 635 408 535 338 b 77 661 216 338 77 475 l 77 663 b 424 995 77 855 224 995 m 423 445 b 648 661 551 445 648 536 l 648 661 b 425 886 648 787 551 886 b 201 665 300 886 201 789 l 201 664 b 423 445 201 536 294 445 "}," ":{"ha":0,"x_min":0,"x_max":0,"o":""}," ":{"ha":0,"x_min":0,"x_max":0,"o":""}," ":{"ha":285,"x_min":0,"x_max":0,"o":""}," ":{"ha":285,"x_min":0,"x_max":0,"o":""}," ":{"ha":142,"x_min":0,"x_max":0,"o":""}," ":{"ha":694,"x_min":0,"x_max":0,"o":""}," ":{"ha":1389,"x_min":0,"x_max":0,"o":""}," ":{"ha":694,"x_min":0,"x_max":0,"o":""}," ":{"ha":1389,"x_min":0,"x_max":0,"o":""}," ":{"ha":463,"x_min":0,"x_max":0,"o":""}," ":{"ha":347,"x_min":0,"x_max":0,"o":""}," ":{"ha":231,"x_min":0,"x_max":0,"o":""}," ":{"ha":840,"x_min":0,"x_max":0,"o":""}," ":{"ha":298,"x_min":0,"x_max":0,"o":""}," ":{"ha":142,"x_min":0,"x_max":0,"o":""}," ":{"ha":71,"x_min":0,"x_max":0,"o":""},"​":{"ha":0,"x_min":0,"x_max":0,"o":""},"‌":{"ha":0,"x_min":0,"x_max":0,"o":""},"‍":{"ha":0,"x_min":0,"x_max":0,"o":""},"⁠":{"ha":0,"x_min":0,"x_max":0,"o":""}," ":{"ha":309,"x_min":0,"x_max":0,"o":""},"A":{"ha":882,"x_min":0,"x_max":0,"o":"m 381 979 l 502 979 l 865 0 l 737 0 l 638 280 l 244 280 l 145 0 l 17 0 m 281 384 l 602 384 l 443 832 l 440 832 "},"À":{"ha":882,"x_min":0,"x_max":0,"o":"m 269 1253 l 391 1253 l 501 1057 l 412 1057 m 381 979 l 502 979 l 865 0 l 737 0 l 638 280 l 244 280 l 145 0 l 17 0 m 281 384 l 602 384 l 443 832 l 440 832 "},"Á":{"ha":882,"x_min":0,"x_max":0,"o":"m 386 1057 l 496 1253 l 618 1253 l 475 1057 m 381 979 l 502 979 l 865 0 l 737 0 l 638 280 l 244 280 l 145 0 l 17 0 m 281 384 l 602 384 l 443 832 l 440 832 "},"Ä":{"ha":882,"x_min":0,"x_max":0,"o":"m 320 1090 b 253 1157 283 1090 253 1120 b 320 1224 253 1194 283 1224 b 387 1157 357 1224 387 1194 b 320 1090 387 1120 357 1090 m 563 1090 b 496 1157 526 1090 496 1120 b 563 1224 496 1194 526 1224 b 630 1157 601 1224 630 1194 b 563 1090 630 1120 601 1090 m 381 979 l 502 979 l 865 0 l 737 0 l 638 280 l 244 280 l 145 0 l 17 0 m 281 384 l 602 384 l 443 832 l 440 832 "},"Ǟ":{"ha":882,"x_min":0,"x_max":0,"o":"m 265 1280 l 618 1280 l 618 1199 l 265 1199 m 556 1029 b 495 1090 522 1029 495 1056 l 495 1091 b 556 1151 495 1125 522 1151 l 557 1151 b 618 1091 591 1151 618 1125 l 618 1090 b 557 1029 618 1056 591 1029 l 556 1029 m 326 1029 b 265 1090 292 1029 265 1056 l 265 1091 b 326 1151 265 1125 292 1151 l 328 1151 b 388 1091 361 1151 388 1125 l 388 1090 b 328 1029 388 1056 361 1029 l 326 1029 m 381 979 l 502 979 l 865 0 l 737 0 l 638 280 l 244 280 l 145 0 l 17 0 m 281 384 l 602 384 l 443 832 l 440 832 "},"Å":{"ha":882,"x_min":0,"x_max":0,"o":"m 444 1034 b 320 1155 376 1034 320 1088 l 320 1156 b 444 1276 320 1223 376 1276 b 568 1156 512 1276 568 1223 l 568 1155 b 444 1034 568 1088 512 1034 m 444 1100 b 499 1155 475 1100 499 1124 l 499 1156 b 444 1211 499 1186 475 1211 b 389 1156 413 1211 389 1186 l 389 1155 b 444 1100 389 1124 413 1100 m 381 979 l 502 979 l 865 0 l 737 0 l 638 280 l 244 280 l 145 0 l 17 0 m 281 384 l 602 384 l 443 832 l 440 832 "},"Å":{"ha":882,"x_min":0,"x_max":0,"o":"m 444 1034 b 568 1155 512 1034 568 1088 l 568 1156 b 444 1276 568 1223 512 1276 b 320 1156 376 1276 320 1223 l 320 1155 b 444 1034 320 1088 376 1034 m 444 1100 b 389 1155 413 1100 389 1124 l 389 1156 b 444 1211 389 1186 413 1211 b 499 1156 475 1211 499 1186 l 499 1155 b 444 1100 499 1124 475 1100 m 17 0 l 145 0 l 244 280 l 638 280 l 737 0 l 865 0 l 502 979 l 381 979 m 440 832 l 443 832 l 602 384 l 281 384 "},"Ǻ":{"ha":882,"x_min":0,"x_max":0,"o":"m 494 1315 l 599 1315 l 465 1187 l 385 1187 m 397 1015 b 302 1095 333 1015 302 1054 l 302 1096 b 397 1175 302 1136 333 1175 l 486 1175 b 581 1096 550 1175 581 1136 l 581 1095 b 486 1015 581 1054 549 1015 l 397 1015 m 484 1069 b 513 1094 502 1069 513 1080 l 513 1095 b 484 1120 513 1110 502 1120 l 400 1120 b 370 1095 381 1120 370 1110 l 370 1094 b 400 1069 370 1080 381 1069 m 381 979 l 502 979 l 865 0 l 737 0 l 638 280 l 244 280 l 145 0 l 17 0 m 281 384 l 602 384 l 443 832 l 440 832 "},"Ã":{"ha":882,"x_min":0,"x_max":0,"o":"m 533 1058 b 443 1093 496 1058 467 1072 l 419 1112 b 361 1145 398 1131 380 1145 b 326 1065 336 1145 326 1120 l 326 1059 l 245 1059 l 245 1067 b 349 1234 245 1178 284 1234 b 437 1199 385 1234 413 1219 l 460 1179 b 521 1146 482 1161 502 1146 b 556 1226 546 1146 556 1172 l 556 1232 l 637 1232 l 637 1225 b 533 1058 637 1114 598 1058 m 381 979 l 502 979 l 865 0 l 737 0 l 638 280 l 244 280 l 145 0 l 17 0 m 281 384 l 602 384 l 443 832 l 440 832 "},"Ằ":{"ha":882,"x_min":0,"x_max":0,"o":"m 418 1195 l 284 1322 l 389 1322 l 498 1195 m 441 1026 b 260 1184 329 1026 260 1085 l 260 1190 l 334 1190 l 334 1187 b 441 1097 334 1135 372 1097 l 442 1097 b 549 1187 511 1097 549 1135 l 549 1190 l 623 1190 l 623 1184 b 442 1026 623 1085 554 1026 l 441 1026 m 381 979 l 502 979 l 865 0 l 737 0 l 638 280 l 244 280 l 145 0 l 17 0 m 281 384 l 602 384 l 443 832 l 440 832 "},"Ǡ":{"ha":882,"x_min":0,"x_max":0,"o":"m 265 1283 l 618 1283 l 618 1202 l 265 1202 m 441 1035 b 380 1096 407 1035 380 1062 l 380 1097 b 441 1157 380 1131 407 1157 l 442 1157 b 503 1097 476 1157 503 1131 l 503 1096 b 442 1035 503 1062 476 1035 l 441 1035 m 381 979 l 502 979 l 865 0 l 737 0 l 638 280 l 244 280 l 145 0 l 17 0 m 281 384 l 602 384 l 443 832 l 440 832 "},"Ḁ":{"ha":882,"x_min":0,"x_max":0,"o":"m 381 979 l 502 979 l 865 0 l 737 0 l 638 280 l 244 280 l 145 0 l 17 0 m 281 384 l 602 384 l 443 832 l 440 832 m 442 -68 b 577 -200 517 -68 577 -127 l 577 -201 b 442 -332 577 -273 517 -332 l 441 -332 b 306 -201 366 -332 306 -273 l 306 -200 b 441 -68 306 -127 366 -68 l 442 -68 m 441 -137 b 378 -200 406 -137 378 -165 l 378 -201 b 441 -263 378 -235 406 -263 l 442 -263 b 505 -201 477 -263 505 -235 l 505 -200 b 442 -137 505 -165 477 -137 "},"Â":{"ha":882,"x_min":0,"x_max":0,"o":"m 389 1253 l 494 1253 l 640 1057 l 540 1057 l 441 1194 l 343 1057 l 243 1057 m 381 979 l 502 979 l 865 0 l 737 0 l 638 280 l 244 280 l 145 0 l 17 0 m 281 384 l 602 384 l 443 832 l 440 832 "},"Ậ":{"ha":882,"x_min":0,"x_max":0,"o":"m 389 1253 l 494 1253 l 640 1057 l 540 1057 l 441 1194 l 343 1057 l 243 1057 m 381 979 l 502 979 l 865 0 l 737 0 l 638 280 l 244 280 l 145 0 l 17 0 m 281 384 l 602 384 l 443 832 l 440 832 m 441 -267 b 368 -193 401 -267 368 -234 b 441 -119 368 -152 401 -119 b 515 -193 483 -119 515 -152 b 441 -267 515 -234 483 -267 "},"Ấ":{"ha":882,"x_min":0,"x_max":0,"o":"m 619 1322 l 724 1322 l 590 1195 l 510 1195 m 492 1163 l 623 1026 l 524 1026 l 441 1114 l 359 1026 l 260 1026 l 391 1163 m 381 979 l 502 979 l 865 0 l 737 0 l 638 280 l 244 280 l 145 0 l 17 0 m 281 384 l 602 384 l 443 832 l 440 832 "},"Ẫ":{"ha":882,"x_min":0,"x_max":0,"o":"m 524 1192 b 434 1219 489 1192 462 1202 l 418 1230 b 369 1249 398 1243 385 1249 b 334 1194 347 1249 334 1231 l 334 1192 l 260 1192 l 260 1198 b 359 1322 260 1282 300 1322 b 447 1294 392 1322 420 1312 l 463 1284 b 514 1265 484 1270 497 1265 b 549 1320 536 1265 549 1284 l 549 1322 l 623 1322 l 623 1317 b 524 1192 623 1233 582 1192 m 492 1163 l 623 1026 l 524 1026 l 441 1114 l 359 1026 l 260 1026 l 391 1163 m 381 979 l 502 979 l 865 0 l 737 0 l 638 280 l 244 280 l 145 0 l 17 0 m 281 384 l 602 384 l 443 832 l 440 832 "},"Ầ":{"ha":882,"x_min":0,"x_max":0,"o":"m 543 1195 l 409 1322 l 513 1322 l 623 1195 m 492 1163 l 623 1026 l 524 1026 l 441 1114 l 359 1026 l 260 1026 l 391 1163 m 381 979 l 502 979 l 865 0 l 737 0 l 638 280 l 244 280 l 145 0 l 17 0 m 281 384 l 602 384 l 443 832 l 440 832 "},"Ẩ":{"ha":882,"x_min":0,"x_max":0,"o":"m 518 1169 b 543 1219 534 1185 543 1203 b 498 1255 543 1242 525 1255 b 475 1253 490 1255 480 1254 l 475 1321 b 527 1329 488 1326 507 1329 b 624 1246 583 1329 624 1297 b 580 1166 624 1214 607 1188 l 518 1166 m 492 1163 l 623 1026 l 524 1026 l 441 1114 l 359 1026 l 260 1026 l 391 1163 m 381 979 l 502 979 l 865 0 l 737 0 l 638 280 l 244 280 l 145 0 l 17 0 m 281 384 l 602 384 l 443 832 l 440 832 "},"Ă":{"ha":882,"x_min":0,"x_max":0,"o":"m 442 1055 b 256 1242 328 1055 256 1132 l 256 1248 l 340 1248 l 340 1244 b 442 1136 340 1186 378 1136 b 543 1244 505 1136 543 1186 l 543 1248 l 628 1248 l 628 1242 b 442 1055 628 1132 556 1055 m 381 979 l 502 979 l 865 0 l 737 0 l 638 280 l 244 280 l 145 0 l 17 0 m 281 384 l 602 384 l 443 832 l 440 832 "},"Ắ":{"ha":882,"x_min":0,"x_max":0,"o":"m 494 1322 l 599 1322 l 465 1195 l 385 1195 m 441 1026 b 260 1184 329 1026 260 1085 l 260 1190 l 334 1190 l 334 1187 b 441 1097 334 1135 372 1097 l 442 1097 b 549 1187 511 1097 549 1135 l 549 1190 l 623 1190 l 623 1184 b 442 1026 623 1085 554 1026 l 441 1026 m 381 979 l 502 979 l 865 0 l 737 0 l 638 280 l 244 280 l 145 0 l 17 0 m 281 384 l 602 384 l 443 832 l 440 832 "},"Ẵ":{"ha":882,"x_min":0,"x_max":0,"o":"m 524 1192 b 434 1219 489 1192 462 1202 l 418 1230 b 369 1249 398 1243 385 1249 b 334 1194 347 1249 334 1231 l 334 1192 l 260 1192 l 260 1198 b 359 1322 260 1282 300 1322 b 447 1294 392 1322 420 1312 l 463 1284 b 514 1265 484 1270 497 1265 b 549 1320 536 1265 549 1284 l 549 1322 l 623 1322 l 623 1317 b 524 1192 623 1233 582 1192 m 441 1026 b 260 1156 329 1026 260 1074 l 260 1162 l 334 1162 l 334 1159 b 441 1097 334 1122 372 1097 l 442 1097 b 549 1159 511 1097 549 1122 l 549 1162 l 623 1162 l 623 1156 b 442 1026 623 1074 554 1026 l 441 1026 m 381 979 l 502 979 l 865 0 l 737 0 l 638 280 l 244 280 l 145 0 l 17 0 m 281 384 l 602 384 l 443 832 l 440 832 "},"Ẳ":{"ha":882,"x_min":0,"x_max":0,"o":"m 393 1169 b 418 1219 410 1185 418 1203 b 374 1255 418 1242 400 1255 b 350 1253 365 1255 355 1254 l 350 1321 b 402 1329 363 1326 382 1329 b 499 1246 458 1329 499 1297 b 455 1166 499 1214 482 1188 l 393 1166 m 441 1026 b 260 1184 329 1026 260 1085 l 260 1190 l 334 1190 l 334 1187 b 441 1097 334 1135 372 1097 l 442 1097 b 549 1187 511 1097 549 1135 l 549 1190 l 623 1190 l 623 1184 b 442 1026 623 1085 554 1026 l 441 1026 m 381 979 l 502 979 l 865 0 l 737 0 l 638 280 l 244 280 l 145 0 l 17 0 m 281 384 l 602 384 l 443 832 l 440 832 "},"Ặ":{"ha":882,"x_min":0,"x_max":0,"o":"m 442 1055 b 256 1242 328 1055 256 1132 l 256 1248 l 340 1248 l 340 1244 b 442 1136 340 1186 378 1136 b 543 1244 505 1136 543 1186 l 543 1248 l 628 1248 l 628 1242 b 442 1055 628 1132 556 1055 m 381 979 l 502 979 l 865 0 l 737 0 l 638 280 l 244 280 l 145 0 l 17 0 m 281 384 l 602 384 l 443 832 l 440 832 m 441 -267 b 368 -193 401 -267 368 -234 b 441 -119 368 -152 401 -119 b 515 -193 483 -119 515 -152 b 441 -267 515 -234 483 -267 "},"Ȃ":{"ha":882,"x_min":0,"x_max":0,"o":"m 441 1248 b 628 1061 556 1248 628 1171 l 628 1055 l 543 1055 l 543 1059 b 441 1167 543 1117 505 1167 b 340 1059 378 1167 340 1117 l 340 1055 l 256 1055 l 256 1061 b 441 1248 256 1171 328 1248 m 381 979 l 502 979 l 865 0 l 737 0 l 638 280 l 244 280 l 145 0 l 17 0 m 281 384 l 602 384 l 443 832 l 440 832 "},"Ǎ":{"ha":882,"x_min":0,"x_max":0,"o":"m 494 1057 l 389 1057 l 243 1253 l 343 1253 l 441 1116 l 540 1253 l 640 1253 m 381 979 l 502 979 l 865 0 l 737 0 l 638 280 l 244 280 l 145 0 l 17 0 m 281 384 l 602 384 l 443 832 l 440 832 "},"Ȧ":{"ha":882,"x_min":0,"x_max":0,"o":"m 441 1092 b 371 1162 403 1092 371 1124 b 441 1232 371 1201 403 1232 b 511 1162 480 1232 511 1201 b 441 1092 511 1124 480 1092 m 381 979 l 502 979 l 865 0 l 737 0 l 638 280 l 244 280 l 145 0 l 17 0 m 281 384 l 602 384 l 443 832 l 440 832 "},"Ạ":{"ha":882,"x_min":0,"x_max":0,"o":"m 381 979 l 502 979 l 865 0 l 737 0 l 638 280 l 244 280 l 145 0 l 17 0 m 281 384 l 602 384 l 443 832 l 440 832 m 441 -267 b 368 -193 401 -267 368 -234 b 441 -119 368 -152 401 -119 b 515 -193 483 -119 515 -152 b 441 -267 515 -234 483 -267 "},"Ả":{"ha":882,"x_min":0,"x_max":0,"o":"m 390 1059 b 453 1140 431 1089 453 1116 b 373 1186 453 1169 418 1186 b 332 1183 353 1186 340 1184 l 332 1252 b 405 1263 347 1258 374 1263 b 541 1160 476 1263 541 1223 b 474 1057 541 1121 520 1088 l 390 1057 m 381 979 l 502 979 l 865 0 l 737 0 l 638 280 l 244 280 l 145 0 l 17 0 m 281 384 l 602 384 l 443 832 l 440 832 "},"Ȁ":{"ha":882,"x_min":0,"x_max":0,"o":"m 151 1253 l 272 1253 l 396 1057 l 307 1057 m 374 1253 l 495 1253 l 606 1057 l 516 1057 m 381 979 l 502 979 l 865 0 l 737 0 l 638 280 l 244 280 l 145 0 l 17 0 m 281 384 l 602 384 l 443 832 l 440 832 "},"Ā":{"ha":882,"x_min":0,"x_max":0,"o":"m 261 1200 l 621 1200 l 621 1114 l 261 1114 m 381 979 l 502 979 l 865 0 l 737 0 l 638 280 l 244 280 l 145 0 l 17 0 m 281 384 l 602 384 l 443 832 l 440 832 "},"Ą":{"ha":882,"x_min":0,"x_max":0,"o":"m 381 979 l 502 979 l 865 0 b 761 -159 799 -46 761 -97 l 761 -161 b 831 -237 761 -214 792 -237 b 873 -230 848 -237 862 -235 l 873 -309 b 807 -320 856 -317 825 -320 b 651 -178 723 -320 651 -272 l 651 -177 b 746 0 651 -112 687 -46 l 737 0 l 638 280 l 244 280 l 145 0 l 17 0 m 281 384 l 602 384 l 443 832 l 440 832 "},"Ⱥ":{"ha":882,"x_min":0,"x_max":0,"o":"m 381 979 l 502 979 l 530 902 l 588 1091 l 686 1061 l 589 745 l 865 0 l 737 0 l 638 280 l 447 280 l 327 -113 l 229 -83 l 340 280 l 244 280 l 145 0 l 17 0 m 281 384 l 372 384 l 478 732 l 443 832 l 440 832 m 602 384 l 536 570 l 479 384 "},"B":{"ha":840,"x_min":0,"x_max":0,"o":"m 95 979 l 466 979 b 747 734 633 979 747 881 l 747 733 b 570 519 747 632 671 534 l 570 517 b 796 276 711 500 796 406 l 796 275 b 465 0 796 102 673 0 l 95 0 m 217 871 l 217 557 l 400 557 b 623 720 545 557 623 614 l 623 722 b 438 871 623 818 556 871 m 217 452 l 217 108 l 446 108 b 671 279 593 108 671 167 l 671 281 b 435 452 671 394 591 452 "},"Ḇ":{"ha":840,"x_min":0,"x_max":0,"o":"m 95 979 l 466 979 b 747 734 633 979 747 881 l 747 733 b 570 519 747 632 671 534 l 570 517 b 796 276 711 500 796 406 l 796 275 b 465 0 796 102 673 0 l 95 0 m 217 871 l 217 557 l 400 557 b 623 720 545 557 623 614 l 623 722 b 438 871 623 818 556 871 m 217 452 l 217 108 l 446 108 b 671 279 593 108 671 167 l 671 281 b 435 452 671 394 591 452 m 198 -142 l 572 -142 l 572 -228 l 198 -228 "},"Ḅ":{"ha":840,"x_min":0,"x_max":0,"o":"m 95 979 l 466 979 b 747 734 633 979 747 881 l 747 733 b 570 519 747 632 671 534 l 570 517 b 796 276 711 500 796 406 l 796 275 b 465 0 796 102 673 0 l 95 0 m 217 871 l 217 557 l 400 557 b 623 720 545 557 623 614 l 623 722 b 438 871 623 818 556 871 m 217 452 l 217 108 l 446 108 b 671 279 593 108 671 167 l 671 281 b 435 452 671 394 591 452 m 385 -267 b 311 -193 345 -267 311 -234 b 385 -119 311 -152 345 -119 b 459 -193 427 -119 459 -152 b 385 -267 459 -234 427 -267 "},"Ḃ":{"ha":840,"x_min":0,"x_max":0,"o":"m 385 1092 b 315 1162 347 1092 315 1124 b 385 1232 315 1201 347 1232 b 455 1162 424 1232 455 1201 b 385 1092 455 1124 424 1092 m 95 979 l 466 979 b 747 734 633 979 747 881 l 747 733 b 570 519 747 632 671 534 l 570 517 b 796 276 711 500 796 406 l 796 275 b 465 0 796 102 673 0 l 95 0 m 217 871 l 217 557 l 400 557 b 623 720 545 557 623 614 l 623 722 b 438 871 623 818 556 871 m 217 452 l 217 108 l 446 108 b 671 279 593 108 671 167 l 671 281 b 435 452 671 394 591 452 "},"Ɓ":{"ha":1019,"x_min":0,"x_max":0,"o":"m 275 869 l 233 869 b 127 766 161 869 127 834 b 144 664 127 735 132 703 l 33 664 b 14 782 20 703 14 741 b 224 979 14 906 92 979 l 646 979 b 926 734 813 979 926 881 l 926 733 b 749 519 926 632 850 534 l 749 517 b 976 276 890 500 976 406 l 976 275 b 644 0 976 102 852 0 l 275 0 m 397 871 l 397 557 l 580 557 b 803 720 724 557 803 614 l 803 722 b 618 871 803 818 736 871 m 397 452 l 397 108 l 626 108 b 850 279 772 108 850 167 l 850 281 b 614 452 850 394 770 452 "},"C":{"ha":953,"x_min":0,"x_max":0,"o":"m 504 -16 b 57 490 232 -16 57 182 l 57 490 b 504 995 57 798 231 995 b 903 686 707 995 865 871 l 904 680 l 781 680 l 776 694 b 504 882 738 813 642 882 b 182 490 309 882 182 728 l 182 490 b 504 96 182 252 309 96 b 779 293 641 96 736 164 l 781 299 l 904 299 l 903 292 b 504 -16 865 105 709 -16 "},"Ć":{"ha":953,"x_min":0,"x_max":0,"o":"m 449 1057 l 559 1253 l 681 1253 l 538 1057 m 504 -16 b 57 490 232 -16 57 182 l 57 490 b 504 995 57 798 231 995 b 903 686 707 995 865 871 l 904 680 l 781 680 l 776 694 b 504 882 738 813 642 882 b 182 490 309 882 182 728 l 182 490 b 504 96 182 252 309 96 b 779 293 641 96 736 164 l 781 299 l 904 299 l 903 292 b 504 -16 865 105 709 -16 "},"Č":{"ha":953,"x_min":0,"x_max":0,"o":"m 557 1057 l 452 1057 l 307 1253 l 406 1253 l 505 1116 l 603 1253 l 703 1253 m 504 -16 b 57 490 232 -16 57 182 l 57 490 b 504 995 57 798 231 995 b 903 686 707 995 865 871 l 904 680 l 781 680 l 776 694 b 504 882 738 813 642 882 b 182 490 309 882 182 728 l 182 490 b 504 96 182 252 309 96 b 779 293 641 96 736 164 l 781 299 l 904 299 l 903 292 b 504 -16 865 105 709 -16 "},"Ĉ":{"ha":953,"x_min":0,"x_max":0,"o":"m 452 1253 l 557 1253 l 703 1057 l 603 1057 l 505 1194 l 406 1057 l 307 1057 m 504 -16 b 57 490 232 -16 57 182 l 57 490 b 504 995 57 798 231 995 b 903 686 707 995 865 871 l 904 680 l 781 680 l 776 694 b 504 882 738 813 642 882 b 182 490 309 882 182 728 l 182 490 b 504 96 182 252 309 96 b 779 293 641 96 736 164 l 781 299 l 904 299 l 903 292 b 504 -16 865 105 709 -16 "},"Ċ":{"ha":953,"x_min":0,"x_max":0,"o":"m 504 1092 b 434 1162 466 1092 434 1124 b 504 1232 434 1201 466 1232 b 574 1162 543 1232 574 1201 b 504 1092 574 1124 543 1092 m 504 -16 b 57 490 232 -16 57 182 l 57 490 b 504 995 57 798 231 995 b 903 686 707 995 865 871 l 904 680 l 781 680 l 776 694 b 504 882 738 813 642 882 b 182 490 309 882 182 728 l 182 490 b 504 96 182 252 309 96 b 779 293 641 96 736 164 l 781 299 l 904 299 l 903 292 b 504 -16 865 105 709 -16 "},"Ç":{"ha":953,"x_min":0,"x_max":0,"o":"m 498 -309 b 396 -292 456 -309 416 -302 l 396 -217 b 470 -229 412 -223 441 -229 b 538 -188 506 -229 538 -218 l 538 -186 b 458 -138 538 -153 510 -138 l 427 -138 l 427 -78 l 469 -15 b 57 490 217 1 57 195 l 57 490 b 504 995 57 798 231 995 b 903 686 707 995 865 871 l 904 680 l 781 680 l 776 694 b 504 882 738 813 642 882 b 182 490 309 882 182 728 l 182 490 b 504 96 182 252 309 96 b 779 293 641 96 736 164 l 781 299 l 904 299 l 903 292 b 553 -14 869 121 734 4 l 520 -64 b 642 -184 592 -68 642 -107 l 642 -185 b 498 -309 642 -264 573 -309 "},"Ḉ":{"ha":953,"x_min":0,"x_max":0,"o":"m 449 1057 l 559 1253 l 681 1253 l 538 1057 m 498 -309 b 396 -292 456 -309 416 -302 l 396 -217 b 470 -229 412 -223 441 -229 b 538 -188 506 -229 538 -218 l 538 -186 b 458 -138 538 -153 510 -138 l 427 -138 l 427 -78 l 469 -15 b 57 490 217 1 57 195 l 57 490 b 504 995 57 798 231 995 b 903 686 707 995 865 871 l 904 680 l 781 680 l 776 694 b 504 882 738 813 642 882 b 182 490 309 882 182 728 l 182 490 b 504 96 182 252 309 96 b 779 293 641 96 736 164 l 781 299 l 904 299 l 903 292 b 553 -14 869 121 734 4 l 520 -64 b 642 -184 592 -68 642 -107 l 642 -185 b 498 -309 642 -264 573 -309 "},"Ȼ":{"ha":953,"x_min":0,"x_max":0,"o":"m 504 -16 b 387 -3 463 -16 423 -12 l 353 -113 l 255 -83 l 290 33 b 57 490 144 110 57 273 l 57 490 b 504 995 57 798 231 995 b 583 989 531 995 557 993 l 614 1091 l 711 1061 l 680 960 b 903 686 795 911 877 813 l 904 680 l 781 680 l 776 694 b 647 851 753 766 709 820 l 420 107 b 504 96 446 100 474 96 b 779 293 641 96 736 164 l 781 299 l 904 299 l 903 292 b 504 -16 865 105 709 -16 m 182 490 b 326 151 182 335 236 216 l 549 880 b 504 882 534 882 519 882 b 182 490 309 882 182 728 l 182 490 "},"D":{"ha":943,"x_min":0,"x_max":0,"o":"m 95 979 l 424 979 b 886 491 713 979 886 798 l 886 490 b 424 0 886 181 715 0 l 95 0 m 416 110 b 761 488 637 110 761 245 l 761 490 b 416 869 761 734 637 869 l 217 869 l 217 110 "},"Ḋ":{"ha":943,"x_min":0,"x_max":0,"o":"m 420 1092 b 350 1162 382 1092 350 1124 b 420 1232 350 1201 382 1232 b 490 1162 459 1232 490 1201 b 420 1092 490 1124 459 1092 m 95 979 l 424 979 b 886 491 713 979 886 798 l 886 490 b 424 0 886 181 715 0 l 95 0 m 416 110 b 761 488 637 110 761 245 l 761 490 b 416 869 761 734 637 869 l 217 869 l 217 110 "},"Ḓ":{"ha":943,"x_min":0,"x_max":0,"o":"m 95 979 l 424 979 b 886 491 713 979 886 798 l 886 490 b 424 0 886 181 715 0 l 95 0 m 416 110 b 761 488 637 110 761 245 l 761 490 b 416 869 761 734 637 869 l 217 869 l 217 110 m 367 -81 l 474 -81 l 627 -286 l 525 -286 l 420 -140 l 316 -286 l 214 -286 "},"Ḑ":{"ha":943,"x_min":0,"x_max":0,"o":"m 95 979 l 424 979 b 886 491 713 979 886 798 l 886 490 b 424 0 886 181 715 0 l 95 0 m 416 110 b 761 488 637 110 761 245 l 761 490 b 416 869 761 734 637 869 l 217 869 l 217 110 m 361 -81 l 475 -81 l 376 -309 l 300 -309 "},"Ḏ":{"ha":943,"x_min":0,"x_max":0,"o":"m 95 979 l 424 979 b 886 491 713 979 886 798 l 886 490 b 424 0 886 181 715 0 l 95 0 m 416 110 b 761 488 637 110 761 245 l 761 490 b 416 869 761 734 637 869 l 217 869 l 217 110 m 233 -142 l 608 -142 l 608 -228 l 233 -228 "},"Ď":{"ha":943,"x_min":0,"x_max":0,"o":"m 473 1057 l 368 1057 l 222 1253 l 322 1253 l 420 1116 l 519 1253 l 618 1253 m 95 979 l 424 979 b 886 491 713 979 886 798 l 886 490 b 424 0 886 181 715 0 l 95 0 m 416 110 b 761 488 637 110 761 245 l 761 490 b 416 869 761 734 637 869 l 217 869 l 217 110 "},"Ḍ":{"ha":943,"x_min":0,"x_max":0,"o":"m 95 979 l 424 979 b 886 491 713 979 886 798 l 886 490 b 424 0 886 181 715 0 l 95 0 m 416 110 b 761 488 637 110 761 245 l 761 490 b 416 869 761 734 637 869 l 217 869 l 217 110 m 420 -267 b 347 -193 380 -267 347 -234 b 420 -119 347 -152 380 -119 b 494 -193 462 -119 494 -152 b 420 -267 494 -234 462 -267 "},"Ð":{"ha":974,"x_min":0,"x_max":0,"o":"m 126 439 l 31 439 l 31 541 l 126 541 l 126 979 l 455 979 b 917 491 745 979 917 798 l 917 490 b 455 0 917 181 746 0 l 126 0 m 447 110 b 792 488 669 110 792 245 l 792 490 b 447 869 792 734 669 869 l 248 869 l 248 541 l 425 541 l 425 439 l 248 439 l 248 110 "},"Đ":{"ha":974,"x_min":0,"x_max":0,"o":"m 126 0 l 455 0 b 917 490 746 0 917 181 l 917 491 b 455 979 917 798 745 979 l 126 979 l 126 541 l 31 541 l 31 439 l 126 439 m 248 110 l 248 439 l 425 439 l 425 541 l 248 541 l 248 869 l 447 869 b 792 490 669 869 792 734 l 792 488 b 447 110 792 245 669 110 "},"Ɗ":{"ha":1122,"x_min":0,"x_max":0,"o":"m 275 869 l 233 869 b 127 766 161 869 127 834 b 144 664 127 735 132 703 l 33 664 b 14 782 20 703 14 741 b 224 979 14 906 92 979 l 604 979 b 1065 491 893 979 1065 798 l 1065 490 b 604 0 1065 181 895 0 l 275 0 m 595 110 b 941 488 817 110 941 245 l 941 490 b 595 869 941 734 817 869 l 397 869 l 397 110 "},"E":{"ha":767,"x_min":0,"x_max":0,"o":"m 95 979 l 701 979 l 701 869 l 217 869 l 217 555 l 676 555 l 676 446 l 217 446 l 217 110 l 701 110 l 701 0 l 95 0 "},"È":{"ha":767,"x_min":0,"x_max":0,"o":"m 226 1253 l 347 1253 l 458 1057 l 368 1057 m 95 979 l 701 979 l 701 869 l 217 869 l 217 555 l 676 555 l 676 446 l 217 446 l 217 110 l 701 110 l 701 0 l 95 0 "},"Ȅ":{"ha":767,"x_min":0,"x_max":0,"o":"m 107 1253 l 229 1253 l 353 1057 l 263 1057 m 330 1253 l 452 1253 l 562 1057 l 473 1057 m 95 979 l 701 979 l 701 869 l 217 869 l 217 555 l 676 555 l 676 446 l 217 446 l 217 110 l 701 110 l 701 0 l 95 0 "},"É":{"ha":767,"x_min":0,"x_max":0,"o":"m 342 1057 l 453 1253 l 574 1253 l 432 1057 m 95 979 l 701 979 l 701 869 l 217 869 l 217 555 l 676 555 l 676 446 l 217 446 l 217 110 l 701 110 l 701 0 l 95 0 "},"Ê":{"ha":767,"x_min":0,"x_max":0,"o":"m 345 1253 l 451 1253 l 596 1057 l 496 1057 l 398 1194 l 300 1057 l 200 1057 m 95 979 l 701 979 l 701 869 l 217 869 l 217 555 l 676 555 l 676 446 l 217 446 l 217 110 l 701 110 l 701 0 l 95 0 "},"Ể":{"ha":767,"x_min":0,"x_max":0,"o":"m 475 1169 b 499 1219 491 1185 499 1203 b 455 1255 499 1242 481 1255 b 431 1253 446 1255 437 1254 l 431 1321 b 484 1329 445 1326 464 1329 b 581 1246 540 1329 581 1297 b 536 1166 581 1214 564 1188 l 475 1166 m 448 1163 l 580 1026 l 481 1026 l 398 1114 l 315 1026 l 216 1026 l 347 1163 m 95 979 l 701 979 l 701 869 l 217 869 l 217 555 l 676 555 l 676 446 l 217 446 l 217 110 l 701 110 l 701 0 l 95 0 "},"Ề":{"ha":767,"x_min":0,"x_max":0,"o":"m 499 1195 l 366 1322 l 470 1322 l 579 1195 m 448 1163 l 580 1026 l 481 1026 l 398 1114 l 315 1026 l 216 1026 l 347 1163 m 95 979 l 701 979 l 701 869 l 217 869 l 217 555 l 676 555 l 676 446 l 217 446 l 217 110 l 701 110 l 701 0 l 95 0 "},"Ễ":{"ha":767,"x_min":0,"x_max":0,"o":"m 481 1192 b 391 1219 446 1192 418 1202 l 375 1230 b 326 1249 355 1243 342 1249 b 291 1194 304 1249 291 1231 l 291 1192 l 216 1192 l 216 1198 b 315 1322 216 1282 256 1322 b 404 1294 349 1322 376 1312 l 419 1284 b 471 1265 440 1270 454 1265 b 505 1320 492 1265 505 1284 l 505 1322 l 580 1322 l 580 1317 b 481 1192 580 1233 538 1192 m 448 1163 l 580 1026 l 481 1026 l 398 1114 l 315 1026 l 216 1026 l 347 1163 m 95 979 l 701 979 l 701 869 l 217 869 l 217 555 l 676 555 l 676 446 l 217 446 l 217 110 l 701 110 l 701 0 l 95 0 "},"Ệ":{"ha":767,"x_min":0,"x_max":0,"o":"m 345 1253 l 451 1253 l 596 1057 l 496 1057 l 398 1194 l 300 1057 l 200 1057 m 95 979 l 701 979 l 701 869 l 217 869 l 217 555 l 676 555 l 676 446 l 217 446 l 217 110 l 701 110 l 701 0 l 95 0 m 398 -267 b 324 -193 357 -267 324 -234 b 398 -119 324 -152 357 -119 b 472 -193 439 -119 472 -152 b 398 -267 472 -234 439 -267 "},"Ế":{"ha":767,"x_min":0,"x_max":0,"o":"m 576 1322 l 680 1322 l 547 1195 l 467 1195 m 448 1163 l 580 1026 l 481 1026 l 398 1114 l 315 1026 l 216 1026 l 347 1163 m 95 979 l 701 979 l 701 869 l 217 869 l 217 555 l 676 555 l 676 446 l 217 446 l 217 110 l 701 110 l 701 0 l 95 0 "},"Ë":{"ha":767,"x_min":0,"x_max":0,"o":"m 277 1090 b 210 1157 239 1090 210 1120 b 277 1224 210 1194 239 1224 b 343 1157 314 1224 343 1194 b 277 1090 343 1120 314 1090 m 519 1090 b 453 1157 483 1090 453 1120 b 519 1224 453 1194 483 1224 b 587 1157 557 1224 587 1194 b 519 1090 587 1120 557 1090 m 95 979 l 701 979 l 701 869 l 217 869 l 217 555 l 676 555 l 676 446 l 217 446 l 217 110 l 701 110 l 701 0 l 95 0 "},"Ẹ":{"ha":767,"x_min":0,"x_max":0,"o":"m 95 979 l 701 979 l 701 869 l 217 869 l 217 555 l 676 555 l 676 446 l 217 446 l 217 110 l 701 110 l 701 0 l 95 0 m 398 -267 b 324 -193 357 -267 324 -234 b 398 -119 324 -152 357 -119 b 472 -193 439 -119 472 -152 b 398 -267 472 -234 439 -267 "},"Ȇ":{"ha":767,"x_min":0,"x_max":0,"o":"m 398 1248 b 585 1061 513 1248 585 1171 l 585 1055 l 500 1055 l 500 1059 b 398 1167 500 1117 462 1167 b 297 1059 335 1167 297 1117 l 297 1055 l 212 1055 l 212 1061 b 398 1248 212 1171 284 1248 m 95 979 l 701 979 l 701 869 l 217 869 l 217 555 l 676 555 l 676 446 l 217 446 l 217 110 l 701 110 l 701 0 l 95 0 "},"Ẻ":{"ha":767,"x_min":0,"x_max":0,"o":"m 347 1059 b 410 1140 387 1089 410 1116 b 330 1186 410 1169 374 1186 b 288 1183 309 1186 297 1184 l 288 1252 b 361 1263 304 1258 331 1263 b 498 1160 433 1263 498 1223 b 431 1057 498 1121 477 1088 l 347 1057 m 95 979 l 701 979 l 701 869 l 217 869 l 217 555 l 676 555 l 676 446 l 217 446 l 217 110 l 701 110 l 701 0 l 95 0 "},"Ě":{"ha":767,"x_min":0,"x_max":0,"o":"m 451 1057 l 345 1057 l 200 1253 l 300 1253 l 398 1116 l 496 1253 l 596 1253 m 95 979 l 701 979 l 701 869 l 217 869 l 217 555 l 676 555 l 676 446 l 217 446 l 217 110 l 701 110 l 701 0 l 95 0 "},"Ē":{"ha":767,"x_min":0,"x_max":0,"o":"m 218 1200 l 578 1200 l 578 1114 l 218 1114 m 95 979 l 701 979 l 701 869 l 217 869 l 217 555 l 676 555 l 676 446 l 217 446 l 217 110 l 701 110 l 701 0 l 95 0 "},"Ḕ":{"ha":767,"x_min":0,"x_max":0,"o":"m 374 1186 l 241 1314 l 345 1314 l 454 1186 m 222 1128 l 574 1128 l 574 1046 l 222 1046 m 95 979 l 701 979 l 701 869 l 217 869 l 217 555 l 676 555 l 676 446 l 217 446 l 217 110 l 701 110 l 701 0 l 95 0 "},"Ḗ":{"ha":767,"x_min":0,"x_max":0,"o":"m 451 1314 l 555 1314 l 422 1186 l 342 1186 m 222 1128 l 574 1128 l 574 1046 l 222 1046 m 95 979 l 701 979 l 701 869 l 217 869 l 217 555 l 676 555 l 676 446 l 217 446 l 217 110 l 701 110 l 701 0 l 95 0 "},"Ẽ":{"ha":767,"x_min":0,"x_max":0,"o":"m 490 1058 b 399 1093 453 1058 423 1072 l 376 1112 b 318 1145 355 1131 336 1145 b 283 1065 293 1145 283 1120 l 283 1059 l 202 1059 l 202 1067 b 306 1234 202 1178 241 1234 b 393 1199 342 1234 370 1219 l 417 1179 b 477 1146 439 1161 458 1146 b 513 1226 503 1146 513 1172 l 513 1232 l 593 1232 l 593 1225 b 490 1058 593 1114 555 1058 m 95 979 l 701 979 l 701 869 l 217 869 l 217 555 l 676 555 l 676 446 l 217 446 l 217 110 l 701 110 l 701 0 l 95 0 "},"Ḙ":{"ha":767,"x_min":0,"x_max":0,"o":"m 95 979 l 701 979 l 701 869 l 217 869 l 217 555 l 676 555 l 676 446 l 217 446 l 217 110 l 701 110 l 701 0 l 95 0 m 345 -81 l 452 -81 l 604 -286 l 503 -286 l 398 -140 l 294 -286 l 192 -286 "},"Ĕ":{"ha":767,"x_min":0,"x_max":0,"o":"m 399 1055 b 212 1242 284 1055 212 1132 l 212 1248 l 297 1248 l 297 1244 b 399 1136 297 1186 335 1136 b 500 1244 462 1136 500 1186 l 500 1248 l 585 1248 l 585 1242 b 399 1055 585 1132 513 1055 m 95 979 l 701 979 l 701 869 l 217 869 l 217 555 l 676 555 l 676 446 l 217 446 l 217 110 l 701 110 l 701 0 l 95 0 "},"Ḛ":{"ha":767,"x_min":0,"x_max":0,"o":"m 95 979 l 701 979 l 701 869 l 217 869 l 217 555 l 676 555 l 676 446 l 217 446 l 217 110 l 701 110 l 701 0 l 95 0 m 494 -286 b 399 -250 456 -286 425 -271 l 375 -229 b 314 -193 353 -210 334 -193 b 277 -278 288 -193 277 -220 l 277 -285 l 195 -285 l 195 -277 b 302 -104 195 -162 235 -104 b 394 -141 340 -104 369 -119 l 418 -162 b 482 -197 441 -182 462 -197 b 519 -113 508 -197 519 -170 l 519 -106 l 602 -106 l 602 -114 b 494 -286 602 -229 562 -286 "},"Ė":{"ha":767,"x_min":0,"x_max":0,"o":"m 397 1092 b 328 1162 359 1092 328 1124 b 397 1232 328 1201 359 1232 b 468 1162 437 1232 468 1201 b 397 1092 468 1124 437 1092 m 95 979 l 701 979 l 701 869 l 217 869 l 217 555 l 676 555 l 676 446 l 217 446 l 217 110 l 701 110 l 701 0 l 95 0 "},"Ȩ":{"ha":767,"x_min":0,"x_max":0,"o":"m 95 979 l 701 979 l 701 869 l 217 869 l 217 555 l 676 555 l 676 446 l 217 446 l 217 110 l 701 110 l 701 0 l 456 0 l 414 -64 b 535 -184 486 -68 535 -107 l 535 -185 b 391 -309 535 -264 467 -309 b 290 -292 349 -309 310 -302 l 290 -217 b 363 -229 305 -223 334 -229 b 432 -188 399 -229 432 -218 l 432 -186 b 352 -138 432 -153 404 -138 l 321 -138 l 321 -78 l 373 0 l 95 0 "},"Ḝ":{"ha":767,"x_min":0,"x_max":0,"o":"m 399 1055 b 212 1242 284 1055 212 1132 l 212 1248 l 297 1248 l 297 1244 b 399 1136 297 1186 335 1136 b 500 1244 462 1136 500 1186 l 500 1248 l 585 1248 l 585 1242 b 399 1055 585 1132 513 1055 m 95 979 l 701 979 l 701 869 l 217 869 l 217 555 l 676 555 l 676 446 l 217 446 l 217 110 l 701 110 l 701 0 l 456 0 l 414 -64 b 535 -184 486 -68 535 -107 l 535 -185 b 391 -309 535 -264 467 -309 b 290 -292 349 -309 310 -302 l 290 -217 b 363 -229 305 -223 334 -229 b 432 -188 399 -229 432 -218 l 432 -186 b 352 -138 432 -153 404 -138 l 321 -138 l 321 -78 l 373 0 l 95 0 "},"Ę":{"ha":767,"x_min":0,"x_max":0,"o":"m 95 979 l 701 979 l 701 869 l 217 869 l 217 555 l 676 555 l 676 446 l 217 446 l 217 110 l 701 110 l 701 0 b 597 -159 635 -46 597 -97 l 597 -161 b 667 -237 597 -214 628 -237 b 709 -230 684 -237 698 -235 l 709 -309 b 643 -320 692 -317 661 -320 b 487 -178 559 -320 487 -272 l 487 -177 b 582 0 487 -112 523 -46 l 95 0 "},"Ǝ":{"ha":767,"x_min":0,"x_max":0,"o":"m 66 0 l 66 110 l 550 110 l 550 446 l 91 446 l 91 555 l 550 555 l 550 869 l 66 869 l 66 979 l 672 979 l 672 0 "},"F":{"ha":733,"x_min":0,"x_max":0,"o":"m 95 979 l 689 979 l 689 869 l 217 869 l 217 532 l 650 532 l 650 424 l 217 424 l 217 0 l 95 0 "},"Ḟ":{"ha":733,"x_min":0,"x_max":0,"o":"m 391 1092 b 321 1162 353 1092 321 1124 b 391 1232 321 1201 353 1232 b 462 1162 431 1232 462 1201 b 391 1092 462 1124 431 1092 m 95 979 l 689 979 l 689 869 l 217 869 l 217 532 l 650 532 l 650 424 l 217 424 l 217 0 l 95 0 "},"Ƒ":{"ha":733,"x_min":0,"x_max":0,"o":"m 217 -39 b 20 -237 217 -173 153 -237 b -52 -233 -7 -237 -35 -235 l -52 -137 b 1 -140 -38 -138 -18 -140 b 95 -39 64 -140 95 -106 l 95 979 l 689 979 l 689 869 l 217 869 l 217 532 l 650 532 l 650 424 l 217 424 "},"G":{"ha":981,"x_min":0,"x_max":0,"o":"m 505 -16 b 57 494 232 -16 57 182 l 57 495 b 505 995 57 801 232 995 b 911 692 730 995 865 865 l 914 680 l 786 680 l 783 687 b 505 882 738 811 643 882 b 182 495 304 882 182 736 l 182 494 b 505 96 182 248 306 96 b 798 373 679 96 798 209 l 798 391 l 522 391 l 522 498 l 920 498 l 920 405 b 505 -16 920 140 766 -16 "},"Ǵ":{"ha":981,"x_min":0,"x_max":0,"o":"m 450 1057 l 560 1253 l 682 1253 l 539 1057 m 505 -16 b 57 494 232 -16 57 182 l 57 495 b 505 995 57 801 232 995 b 911 692 730 995 865 865 l 914 680 l 786 680 l 783 687 b 505 882 738 811 643 882 b 182 495 304 882 182 736 l 182 494 b 505 96 182 248 306 96 b 798 373 679 96 798 209 l 798 391 l 522 391 l 522 498 l 920 498 l 920 405 b 505 -16 920 140 766 -16 "},"Ǧ":{"ha":981,"x_min":0,"x_max":0,"o":"m 558 1057 l 452 1057 l 307 1253 l 407 1253 l 505 1116 l 604 1253 l 703 1253 m 505 -16 b 57 494 232 -16 57 182 l 57 495 b 505 995 57 801 232 995 b 911 692 730 995 865 865 l 914 680 l 786 680 l 783 687 b 505 882 738 811 643 882 b 182 495 304 882 182 736 l 182 494 b 505 96 182 248 306 96 b 798 373 679 96 798 209 l 798 391 l 522 391 l 522 498 l 920 498 l 920 405 b 505 -16 920 140 766 -16 "},"Ĝ":{"ha":981,"x_min":0,"x_max":0,"o":"m 452 1253 l 558 1253 l 703 1057 l 604 1057 l 505 1194 l 407 1057 l 307 1057 m 505 -16 b 57 494 232 -16 57 182 l 57 495 b 505 995 57 801 232 995 b 911 692 730 995 865 865 l 914 680 l 786 680 l 783 687 b 505 882 738 811 643 882 b 182 495 304 882 182 736 l 182 494 b 505 96 182 248 306 96 b 798 373 679 96 798 209 l 798 391 l 522 391 l 522 498 l 920 498 l 920 405 b 505 -16 920 140 766 -16 "},"Ğ":{"ha":981,"x_min":0,"x_max":0,"o":"m 506 1055 b 319 1242 391 1055 319 1132 l 319 1248 l 404 1248 l 404 1244 b 506 1136 404 1186 442 1136 b 607 1244 569 1136 607 1186 l 607 1248 l 692 1248 l 692 1242 b 506 1055 692 1132 620 1055 m 505 -16 b 57 494 232 -16 57 182 l 57 495 b 505 995 57 801 232 995 b 911 692 730 995 865 865 l 914 680 l 786 680 l 783 687 b 505 882 738 811 643 882 b 182 495 304 882 182 736 l 182 494 b 505 96 182 248 306 96 b 798 373 679 96 798 209 l 798 391 l 522 391 l 522 498 l 920 498 l 920 405 b 505 -16 920 140 766 -16 "},"Ḡ":{"ha":981,"x_min":0,"x_max":0,"o":"m 325 1200 l 685 1200 l 685 1114 l 325 1114 m 505 -16 b 57 494 232 -16 57 182 l 57 495 b 505 995 57 801 232 995 b 911 692 730 995 865 865 l 914 680 l 786 680 l 783 687 b 505 882 738 811 643 882 b 182 495 304 882 182 736 l 182 494 b 505 96 182 248 306 96 b 798 373 679 96 798 209 l 798 391 l 522 391 l 522 498 l 920 498 l 920 405 b 505 -16 920 140 766 -16 "},"Ġ":{"ha":981,"x_min":0,"x_max":0,"o":"m 505 1092 b 435 1162 467 1092 435 1124 b 505 1232 435 1201 467 1232 b 575 1162 544 1232 575 1201 b 505 1092 575 1124 544 1092 m 505 -16 b 57 494 232 -16 57 182 l 57 495 b 505 995 57 801 232 995 b 911 692 730 995 865 865 l 914 680 l 786 680 l 783 687 b 505 882 738 811 643 882 b 182 495 304 882 182 736 l 182 494 b 505 96 182 248 306 96 b 798 373 679 96 798 209 l 798 391 l 522 391 l 522 498 l 920 498 l 920 405 b 505 -16 920 140 766 -16 "},"Ģ":{"ha":981,"x_min":0,"x_max":0,"o":"m 505 -16 b 57 494 232 -16 57 182 l 57 495 b 505 995 57 801 232 995 b 911 692 730 995 865 865 l 914 680 l 786 680 l 783 687 b 505 882 738 811 643 882 b 182 495 304 882 182 736 l 182 494 b 505 96 182 248 306 96 b 798 373 679 96 798 209 l 798 391 l 522 391 l 522 498 l 920 498 l 920 405 b 505 -16 920 140 766 -16 m 446 -81 l 560 -81 l 461 -309 l 385 -309 "},"Ǥ":{"ha":1029,"x_min":0,"x_max":0,"o":"m 505 -16 b 57 494 232 -16 57 182 l 57 495 b 505 995 57 801 232 995 b 911 692 730 995 865 865 l 914 680 l 786 680 l 783 687 b 505 882 738 811 643 882 b 182 495 304 882 182 736 l 182 494 b 505 96 182 248 306 96 b 756 220 617 96 707 143 l 598 220 l 598 322 l 794 322 b 798 373 797 338 798 355 l 798 391 l 522 391 l 522 498 l 920 498 l 920 405 b 915 322 920 376 918 349 l 1030 322 l 1030 220 l 890 220 b 505 -16 832 69 698 -16 "},"H":{"ha":971,"x_min":0,"x_max":0,"o":"m 95 979 l 217 979 l 217 555 l 754 555 l 754 979 l 876 979 l 876 0 l 754 0 l 754 446 l 217 446 l 217 0 l 95 0 "},"Ḧ":{"ha":971,"x_min":0,"x_max":0,"o":"m 364 1090 b 297 1157 327 1090 297 1120 b 364 1224 297 1194 327 1224 b 431 1157 401 1224 431 1194 b 364 1090 431 1120 401 1090 m 607 1090 b 541 1157 570 1090 541 1120 b 607 1224 541 1194 570 1224 b 674 1157 645 1224 674 1194 b 607 1090 674 1120 645 1090 m 95 979 l 217 979 l 217 555 l 754 555 l 754 979 l 876 979 l 876 0 l 754 0 l 754 446 l 217 446 l 217 0 l 95 0 "},"Ȟ":{"ha":971,"x_min":0,"x_max":0,"o":"m 538 1057 l 433 1057 l 288 1253 l 387 1253 l 486 1116 l 584 1253 l 684 1253 m 95 979 l 217 979 l 217 555 l 754 555 l 754 979 l 876 979 l 876 0 l 754 0 l 754 446 l 217 446 l 217 0 l 95 0 "},"Ĥ":{"ha":971,"x_min":0,"x_max":0,"o":"m 433 1253 l 538 1253 l 684 1057 l 584 1057 l 486 1194 l 387 1057 l 288 1057 m 95 979 l 217 979 l 217 555 l 754 555 l 754 979 l 876 979 l 876 0 l 754 0 l 754 446 l 217 446 l 217 0 l 95 0 "},"Ḥ":{"ha":971,"x_min":0,"x_max":0,"o":"m 95 979 l 217 979 l 217 555 l 754 555 l 754 979 l 876 979 l 876 0 l 754 0 l 754 446 l 217 446 l 217 0 l 95 0 m 486 -267 b 412 -193 445 -267 412 -234 b 486 -119 412 -152 445 -119 b 559 -193 527 -119 559 -152 b 486 -267 559 -234 527 -267 "},"Ḣ":{"ha":971,"x_min":0,"x_max":0,"o":"m 485 1092 b 415 1162 447 1092 415 1124 b 485 1232 415 1201 447 1232 b 555 1162 524 1232 555 1201 b 485 1092 555 1124 524 1092 m 95 979 l 217 979 l 217 555 l 754 555 l 754 979 l 876 979 l 876 0 l 754 0 l 754 446 l 217 446 l 217 0 l 95 0 "},"Ḫ":{"ha":971,"x_min":0,"x_max":0,"o":"m 95 979 l 217 979 l 217 555 l 754 555 l 754 979 l 876 979 l 876 0 l 754 0 l 754 446 l 217 446 l 217 0 l 95 0 m 486 -285 b 292 -87 367 -285 292 -203 l 292 -80 l 379 -80 l 379 -83 b 486 -203 379 -147 418 -203 b 592 -83 553 -203 592 -147 l 592 -80 l 679 -80 l 679 -87 b 486 -285 679 -203 604 -285 "},"Ḩ":{"ha":971,"x_min":0,"x_max":0,"o":"m 95 979 l 217 979 l 217 555 l 754 555 l 754 979 l 876 979 l 876 0 l 754 0 l 754 446 l 217 446 l 217 0 l 174 -64 b 296 -184 246 -68 296 -107 l 296 -185 b 152 -309 296 -264 227 -309 b 50 -292 110 -309 71 -302 l 50 -217 b 124 -229 66 -223 95 -229 b 193 -188 160 -229 193 -218 l 193 -186 b 113 -138 193 -153 164 -138 l 81 -138 l 81 -78 l 134 0 l 95 0 "},"Ħ":{"ha":1034,"x_min":0,"x_max":0,"o":"m 127 722 l 32 722 l 32 824 l 127 824 l 127 979 l 249 979 l 249 824 l 786 824 l 786 979 l 908 979 l 908 824 l 1003 824 l 1003 722 l 908 722 l 908 0 l 786 0 l 786 446 l 249 446 l 249 0 l 127 0 m 786 555 l 786 722 l 249 722 l 249 555 "},"I":{"ha":312,"x_min":0,"x_max":0,"o":"m 95 979 l 217 979 l 217 0 l 95 0 "},"İ":{"ha":312,"x_min":0,"x_max":0,"o":"m 155 1092 b 85 1162 117 1092 85 1124 b 155 1232 85 1201 117 1232 b 226 1162 195 1232 226 1201 b 155 1092 226 1124 195 1092 m 95 979 l 217 979 l 217 0 l 95 0 "},"Ì":{"ha":312,"x_min":0,"x_max":0,"o":"m -16 1253 l 105 1253 l 216 1057 l 126 1057 m 95 979 l 217 979 l 217 0 l 95 0 "},"Ȉ":{"ha":312,"x_min":0,"x_max":0,"o":"m -135 1253 l -14 1253 l 111 1057 l 21 1057 m 88 1253 l 210 1253 l 320 1057 l 231 1057 m 95 979 l 217 979 l 217 0 l 95 0 "},"Í":{"ha":312,"x_min":0,"x_max":0,"o":"m 100 1057 l 211 1253 l 332 1253 l 190 1057 m 95 979 l 217 979 l 217 0 l 95 0 "},"Î":{"ha":312,"x_min":0,"x_max":0,"o":"m 103 1253 l 209 1253 l 354 1057 l 254 1057 l 156 1194 l 58 1057 l -42 1057 m 95 979 l 217 979 l 217 0 l 95 0 "},"Ǐ":{"ha":312,"x_min":0,"x_max":0,"o":"m 209 1057 l 103 1057 l -42 1253 l 58 1253 l 156 1116 l 254 1253 l 354 1253 m 95 979 l 217 979 l 217 0 l 95 0 "},"Ï":{"ha":312,"x_min":0,"x_max":0,"o":"m 35 1090 b -33 1157 -3 1090 -33 1120 b 35 1224 -33 1194 -3 1224 b 101 1157 72 1224 101 1194 b 35 1090 101 1120 72 1090 m 277 1090 b 211 1157 241 1090 211 1120 b 277 1224 211 1194 241 1224 b 345 1157 315 1224 345 1194 b 277 1090 345 1120 315 1090 m 95 979 l 217 979 l 217 0 l 95 0 "},"Ḯ":{"ha":312,"x_min":0,"x_max":0,"o":"m 209 1314 l 313 1314 l 180 1187 l 100 1187 m 271 1029 b 210 1090 237 1029 210 1056 l 210 1091 b 271 1151 210 1125 237 1151 l 272 1151 b 332 1091 306 1151 332 1125 l 332 1090 b 272 1029 332 1056 306 1029 l 271 1029 m 41 1029 b -20 1090 7 1029 -20 1056 l -20 1091 b 41 1151 -20 1125 7 1151 l 42 1151 b 102 1091 76 1151 102 1125 l 102 1090 b 42 1029 102 1056 76 1029 l 41 1029 m 95 979 l 217 979 l 217 0 l 95 0 "},"Ĭ":{"ha":312,"x_min":0,"x_max":0,"o":"m 157 1055 b -30 1242 42 1055 -30 1132 l -30 1248 l 55 1248 l 55 1244 b 157 1136 55 1186 93 1136 b 258 1244 220 1136 258 1186 l 258 1248 l 342 1248 l 342 1242 b 157 1055 342 1132 271 1055 m 95 979 l 217 979 l 217 0 l 95 0 "},"Ị":{"ha":312,"x_min":0,"x_max":0,"o":"m 95 979 l 217 979 l 217 0 l 95 0 m 156 -267 b 82 -193 115 -267 82 -234 b 156 -119 82 -152 115 -119 b 230 -193 197 -119 230 -152 b 156 -267 230 -234 197 -267 "},"Ȋ":{"ha":312,"x_min":0,"x_max":0,"o":"m 156 1248 b 342 1061 271 1248 342 1171 l 342 1055 l 258 1055 l 258 1059 b 156 1167 258 1117 220 1167 b 55 1059 93 1167 55 1117 l 55 1055 l -30 1055 l -30 1061 b 156 1248 -30 1171 42 1248 m 95 979 l 217 979 l 217 0 l 95 0 "},"Ī":{"ha":312,"x_min":0,"x_max":0,"o":"m -24 1200 l 336 1200 l 336 1114 l -24 1114 m 95 979 l 217 979 l 217 0 l 95 0 "},"Ḭ":{"ha":312,"x_min":0,"x_max":0,"o":"m 95 979 l 217 979 l 217 0 l 95 0 m 252 -286 b 157 -250 214 -286 182 -271 l 133 -229 b 72 -193 111 -210 92 -193 b 35 -278 46 -193 35 -220 l 35 -285 l -47 -285 l -47 -277 b 60 -104 -47 -162 -7 -104 b 152 -141 98 -104 127 -119 l 176 -162 b 240 -197 199 -182 220 -197 b 277 -113 266 -197 277 -170 l 277 -106 l 359 -106 l 359 -114 b 252 -286 359 -229 319 -286 "},"Ỉ":{"ha":312,"x_min":0,"x_max":0,"o":"m 104 1059 b 168 1140 145 1089 168 1116 b 87 1186 168 1169 132 1186 b 46 1183 67 1186 55 1184 l 46 1252 b 119 1263 62 1258 89 1263 b 256 1160 191 1263 256 1223 b 189 1057 256 1121 235 1088 l 104 1057 m 95 979 l 217 979 l 217 0 l 95 0 "},"Ĩ":{"ha":312,"x_min":0,"x_max":0,"o":"m 248 1058 b 157 1093 211 1058 181 1072 l 134 1112 b 76 1145 113 1131 94 1145 b 41 1065 51 1145 41 1120 l 41 1059 l -40 1059 l -40 1067 b 64 1234 -40 1178 -1 1234 b 151 1199 100 1234 127 1219 l 175 1179 b 235 1146 197 1161 216 1146 b 271 1226 260 1146 271 1172 l 271 1232 l 351 1232 l 351 1225 b 248 1058 351 1114 313 1058 m 95 979 l 217 979 l 217 0 l 95 0 "},"Į":{"ha":312,"x_min":0,"x_max":0,"o":"m 95 979 l 217 979 l 217 0 b 113 -159 151 -46 113 -97 l 113 -161 b 183 -237 113 -214 144 -237 b 225 -230 199 -237 214 -235 l 225 -309 b 159 -320 208 -317 177 -320 b 3 -178 75 -320 3 -272 l 3 -177 b 98 0 3 -112 39 -46 l 95 0 "},"Ɨ":{"ha":407,"x_min":0,"x_max":0,"o":"m 142 437 l 47 437 l 47 539 l 142 539 l 142 979 l 264 979 l 264 539 l 359 539 l 359 437 l 264 437 l 264 0 l 142 0 "},"J":{"ha":688,"x_min":0,"x_max":0,"o":"m 304 -16 b 29 229 135 -16 39 89 l 28 239 l 151 239 l 151 232 b 304 96 159 158 207 96 b 471 280 412 96 471 161 l 471 979 l 593 979 l 593 279 b 304 -16 593 94 486 -16 "},"Ĵ":{"ha":688,"x_min":0,"x_max":0,"o":"m 479 1253 l 585 1253 l 730 1057 l 630 1057 l 532 1194 l 433 1057 l 334 1057 m 304 -16 b 29 229 135 -16 39 89 l 28 239 l 151 239 l 151 232 b 304 96 159 158 207 96 b 471 280 412 96 471 161 l 471 979 l 593 979 l 593 279 b 304 -16 593 94 486 -16 "},"Ĳ":{"ha":1000,"x_min":0,"x_max":0,"o":"m 95 979 l 217 979 l 217 0 l 95 0 m 616 -16 b 341 229 447 -16 351 89 l 340 239 l 463 239 l 463 232 b 616 96 471 158 519 96 b 783 280 724 96 783 161 l 783 979 l 905 979 l 905 279 b 616 -16 905 94 798 -16 "},"K":{"ha":834,"x_min":0,"x_max":0,"o":"m 95 979 l 217 979 l 217 498 l 221 498 l 636 979 l 789 979 l 407 545 l 825 0 l 669 0 l 321 457 l 217 342 l 217 0 l 95 0 "},"K":{"ha":834,"x_min":0,"x_max":0,"o":"m 95 0 l 217 0 l 217 342 l 321 457 l 669 0 l 825 0 l 407 545 l 789 979 l 636 979 l 221 498 l 217 498 l 217 979 l 95 979 "},"Ḱ":{"ha":834,"x_min":0,"x_max":0,"o":"m 362 1057 l 473 1253 l 594 1253 l 452 1057 m 95 979 l 217 979 l 217 498 l 221 498 l 636 979 l 789 979 l 407 545 l 825 0 l 669 0 l 321 457 l 217 342 l 217 0 l 95 0 "},"Ǩ":{"ha":834,"x_min":0,"x_max":0,"o":"m 471 1057 l 365 1057 l 220 1253 l 319 1253 l 418 1116 l 516 1253 l 616 1253 m 95 979 l 217 979 l 217 498 l 221 498 l 636 979 l 789 979 l 407 545 l 825 0 l 669 0 l 321 457 l 217 342 l 217 0 l 95 0 "},"Ḳ":{"ha":834,"x_min":0,"x_max":0,"o":"m 95 979 l 217 979 l 217 498 l 221 498 l 636 979 l 789 979 l 407 545 l 825 0 l 669 0 l 321 457 l 217 342 l 217 0 l 95 0 m 418 -267 b 344 -193 377 -267 344 -234 b 418 -119 344 -152 377 -119 b 492 -193 459 -119 492 -152 b 418 -267 492 -234 459 -267 "},"Ḵ":{"ha":834,"x_min":0,"x_max":0,"o":"m 95 979 l 217 979 l 217 498 l 221 498 l 636 979 l 789 979 l 407 545 l 825 0 l 669 0 l 321 457 l 217 342 l 217 0 l 95 0 m 231 -142 l 605 -142 l 605 -228 l 231 -228 "},"Ķ":{"ha":834,"x_min":0,"x_max":0,"o":"m 95 979 l 217 979 l 217 498 l 221 498 l 636 979 l 789 979 l 407 545 l 825 0 l 669 0 l 321 457 l 217 342 l 217 0 l 95 0 m 359 -81 l 473 -81 l 374 -309 l 298 -309 "},"Ƙ":{"ha":854,"x_min":0,"x_max":0,"o":"m 95 979 l 217 979 l 217 498 l 221 498 l 597 912 b 756 991 648 966 694 991 b 836 976 781 991 812 987 l 836 866 b 768 878 812 875 789 878 b 677 836 731 878 707 867 l 408 545 l 846 0 l 690 0 l 323 458 l 217 342 l 217 0 l 95 0 "},"L":{"ha":728,"x_min":0,"x_max":0,"o":"m 95 979 l 217 979 l 217 110 l 689 110 l 689 0 l 95 0 "},"Ĺ":{"ha":728,"x_min":0,"x_max":0,"o":"m 100 1057 l 211 1253 l 332 1253 l 190 1057 m 95 979 l 217 979 l 217 110 l 689 110 l 689 0 l 95 0 "},"Ḽ":{"ha":728,"x_min":0,"x_max":0,"o":"m 95 979 l 217 979 l 217 110 l 689 110 l 689 0 l 95 0 m 338 -81 l 446 -81 l 598 -286 l 496 -286 l 392 -140 l 288 -286 l 186 -286 "},"Ŀ":{"ha":728,"x_min":0,"x_max":0,"o":"m 95 979 l 217 979 l 217 110 l 689 110 l 689 0 l 95 0 m 597 500 b 521 423 597 457 564 423 l 519 423 b 443 500 477 423 443 457 l 443 501 b 519 578 443 544 477 578 l 521 578 b 597 501 564 578 597 544 "},"Ḷ":{"ha":728,"x_min":0,"x_max":0,"o":"m 95 979 l 217 979 l 217 110 l 689 110 l 689 0 l 95 0 m 392 -267 b 318 -193 351 -267 318 -234 b 392 -119 318 -152 351 -119 b 466 -193 433 -119 466 -152 b 392 -267 466 -234 433 -267 "},"Ḹ":{"ha":728,"x_min":0,"x_max":0,"o":"m -24 1200 l 336 1200 l 336 1114 l -24 1114 m 95 979 l 217 979 l 217 110 l 689 110 l 689 0 l 95 0 m 392 -267 b 318 -193 351 -267 318 -234 b 392 -119 318 -152 351 -119 b 466 -193 433 -119 466 -152 b 392 -267 466 -234 433 -267 "},"Ḻ":{"ha":728,"x_min":0,"x_max":0,"o":"m 95 979 l 217 979 l 217 110 l 689 110 l 689 0 l 95 0 m 205 -142 l 579 -142 l 579 -228 l 205 -228 "},"Ļ":{"ha":728,"x_min":0,"x_max":0,"o":"m 95 979 l 217 979 l 217 110 l 689 110 l 689 0 l 95 0 m 333 -81 l 447 -81 l 348 -309 l 272 -309 "},"Ľ":{"ha":728,"x_min":0,"x_max":0,"o":"m 445 979 l 557 979 l 469 705 l 395 705 m 95 979 l 217 979 l 217 110 l 689 110 l 689 0 l 95 0 "},"Ł":{"ha":743,"x_min":0,"x_max":0,"o":"m 110 382 l 31 343 l 31 452 l 110 492 l 110 979 l 232 979 l 232 553 l 507 690 l 507 581 l 232 444 l 232 110 l 704 110 l 704 0 l 110 0 "},"Ɫ":{"ha":844,"x_min":0,"x_max":0,"o":"m 210 521 b 143 530 188 526 165 530 b -1 463 79 530 33 501 l -1 570 b 149 637 33 607 79 637 b 210 629 169 637 190 635 l 210 979 l 332 979 l 332 588 b 460 559 376 572 418 559 b 604 627 524 559 570 588 l 604 519 b 454 452 570 482 524 452 b 332 478 414 452 373 463 l 332 110 l 804 110 l 804 0 l 210 0 "},"M":{"ha":1154,"x_min":0,"x_max":0,"o":"m 95 979 l 236 979 l 575 154 l 579 154 l 918 979 l 1059 979 l 1059 0 l 945 0 l 945 756 l 941 756 l 629 0 l 526 0 l 213 756 l 209 756 l 209 0 l 95 0 "},"Ḿ":{"ha":1154,"x_min":0,"x_max":0,"o":"m 522 1057 l 632 1253 l 753 1253 l 611 1057 m 95 979 l 236 979 l 575 154 l 579 154 l 918 979 l 1059 979 l 1059 0 l 945 0 l 945 756 l 941 756 l 629 0 l 526 0 l 213 756 l 209 756 l 209 0 l 95 0 "},"Ṁ":{"ha":1154,"x_min":0,"x_max":0,"o":"m 576 1092 b 507 1162 538 1092 507 1124 b 576 1232 507 1201 538 1232 b 647 1162 616 1232 647 1201 b 576 1092 647 1124 616 1092 m 95 979 l 236 979 l 575 154 l 579 154 l 918 979 l 1059 979 l 1059 0 l 945 0 l 945 756 l 941 756 l 629 0 l 526 0 l 213 756 l 209 756 l 209 0 l 95 0 "},"Ṃ":{"ha":1154,"x_min":0,"x_max":0,"o":"m 95 979 l 236 979 l 575 154 l 579 154 l 918 979 l 1059 979 l 1059 0 l 945 0 l 945 756 l 941 756 l 629 0 l 526 0 l 213 756 l 209 756 l 209 0 l 95 0 m 577 -267 b 503 -193 536 -267 503 -234 b 577 -119 503 -152 536 -119 b 651 -193 618 -119 651 -152 b 577 -267 651 -234 618 -267 "},"N":{"ha":971,"x_min":0,"x_max":0,"o":"m 95 979 l 214 979 l 752 206 l 755 206 l 755 979 l 876 979 l 876 0 l 758 0 l 219 772 l 216 772 l 216 0 l 95 0 "},"Ǹ":{"ha":971,"x_min":0,"x_max":0,"o":"m 313 1253 l 435 1253 l 545 1057 l 456 1057 m 95 979 l 214 979 l 752 206 l 755 206 l 755 979 l 876 979 l 876 0 l 758 0 l 219 772 l 216 772 l 216 0 l 95 0 "},"Ń":{"ha":971,"x_min":0,"x_max":0,"o":"m 430 1057 l 541 1253 l 662 1253 l 519 1057 m 95 979 l 214 979 l 752 206 l 755 206 l 755 979 l 876 979 l 876 0 l 758 0 l 219 772 l 216 772 l 216 0 l 95 0 "},"Ñ":{"ha":971,"x_min":0,"x_max":0,"o":"m 577 1058 b 487 1093 541 1058 511 1072 l 463 1112 b 406 1145 442 1131 424 1145 b 370 1065 380 1145 370 1120 l 370 1059 l 290 1059 l 290 1067 b 393 1234 290 1178 328 1234 b 481 1199 429 1234 457 1219 l 505 1179 b 565 1146 526 1161 546 1146 b 600 1226 590 1146 600 1172 l 600 1232 l 681 1232 l 681 1225 b 577 1058 681 1114 642 1058 m 95 979 l 214 979 l 752 206 l 755 206 l 755 979 l 876 979 l 876 0 l 758 0 l 219 772 l 216 772 l 216 0 l 95 0 "},"Ṇ":{"ha":971,"x_min":0,"x_max":0,"o":"m 95 979 l 214 979 l 752 206 l 755 206 l 755 979 l 876 979 l 876 0 l 758 0 l 219 772 l 216 772 l 216 0 l 95 0 m 486 -267 b 412 -193 445 -267 412 -234 b 486 -119 412 -152 445 -119 b 559 -193 527 -119 559 -152 b 486 -267 559 -234 527 -267 "},"Ṅ":{"ha":971,"x_min":0,"x_max":0,"o":"m 485 1092 b 415 1162 447 1092 415 1124 b 485 1232 415 1201 447 1232 b 555 1162 524 1232 555 1201 b 485 1092 555 1124 524 1092 m 95 979 l 214 979 l 752 206 l 755 206 l 755 979 l 876 979 l 876 0 l 758 0 l 219 772 l 216 772 l 216 0 l 95 0 "},"Ň":{"ha":971,"x_min":0,"x_max":0,"o":"m 538 1057 l 433 1057 l 288 1253 l 387 1253 l 486 1116 l 584 1253 l 684 1253 m 95 979 l 214 979 l 752 206 l 755 206 l 755 979 l 876 979 l 876 0 l 758 0 l 219 772 l 216 772 l 216 0 l 95 0 "},"Ṋ":{"ha":971,"x_min":0,"x_max":0,"o":"m 95 979 l 214 979 l 752 206 l 755 206 l 755 979 l 876 979 l 876 0 l 758 0 l 219 772 l 216 772 l 216 0 l 95 0 m 432 -81 l 539 -81 l 692 -286 l 590 -286 l 486 -140 l 381 -286 l 279 -286 "},"Ṉ":{"ha":971,"x_min":0,"x_max":0,"o":"m 95 979 l 214 979 l 752 206 l 755 206 l 755 979 l 876 979 l 876 0 l 758 0 l 219 772 l 216 772 l 216 0 l 95 0 m 298 -142 l 673 -142 l 673 -228 l 298 -228 "},"Ņ":{"ha":971,"x_min":0,"x_max":0,"o":"m 95 979 l 214 979 l 752 206 l 755 206 l 755 979 l 876 979 l 876 0 l 758 0 l 219 772 l 216 772 l 216 0 l 95 0 m 427 -81 l 541 -81 l 441 -309 l 366 -309 "},"Ŋ":{"ha":971,"x_min":0,"x_max":0,"o":"m 95 0 l 95 979 l 214 979 l 752 206 l 755 206 l 755 979 l 876 979 l 876 -39 b 679 -237 876 -173 812 -237 b 607 -233 652 -237 624 -235 l 607 -137 b 661 -140 621 -138 641 -140 b 754 -39 724 -140 754 -106 l 754 6 l 219 772 l 216 772 l 216 0 "},"O":{"ha":1016,"x_min":0,"x_max":0,"o":"m 509 -16 b 57 489 231 -16 57 178 l 57 490 b 509 995 57 800 231 995 b 959 490 785 995 959 800 l 959 489 b 509 -16 959 178 786 -16 m 509 96 b 834 489 710 96 834 250 l 834 490 b 509 882 834 730 708 882 b 182 490 309 882 182 731 l 182 489 b 509 96 182 248 308 96 "},"Ö":{"ha":1016,"x_min":0,"x_max":0,"o":"m 387 1090 b 319 1157 349 1090 319 1120 b 387 1224 319 1194 349 1224 b 453 1157 424 1224 453 1194 b 387 1090 453 1120 424 1090 m 629 1090 b 563 1157 593 1090 563 1120 b 629 1224 563 1194 593 1224 b 696 1157 667 1224 696 1194 b 629 1090 696 1120 667 1090 m 509 -16 b 57 489 231 -16 57 178 l 57 490 b 509 995 57 800 231 995 b 959 490 785 995 959 800 l 959 489 b 509 -16 959 178 786 -16 m 509 96 b 834 489 710 96 834 250 l 834 490 b 509 882 834 730 708 882 b 182 490 309 882 182 731 l 182 489 b 509 96 182 248 308 96 "},"Õ":{"ha":1016,"x_min":0,"x_max":0,"o":"m 600 1058 b 509 1093 563 1058 533 1072 l 486 1112 b 428 1145 465 1131 446 1145 b 393 1065 403 1145 393 1120 l 393 1059 l 312 1059 l 312 1067 b 416 1234 312 1178 351 1234 b 503 1199 452 1234 479 1219 l 527 1179 b 587 1146 549 1161 568 1146 b 623 1226 612 1146 623 1172 l 623 1232 l 703 1232 l 703 1225 b 600 1058 703 1114 665 1058 m 509 -16 b 57 489 231 -16 57 178 l 57 490 b 509 995 57 800 231 995 b 959 490 785 995 959 800 l 959 489 b 509 -16 959 178 786 -16 m 509 96 b 834 489 710 96 834 250 l 834 490 b 509 882 834 730 708 882 b 182 490 309 882 182 731 l 182 489 b 509 96 182 248 308 96 "},"Ó":{"ha":1016,"x_min":0,"x_max":0,"o":"m 452 1057 l 563 1253 l 684 1253 l 542 1057 m 509 -16 b 57 489 231 -16 57 178 l 57 490 b 509 995 57 800 231 995 b 959 490 785 995 959 800 l 959 489 b 509 -16 959 178 786 -16 m 509 96 b 834 489 710 96 834 250 l 834 490 b 509 882 834 730 708 882 b 182 490 309 882 182 731 l 182 489 b 509 96 182 248 308 96 "},"Ô":{"ha":1016,"x_min":0,"x_max":0,"o":"m 455 1253 l 561 1253 l 706 1057 l 606 1057 l 508 1194 l 410 1057 l 310 1057 m 509 -16 b 57 489 231 -16 57 178 l 57 490 b 509 995 57 800 231 995 b 959 490 785 995 959 800 l 959 489 b 509 -16 959 178 786 -16 m 509 96 b 834 489 710 96 834 250 l 834 490 b 509 882 834 730 708 882 b 182 490 309 882 182 731 l 182 489 b 509 96 182 248 308 96 "},"Ò":{"ha":1016,"x_min":0,"x_max":0,"o":"m 336 1253 l 457 1253 l 568 1057 l 478 1057 m 509 -16 b 57 489 231 -16 57 178 l 57 490 b 509 995 57 800 231 995 b 959 490 785 995 959 800 l 959 489 b 509 -16 959 178 786 -16 m 509 96 b 834 489 710 96 834 250 l 834 490 b 509 882 834 730 708 882 b 182 490 309 882 182 731 l 182 489 b 509 96 182 248 308 96 "},"Ổ":{"ha":1016,"x_min":0,"x_max":0,"o":"m 585 1169 b 609 1219 601 1185 609 1203 b 565 1255 609 1242 591 1255 b 541 1253 556 1255 547 1254 l 541 1321 b 593 1329 555 1326 574 1329 b 690 1246 650 1329 690 1297 b 646 1166 690 1214 673 1188 l 585 1166 m 558 1163 l 690 1026 l 591 1026 l 508 1114 l 425 1026 l 326 1026 l 457 1163 m 509 -16 b 57 489 231 -16 57 178 l 57 490 b 509 995 57 800 231 995 b 959 490 785 995 959 800 l 959 489 b 509 -16 959 178 786 -16 m 509 96 b 834 489 710 96 834 250 l 834 490 b 509 882 834 730 708 882 b 182 490 309 882 182 731 l 182 489 b 509 96 182 248 308 96 "},"Ồ":{"ha":1016,"x_min":0,"x_max":0,"o":"m 609 1195 l 475 1322 l 580 1322 l 689 1195 m 558 1163 l 690 1026 l 591 1026 l 508 1114 l 425 1026 l 326 1026 l 457 1163 m 509 -16 b 57 489 231 -16 57 178 l 57 490 b 509 995 57 800 231 995 b 959 490 785 995 959 800 l 959 489 b 509 -16 959 178 786 -16 m 509 96 b 834 489 710 96 834 250 l 834 490 b 509 882 834 730 708 882 b 182 490 309 882 182 731 l 182 489 b 509 96 182 248 308 96 "},"Ọ":{"ha":1016,"x_min":0,"x_max":0,"o":"m 509 -16 b 57 489 231 -16 57 178 l 57 490 b 509 995 57 800 231 995 b 959 490 785 995 959 800 l 959 489 b 509 -16 959 178 786 -16 m 509 96 b 834 489 710 96 834 250 l 834 490 b 509 882 834 730 708 882 b 182 490 309 882 182 731 l 182 489 b 509 96 182 248 308 96 m 508 -267 b 434 -193 467 -267 434 -234 b 508 -119 434 -152 467 -119 b 582 -193 549 -119 582 -152 b 508 -267 582 -234 549 -267 "},"Ȍ":{"ha":1016,"x_min":0,"x_max":0,"o":"m 217 1253 l 338 1253 l 463 1057 l 373 1057 m 440 1253 l 562 1253 l 672 1057 l 583 1057 m 509 -16 b 57 489 231 -16 57 178 l 57 490 b 509 995 57 800 231 995 b 959 490 785 995 959 800 l 959 489 b 509 -16 959 178 786 -16 m 509 96 b 834 489 710 96 834 250 l 834 490 b 509 882 834 730 708 882 b 182 490 309 882 182 731 l 182 489 b 509 96 182 248 308 96 "},"Ṍ":{"ha":1016,"x_min":0,"x_max":0,"o":"m 561 1322 l 665 1322 l 532 1195 l 452 1195 m 591 1031 b 500 1059 555 1031 528 1041 l 485 1069 b 435 1088 465 1082 452 1088 b 401 1034 414 1088 401 1070 l 401 1031 l 326 1031 l 326 1037 b 425 1162 326 1121 366 1162 b 513 1133 458 1162 486 1151 l 529 1123 b 581 1105 550 1109 564 1105 b 615 1160 602 1105 615 1123 l 615 1162 l 690 1162 l 690 1156 b 591 1031 690 1072 648 1031 m 509 -16 b 57 489 231 -16 57 178 l 57 490 b 509 995 57 800 231 995 b 959 490 785 995 959 800 l 959 489 b 509 -16 959 178 786 -16 m 509 96 b 834 489 710 96 834 250 l 834 490 b 509 882 834 730 708 882 b 182 490 309 882 182 731 l 182 489 b 509 96 182 248 308 96 "},"Ṓ":{"ha":1016,"x_min":0,"x_max":0,"o":"m 561 1314 l 665 1314 l 532 1186 l 452 1186 m 332 1128 l 684 1128 l 684 1046 l 332 1046 m 509 -16 b 57 489 231 -16 57 178 l 57 490 b 509 995 57 800 231 995 b 959 490 785 995 959 800 l 959 489 b 509 -16 959 178 786 -16 m 509 96 b 834 489 710 96 834 250 l 834 490 b 509 882 834 730 708 882 b 182 490 309 882 182 731 l 182 489 b 509 96 182 248 308 96 "},"Ỗ":{"ha":1016,"x_min":0,"x_max":0,"o":"m 591 1192 b 500 1219 555 1192 528 1202 l 485 1230 b 435 1249 465 1243 452 1249 b 401 1194 414 1249 401 1231 l 401 1192 l 326 1192 l 326 1198 b 425 1322 326 1282 366 1322 b 513 1294 458 1322 486 1312 l 529 1284 b 581 1265 550 1270 564 1265 b 615 1320 602 1265 615 1284 l 615 1322 l 690 1322 l 690 1317 b 591 1192 690 1233 648 1192 m 558 1163 l 690 1026 l 591 1026 l 508 1114 l 425 1026 l 326 1026 l 457 1163 m 509 -16 b 57 489 231 -16 57 178 l 57 490 b 509 995 57 800 231 995 b 959 490 785 995 959 800 l 959 489 b 509 -16 959 178 786 -16 m 509 96 b 834 489 710 96 834 250 l 834 490 b 509 882 834 730 708 882 b 182 490 309 882 182 731 l 182 489 b 509 96 182 248 308 96 "},"Ȱ":{"ha":1016,"x_min":0,"x_max":0,"o":"m 332 1283 l 684 1283 l 684 1202 l 332 1202 m 507 1035 b 446 1096 473 1035 446 1062 l 446 1097 b 507 1157 446 1131 473 1157 l 509 1157 b 569 1097 543 1157 569 1131 l 569 1096 b 509 1035 569 1062 543 1035 l 507 1035 m 509 -16 b 57 489 231 -16 57 178 l 57 490 b 509 995 57 800 231 995 b 959 490 785 995 959 800 l 959 489 b 509 -16 959 178 786 -16 m 509 96 b 834 489 710 96 834 250 l 834 490 b 509 882 834 730 708 882 b 182 490 309 882 182 731 l 182 489 b 509 96 182 248 308 96 "},"Ṑ":{"ha":1016,"x_min":0,"x_max":0,"o":"m 484 1186 l 351 1314 l 455 1314 l 564 1186 m 332 1128 l 684 1128 l 684 1046 l 332 1046 m 509 -16 b 57 489 231 -16 57 178 l 57 490 b 509 995 57 800 231 995 b 959 490 785 995 959 800 l 959 489 b 509 -16 959 178 786 -16 m 509 96 b 834 489 710 96 834 250 l 834 490 b 509 882 834 730 708 882 b 182 490 309 882 182 731 l 182 489 b 509 96 182 248 308 96 "},"Ǒ":{"ha":1016,"x_min":0,"x_max":0,"o":"m 561 1057 l 455 1057 l 310 1253 l 410 1253 l 508 1116 l 606 1253 l 706 1253 m 509 -16 b 57 489 231 -16 57 178 l 57 490 b 509 995 57 800 231 995 b 959 490 785 995 959 800 l 959 489 b 509 -16 959 178 786 -16 m 509 96 b 834 489 710 96 834 250 l 834 490 b 509 882 834 730 708 882 b 182 490 309 882 182 731 l 182 489 b 509 96 182 248 308 96 "},"Ő":{"ha":1016,"x_min":0,"x_max":0,"o":"m 347 1057 l 444 1253 l 565 1253 l 436 1057 m 556 1057 l 667 1253 l 788 1253 l 646 1057 m 509 -16 b 57 489 231 -16 57 178 l 57 490 b 509 995 57 800 231 995 b 959 490 785 995 959 800 l 959 489 b 509 -16 959 178 786 -16 m 509 96 b 834 489 710 96 834 250 l 834 490 b 509 882 834 730 708 882 b 182 490 309 882 182 731 l 182 489 b 509 96 182 248 308 96 "},"Ŏ":{"ha":1016,"x_min":0,"x_max":0,"o":"m 509 1055 b 322 1242 394 1055 322 1132 l 322 1248 l 407 1248 l 407 1244 b 509 1136 407 1186 445 1136 b 610 1244 572 1136 610 1186 l 610 1248 l 694 1248 l 694 1242 b 509 1055 694 1132 623 1055 m 509 -16 b 57 489 231 -16 57 178 l 57 490 b 509 995 57 800 231 995 b 959 490 785 995 959 800 l 959 489 b 509 -16 959 178 786 -16 m 509 96 b 834 489 710 96 834 250 l 834 490 b 509 882 834 730 708 882 b 182 490 309 882 182 731 l 182 489 b 509 96 182 248 308 96 "},"Ȏ":{"ha":1016,"x_min":0,"x_max":0,"o":"m 508 1248 b 694 1061 623 1248 694 1171 l 694 1055 l 610 1055 l 610 1059 b 508 1167 610 1117 572 1167 b 407 1059 445 1167 407 1117 l 407 1055 l 322 1055 l 322 1061 b 508 1248 322 1171 394 1248 m 509 -16 b 57 489 231 -16 57 178 l 57 490 b 509 995 57 800 231 995 b 959 490 785 995 959 800 l 959 489 b 509 -16 959 178 786 -16 m 509 96 b 834 489 710 96 834 250 l 834 490 b 509 882 834 730 708 882 b 182 490 309 882 182 731 l 182 489 b 509 96 182 248 308 96 "},"Ỏ":{"ha":1016,"x_min":0,"x_max":0,"o":"m 456 1059 b 519 1140 497 1089 519 1116 b 439 1186 519 1169 484 1186 b 398 1183 419 1186 407 1184 l 398 1252 b 471 1263 414 1258 441 1263 b 608 1160 543 1263 608 1223 b 541 1057 608 1121 587 1088 l 456 1057 m 509 -16 b 57 489 231 -16 57 178 l 57 490 b 509 995 57 800 231 995 b 959 490 785 995 959 800 l 959 489 b 509 -16 959 178 786 -16 m 509 96 b 834 489 710 96 834 250 l 834 490 b 509 882 834 730 708 882 b 182 490 309 882 182 731 l 182 489 b 509 96 182 248 308 96 "},"Ȫ":{"ha":1016,"x_min":0,"x_max":0,"o":"m 332 1280 l 684 1280 l 684 1199 l 332 1199 m 623 1029 b 562 1090 589 1029 562 1056 l 562 1091 b 623 1151 562 1125 589 1151 l 624 1151 b 684 1091 658 1151 684 1125 l 684 1090 b 624 1029 684 1056 658 1029 l 623 1029 m 393 1029 b 332 1090 359 1029 332 1056 l 332 1091 b 393 1151 332 1125 359 1151 l 394 1151 b 454 1091 428 1151 454 1125 l 454 1090 b 394 1029 454 1056 428 1029 l 393 1029 m 509 -16 b 57 489 231 -16 57 178 l 57 490 b 509 995 57 800 231 995 b 959 490 785 995 959 800 l 959 489 b 509 -16 959 178 786 -16 m 509 96 b 834 489 710 96 834 250 l 834 490 b 509 882 834 730 708 882 b 182 490 309 882 182 731 l 182 489 b 509 96 182 248 308 96 "},"Ȭ":{"ha":1016,"x_min":0,"x_max":0,"o":"m 332 1289 l 684 1289 l 684 1207 l 332 1207 m 591 1031 b 500 1059 555 1031 528 1041 l 485 1069 b 435 1088 465 1082 452 1088 b 401 1034 414 1088 401 1070 l 401 1031 l 326 1031 l 326 1037 b 425 1162 326 1121 366 1162 b 513 1133 458 1162 486 1151 l 529 1123 b 581 1105 550 1109 564 1105 b 615 1160 602 1105 615 1123 l 615 1162 l 690 1162 l 690 1156 b 591 1031 690 1072 648 1031 m 509 -16 b 57 489 231 -16 57 178 l 57 490 b 509 995 57 800 231 995 b 959 490 785 995 959 800 l 959 489 b 509 -16 959 178 786 -16 m 509 96 b 834 489 710 96 834 250 l 834 490 b 509 882 834 730 708 882 b 182 490 309 882 182 731 l 182 489 b 509 96 182 248 308 96 "},"Ȯ":{"ha":1016,"x_min":0,"x_max":0,"o":"m 507 1092 b 437 1162 469 1092 437 1124 b 507 1232 437 1201 469 1232 b 578 1162 547 1232 578 1201 b 507 1092 578 1124 547 1092 m 509 -16 b 57 489 231 -16 57 178 l 57 490 b 509 995 57 800 231 995 b 959 490 785 995 959 800 l 959 489 b 509 -16 959 178 786 -16 m 509 96 b 834 489 710 96 834 250 l 834 490 b 509 882 834 730 708 882 b 182 490 309 882 182 731 l 182 489 b 509 96 182 248 308 96 "},"Ộ":{"ha":1016,"x_min":0,"x_max":0,"o":"m 455 1253 l 561 1253 l 706 1057 l 606 1057 l 508 1194 l 410 1057 l 310 1057 m 509 -16 b 57 489 231 -16 57 178 l 57 490 b 509 995 57 800 231 995 b 959 490 785 995 959 800 l 959 489 b 509 -16 959 178 786 -16 m 509 96 b 834 489 710 96 834 250 l 834 490 b 509 882 834 730 708 882 b 182 490 309 882 182 731 l 182 489 b 509 96 182 248 308 96 m 508 -267 b 434 -193 467 -267 434 -234 b 508 -119 434 -152 467 -119 b 582 -193 549 -119 582 -152 b 508 -267 582 -234 549 -267 "},"Ố":{"ha":1016,"x_min":0,"x_max":0,"o":"m 686 1322 l 790 1322 l 656 1195 l 576 1195 m 558 1163 l 690 1026 l 591 1026 l 508 1114 l 425 1026 l 326 1026 l 457 1163 m 509 -16 b 57 489 231 -16 57 178 l 57 490 b 509 995 57 800 231 995 b 959 490 785 995 959 800 l 959 489 b 509 -16 959 178 786 -16 m 509 96 b 834 489 710 96 834 250 l 834 490 b 509 882 834 730 708 882 b 182 490 309 882 182 731 l 182 489 b 509 96 182 248 308 96 "},"Ṏ":{"ha":1016,"x_min":0,"x_max":0,"o":"m 623 1192 b 562 1253 589 1192 562 1219 l 562 1255 b 623 1314 562 1289 589 1314 l 624 1314 b 684 1255 658 1314 684 1289 l 684 1253 b 624 1192 684 1219 658 1192 l 623 1192 m 393 1192 b 332 1253 359 1192 332 1219 l 332 1255 b 393 1314 332 1289 359 1314 l 394 1314 b 454 1255 428 1314 454 1289 l 454 1253 b 394 1192 454 1219 428 1192 l 393 1192 m 591 1031 b 500 1059 555 1031 528 1041 l 485 1069 b 435 1088 465 1082 452 1088 b 401 1034 414 1088 401 1070 l 401 1031 l 326 1031 l 326 1037 b 425 1162 326 1121 366 1162 b 513 1133 458 1162 486 1151 l 529 1123 b 581 1105 550 1109 564 1105 b 615 1160 602 1105 615 1123 l 615 1162 l 690 1162 l 690 1156 b 591 1031 690 1072 648 1031 m 509 -16 b 57 489 231 -16 57 178 l 57 490 b 509 995 57 800 231 995 b 959 490 785 995 959 800 l 959 489 b 509 -16 959 178 786 -16 m 509 96 b 834 489 710 96 834 250 l 834 490 b 509 882 834 730 708 882 b 182 490 309 882 182 731 l 182 489 b 509 96 182 248 308 96 "},"Ō":{"ha":1016,"x_min":0,"x_max":0,"o":"m 328 1200 l 688 1200 l 688 1114 l 328 1114 m 509 -16 b 57 489 231 -16 57 178 l 57 490 b 509 995 57 800 231 995 b 959 490 785 995 959 800 l 959 489 b 509 -16 959 178 786 -16 m 509 96 b 834 489 710 96 834 250 l 834 490 b 509 882 834 730 708 882 b 182 490 309 882 182 731 l 182 489 b 509 96 182 248 308 96 "},"Ǫ":{"ha":1016,"x_min":0,"x_max":0,"o":"m 564 -320 b 408 -178 480 -320 408 -272 l 408 -177 b 485 -16 408 -119 437 -60 b 57 489 220 -5 57 187 l 57 490 b 509 995 57 800 231 995 b 959 490 785 995 959 800 l 959 489 b 592 -10 959 211 820 26 b 518 -151 544 -51 518 -98 l 518 -153 b 589 -237 518 -211 549 -237 b 631 -230 605 -237 619 -235 l 631 -309 b 564 -320 613 -317 583 -320 m 509 96 b 834 489 710 96 834 250 l 834 490 b 509 882 834 730 708 882 b 182 490 309 882 182 731 l 182 489 b 509 96 182 248 308 96 "},"Ǭ":{"ha":1016,"x_min":0,"x_max":0,"o":"m 328 1200 l 688 1200 l 688 1114 l 328 1114 m 564 -320 b 408 -178 480 -320 408 -272 l 408 -177 b 485 -16 408 -119 437 -60 b 57 489 220 -5 57 187 l 57 490 b 509 995 57 800 231 995 b 959 490 785 995 959 800 l 959 489 b 592 -10 959 211 820 26 b 518 -151 544 -51 518 -98 l 518 -153 b 589 -237 518 -211 549 -237 b 631 -230 605 -237 619 -235 l 631 -309 b 564 -320 613 -317 583 -320 m 509 96 b 834 489 710 96 834 250 l 834 490 b 509 882 834 730 708 882 b 182 490 309 882 182 731 l 182 489 b 509 96 182 248 308 96 "},"Ơ":{"ha":1016,"x_min":0,"x_max":0,"o":"m 509 -16 b 57 489 231 -16 57 178 l 57 490 b 508 995 57 800 231 995 b 793 1171 726 1000 787 1044 l 898 1171 b 716 950 894 1045 855 979 b 959 490 869 876 959 713 l 959 489 b 509 -16 959 178 786 -16 m 509 96 b 834 489 710 96 834 250 l 834 490 b 509 882 834 730 708 882 b 182 490 309 882 182 731 l 182 489 b 509 96 182 248 308 96 "},"Ợ":{"ha":1016,"x_min":0,"x_max":0,"o":"m 509 -16 b 57 489 231 -16 57 178 l 57 490 b 508 995 57 800 231 995 b 793 1171 726 1000 787 1044 l 898 1171 b 716 950 894 1045 855 979 b 959 490 869 876 959 713 l 959 489 b 509 -16 959 178 786 -16 m 509 96 b 834 489 710 96 834 250 l 834 490 b 509 882 834 730 708 882 b 182 490 309 882 182 731 l 182 489 b 509 96 182 248 308 96 m 508 -267 b 434 -193 467 -267 434 -234 b 508 -119 434 -152 467 -119 b 582 -193 549 -119 582 -152 b 508 -267 582 -234 549 -267 "},"Ở":{"ha":1016,"x_min":0,"x_max":0,"o":"m 422 1059 b 486 1140 463 1089 486 1116 b 406 1186 486 1169 450 1186 b 364 1183 385 1186 373 1184 l 364 1252 b 437 1263 380 1258 407 1263 b 574 1160 509 1263 574 1223 b 507 1057 574 1121 553 1088 l 422 1057 m 509 -16 b 57 489 231 -16 57 178 l 57 490 b 508 995 57 800 231 995 b 793 1171 726 1000 787 1044 l 898 1171 b 716 950 894 1045 855 979 b 959 490 869 876 959 713 l 959 489 b 509 -16 959 178 786 -16 m 509 96 b 834 489 710 96 834 250 l 834 490 b 509 882 834 730 708 882 b 182 490 309 882 182 731 l 182 489 b 509 96 182 248 308 96 "},"Ỡ":{"ha":1016,"x_min":0,"x_max":0,"o":"m 557 1058 b 476 1093 524 1058 497 1072 l 454 1112 b 402 1145 435 1131 419 1145 b 370 1065 380 1145 370 1120 l 370 1059 l 296 1059 l 296 1067 b 391 1234 296 1178 332 1234 b 470 1199 423 1234 448 1219 l 492 1179 b 546 1146 511 1161 528 1146 b 578 1226 568 1146 578 1172 l 578 1232 l 652 1232 l 652 1225 b 557 1058 652 1114 617 1058 m 509 -16 b 57 489 231 -16 57 178 l 57 490 b 508 995 57 800 231 995 b 838 1171 759 995 831 1040 l 943 1171 b 726 945 938 1040 894 970 b 959 490 873 869 959 708 l 959 489 b 509 -16 959 178 786 -16 m 509 96 b 834 489 710 96 834 250 l 834 490 b 509 882 834 730 708 882 b 182 490 309 882 182 731 l 182 489 b 509 96 182 248 308 96 "},"Ờ":{"ha":1016,"x_min":0,"x_max":0,"o":"m 336 1253 l 457 1253 l 568 1057 l 478 1057 m 509 -16 b 57 489 231 -16 57 178 l 57 490 b 508 995 57 800 231 995 b 793 1171 726 1000 787 1044 l 898 1171 b 716 950 894 1045 855 979 b 959 490 869 876 959 713 l 959 489 b 509 -16 959 178 786 -16 m 509 96 b 834 489 710 96 834 250 l 834 490 b 509 882 834 730 708 882 b 182 490 309 882 182 731 l 182 489 b 509 96 182 248 308 96 "},"Ớ":{"ha":1016,"x_min":0,"x_max":0,"o":"m 418 1057 l 529 1253 l 650 1253 l 508 1057 m 509 -16 b 57 489 231 -16 57 178 l 57 490 b 508 995 57 800 231 995 b 793 1171 726 1000 787 1044 l 898 1171 b 716 950 894 1045 855 979 b 959 490 869 876 959 713 l 959 489 b 509 -16 959 178 786 -16 m 509 96 b 834 489 710 96 834 250 l 834 490 b 509 882 834 730 708 882 b 182 490 309 882 182 731 l 182 489 b 509 96 182 248 308 96 "},"Ø":{"ha":1013,"x_min":0,"x_max":0,"o":"m 507 -16 b 220 79 391 -16 294 18 l 123 -35 l 53 25 l 156 147 b 57 489 92 233 57 349 l 57 490 b 507 995 57 800 231 995 b 792 899 621 995 718 961 l 888 1013 l 959 954 l 856 831 b 955 490 920 746 955 630 l 955 489 b 507 -16 955 178 783 -16 m 174 489 b 235 241 174 390 196 306 l 717 810 b 507 884 662 858 591 884 b 174 490 303 884 174 732 l 174 489 m 507 94 b 838 489 711 94 838 249 l 838 490 b 777 738 838 589 816 673 l 295 169 b 507 94 350 121 422 94 "},"Ǿ":{"ha":1013,"x_min":0,"x_max":0,"o":"m 450 1057 l 561 1253 l 682 1253 l 540 1057 m 507 -16 b 220 79 391 -16 294 18 l 123 -35 l 53 25 l 156 147 b 57 489 92 233 57 349 l 57 490 b 507 995 57 800 231 995 b 792 899 621 995 718 961 l 888 1013 l 959 954 l 856 831 b 955 490 920 746 955 630 l 955 489 b 507 -16 955 178 783 -16 m 174 489 b 235 241 174 390 196 306 l 717 810 b 507 884 662 858 591 884 b 174 490 303 884 174 732 l 174 489 m 507 94 b 838 489 711 94 838 249 l 838 490 b 777 738 838 589 816 673 l 295 169 b 507 94 350 121 422 94 "},"Ɵ":{"ha":1016,"x_min":0,"x_max":0,"o":"m 509 -16 b 57 489 231 -16 57 178 l 57 490 b 509 995 57 800 231 995 b 959 490 785 995 959 800 l 959 489 b 509 -16 959 178 786 -16 m 509 882 b 184 550 326 882 204 755 l 831 550 b 509 882 812 755 691 882 m 509 96 b 833 448 699 96 819 233 l 183 448 b 509 96 197 231 319 96 "},"P":{"ha":802,"x_min":0,"x_max":0,"o":"m 95 979 l 444 979 b 758 666 627 979 758 852 l 758 665 b 444 349 758 479 627 349 l 217 349 l 217 0 l 95 0 m 217 870 l 217 458 l 412 458 b 633 663 552 458 633 534 l 633 665 b 412 870 633 793 552 870 "},"Ṗ":{"ha":802,"x_min":0,"x_max":0,"o":"m 342 1092 b 272 1162 304 1092 272 1124 b 342 1232 272 1201 304 1232 b 412 1162 381 1232 412 1201 b 342 1092 412 1124 381 1092 m 95 979 l 444 979 b 758 666 627 979 758 852 l 758 665 b 444 349 758 479 627 349 l 217 349 l 217 0 l 95 0 m 217 870 l 217 458 l 412 458 b 633 663 552 458 633 534 l 633 665 b 412 870 633 793 552 870 "},"Ṕ":{"ha":802,"x_min":0,"x_max":0,"o":"m 287 1057 l 397 1253 l 519 1253 l 376 1057 m 95 979 l 444 979 b 758 666 627 979 758 852 l 758 665 b 444 349 758 479 627 349 l 217 349 l 217 0 l 95 0 m 217 870 l 217 458 l 412 458 b 633 663 552 458 633 534 l 633 665 b 412 870 633 793 552 870 "},"Q":{"ha":1016,"x_min":0,"x_max":0,"o":"m 509 -16 b 57 489 231 -16 57 178 l 57 490 b 509 995 57 800 231 995 b 959 490 785 995 959 800 l 959 489 b 781 68 959 299 895 153 l 911 -111 l 774 -111 l 684 14 b 509 -16 631 -6 572 -16 m 509 96 b 612 112 546 96 581 102 l 490 280 l 627 280 l 710 165 b 833 489 789 233 833 346 l 833 490 b 509 882 833 730 708 882 b 182 490 309 882 182 731 l 182 489 b 509 96 182 248 308 96 "},"R":{"ha":832,"x_min":0,"x_max":0,"o":"m 95 979 l 462 979 b 774 687 650 979 774 863 l 774 686 b 577 406 774 550 699 445 l 804 0 l 661 0 l 451 387 l 217 387 l 217 0 l 95 0 m 451 495 b 648 683 576 495 648 563 l 648 684 b 446 870 648 801 571 870 l 217 870 l 217 495 "},"Ř":{"ha":832,"x_min":0,"x_max":0,"o":"m 458 1057 l 353 1057 l 208 1253 l 307 1253 l 406 1116 l 504 1253 l 604 1253 m 95 979 l 462 979 b 774 687 650 979 774 863 l 774 686 b 577 406 774 550 699 445 l 804 0 l 661 0 l 451 387 l 217 387 l 217 0 l 95 0 m 451 495 b 648 683 576 495 648 563 l 648 684 b 446 870 648 801 571 870 l 217 870 l 217 495 "},"Ṟ":{"ha":832,"x_min":0,"x_max":0,"o":"m 95 979 l 462 979 b 774 687 650 979 774 863 l 774 686 b 577 406 774 550 699 445 l 804 0 l 661 0 l 451 387 l 217 387 l 217 0 l 95 0 m 451 495 b 648 683 576 495 648 563 l 648 684 b 446 870 648 801 571 870 l 217 870 l 217 495 m 237 -142 l 612 -142 l 612 -228 l 237 -228 "},"Ṝ":{"ha":832,"x_min":0,"x_max":0,"o":"m 225 1200 l 585 1200 l 585 1114 l 225 1114 m 95 979 l 462 979 b 774 687 650 979 774 863 l 774 686 b 577 406 774 550 699 445 l 804 0 l 661 0 l 451 387 l 217 387 l 217 0 l 95 0 m 451 495 b 648 683 576 495 648 563 l 648 684 b 446 870 648 801 571 870 l 217 870 l 217 495 m 425 -267 b 351 -193 384 -267 351 -234 b 425 -119 351 -152 384 -119 b 498 -193 466 -119 498 -152 b 425 -267 498 -234 466 -267 "},"Ȑ":{"ha":832,"x_min":0,"x_max":0,"o":"m 115 1253 l 236 1253 l 360 1057 l 271 1057 m 338 1253 l 459 1253 l 570 1057 l 480 1057 m 95 979 l 462 979 b 774 687 650 979 774 863 l 774 686 b 577 406 774 550 699 445 l 804 0 l 661 0 l 451 387 l 217 387 l 217 0 l 95 0 m 451 495 b 648 683 576 495 648 563 l 648 684 b 446 870 648 801 571 870 l 217 870 l 217 495 "},"Ȓ":{"ha":832,"x_min":0,"x_max":0,"o":"m 406 1248 b 592 1061 520 1248 592 1171 l 592 1055 l 507 1055 l 507 1059 b 406 1167 507 1117 469 1167 b 304 1059 342 1167 304 1117 l 304 1055 l 220 1055 l 220 1061 b 406 1248 220 1171 292 1248 m 95 979 l 462 979 b 774 687 650 979 774 863 l 774 686 b 577 406 774 550 699 445 l 804 0 l 661 0 l 451 387 l 217 387 l 217 0 l 95 0 m 451 495 b 648 683 576 495 648 563 l 648 684 b 446 870 648 801 571 870 l 217 870 l 217 495 "},"Ŕ":{"ha":832,"x_min":0,"x_max":0,"o":"m 350 1057 l 460 1253 l 582 1253 l 439 1057 m 95 979 l 462 979 b 774 687 650 979 774 863 l 774 686 b 577 406 774 550 699 445 l 804 0 l 661 0 l 451 387 l 217 387 l 217 0 l 95 0 m 451 495 b 648 683 576 495 648 563 l 648 684 b 446 870 648 801 571 870 l 217 870 l 217 495 "},"Ṛ":{"ha":832,"x_min":0,"x_max":0,"o":"m 95 979 l 462 979 b 774 687 650 979 774 863 l 774 686 b 577 406 774 550 699 445 l 804 0 l 661 0 l 451 387 l 217 387 l 217 0 l 95 0 m 451 495 b 648 683 576 495 648 563 l 648 684 b 446 870 648 801 571 870 l 217 870 l 217 495 m 425 -267 b 351 -193 384 -267 351 -234 b 425 -119 351 -152 384 -119 b 498 -193 466 -119 498 -152 b 425 -267 498 -234 466 -267 "},"Ṙ":{"ha":832,"x_min":0,"x_max":0,"o":"m 405 1092 b 335 1162 367 1092 335 1124 b 405 1232 335 1201 367 1232 b 475 1162 444 1232 475 1201 b 405 1092 475 1124 444 1092 m 95 979 l 462 979 b 774 687 650 979 774 863 l 774 686 b 577 406 774 550 699 445 l 804 0 l 661 0 l 451 387 l 217 387 l 217 0 l 95 0 m 451 495 b 648 683 576 495 648 563 l 648 684 b 446 870 648 801 571 870 l 217 870 l 217 495 "},"Ŗ":{"ha":832,"x_min":0,"x_max":0,"o":"m 95 979 l 462 979 b 774 687 650 979 774 863 l 774 686 b 577 406 774 550 699 445 l 804 0 l 661 0 l 451 387 l 217 387 l 217 0 l 95 0 m 451 495 b 648 683 576 495 648 563 l 648 684 b 446 870 648 801 571 870 l 217 870 l 217 495 m 366 -81 l 479 -81 l 380 -309 l 304 -309 "},"S":{"ha":824,"x_min":0,"x_max":0,"o":"m 415 -16 b 48 255 203 -16 60 87 l 47 264 l 170 264 l 171 255 b 422 96 185 157 280 96 b 652 261 563 96 652 160 l 652 262 b 461 426 652 348 595 396 l 353 450 b 72 721 161 492 72 578 l 72 722 b 416 995 73 882 215 995 b 758 724 608 995 747 884 l 759 714 l 637 714 l 635 724 b 413 882 621 823 537 882 b 197 725 282 882 197 819 l 197 724 b 383 566 197 644 256 594 l 492 543 b 777 268 692 498 777 417 l 777 267 b 415 -16 777 94 639 -16 "},"Š":{"ha":824,"x_min":0,"x_max":0,"o":"m 471 1057 l 365 1057 l 220 1253 l 319 1253 l 418 1116 l 516 1253 l 616 1253 m 415 -16 b 48 255 203 -16 60 87 l 47 264 l 170 264 l 171 255 b 422 96 185 157 280 96 b 652 261 563 96 652 160 l 652 262 b 461 426 652 348 595 396 l 353 450 b 72 721 161 492 72 578 l 72 722 b 416 995 73 882 215 995 b 758 724 608 995 747 884 l 759 714 l 637 714 l 635 724 b 413 882 621 823 537 882 b 197 725 282 882 197 819 l 197 724 b 383 566 197 644 256 594 l 492 543 b 777 268 692 498 777 417 l 777 267 b 415 -16 777 94 639 -16 "},"Ş":{"ha":824,"x_min":0,"x_max":0,"o":"m 411 -309 b 309 -292 369 -309 330 -302 l 309 -217 b 383 -229 325 -223 354 -229 b 452 -188 419 -229 452 -218 l 452 -186 b 372 -138 452 -153 423 -138 l 340 -138 l 340 -78 l 382 -16 b 48 255 189 -5 60 96 l 47 264 l 170 264 l 171 255 b 422 96 185 157 280 96 b 652 261 563 96 652 160 l 652 262 b 461 426 652 348 595 396 l 353 450 b 72 721 161 492 72 578 l 72 722 b 416 995 73 882 215 995 b 758 724 608 995 747 884 l 759 714 l 637 714 l 635 724 b 413 882 621 823 537 882 b 197 725 282 882 197 819 l 197 724 b 383 566 197 644 256 594 l 492 543 b 777 268 692 498 777 417 l 777 267 b 467 -14 777 107 660 1 l 433 -64 b 555 -184 505 -68 555 -107 l 555 -185 b 411 -309 555 -264 486 -309 "},"Ṡ":{"ha":824,"x_min":0,"x_max":0,"o":"m 417 1092 b 347 1162 379 1092 347 1124 b 417 1232 347 1201 379 1232 b 488 1162 456 1232 488 1201 b 417 1092 488 1124 456 1092 m 415 -16 b 48 255 203 -16 60 87 l 47 264 l 170 264 l 171 255 b 422 96 185 157 280 96 b 652 261 563 96 652 160 l 652 262 b 461 426 652 348 595 396 l 353 450 b 72 721 161 492 72 578 l 72 722 b 416 995 73 882 215 995 b 758 724 608 995 747 884 l 759 714 l 637 714 l 635 724 b 413 882 621 823 537 882 b 197 725 282 882 197 819 l 197 724 b 383 566 197 644 256 594 l 492 543 b 777 268 692 498 777 417 l 777 267 b 415 -16 777 94 639 -16 "},"Ṣ":{"ha":824,"x_min":0,"x_max":0,"o":"m 415 -16 b 48 255 203 -16 60 87 l 47 264 l 170 264 l 171 255 b 422 96 185 157 280 96 b 652 261 563 96 652 160 l 652 262 b 461 426 652 348 595 396 l 353 450 b 72 721 161 492 72 578 l 72 722 b 416 995 73 882 215 995 b 758 724 608 995 747 884 l 759 714 l 637 714 l 635 724 b 413 882 621 823 537 882 b 197 725 282 882 197 819 l 197 724 b 383 566 197 644 256 594 l 492 543 b 777 268 692 498 777 417 l 777 267 b 415 -16 777 94 639 -16 m 418 -267 b 344 -193 377 -267 344 -234 b 418 -119 344 -152 377 -119 b 492 -193 459 -119 492 -152 b 418 -267 492 -234 459 -267 "},"Ș":{"ha":824,"x_min":0,"x_max":0,"o":"m 415 -16 b 48 255 203 -16 60 87 l 47 264 l 170 264 l 171 255 b 422 96 185 157 280 96 b 652 261 563 96 652 160 l 652 262 b 461 426 652 348 595 396 l 353 450 b 72 721 161 492 72 578 l 72 722 b 416 995 73 882 215 995 b 758 724 608 995 747 884 l 759 714 l 637 714 l 635 724 b 413 882 621 823 537 882 b 197 725 282 882 197 819 l 197 724 b 383 566 197 644 256 594 l 492 543 b 777 268 692 498 777 417 l 777 267 b 415 -16 777 94 639 -16 m 359 -81 l 473 -81 l 374 -309 l 298 -309 "},"Ṩ":{"ha":824,"x_min":0,"x_max":0,"o":"m 417 1092 b 347 1162 379 1092 347 1124 b 417 1232 347 1201 379 1232 b 488 1162 456 1232 488 1201 b 417 1092 488 1124 456 1092 m 415 -16 b 48 255 203 -16 60 87 l 47 264 l 170 264 l 171 255 b 422 96 185 157 280 96 b 652 261 563 96 652 160 l 652 262 b 461 426 652 348 595 396 l 353 450 b 72 721 161 492 72 578 l 72 722 b 416 995 73 882 215 995 b 758 724 608 995 747 884 l 759 714 l 637 714 l 635 724 b 413 882 621 823 537 882 b 197 725 282 882 197 819 l 197 724 b 383 566 197 644 256 594 l 492 543 b 777 268 692 498 777 417 l 777 267 b 415 -16 777 94 639 -16 m 418 -267 b 344 -193 377 -267 344 -234 b 418 -119 344 -152 377 -119 b 492 -193 459 -119 492 -152 b 418 -267 492 -234 459 -267 "},"Ṧ":{"ha":824,"x_min":0,"x_max":0,"o":"m 417 1185 b 356 1246 383 1185 356 1212 l 356 1247 b 417 1307 356 1281 383 1307 l 418 1307 b 479 1247 452 1307 479 1281 l 479 1246 b 418 1185 479 1212 452 1185 l 417 1185 m 368 1033 l 236 1170 l 335 1170 l 418 1082 l 500 1170 l 600 1170 l 469 1033 m 415 -16 b 48 255 203 -16 60 87 l 47 264 l 170 264 l 171 255 b 422 96 185 157 280 96 b 652 261 563 96 652 160 l 652 262 b 461 426 652 348 595 396 l 353 450 b 72 721 161 492 72 578 l 72 722 b 416 995 73 882 215 995 b 758 724 608 995 747 884 l 759 714 l 637 714 l 635 724 b 413 882 621 823 537 882 b 197 725 282 882 197 819 l 197 724 b 383 566 197 644 256 594 l 492 543 b 777 268 692 498 777 417 l 777 267 b 415 -16 777 94 639 -16 "},"Ŝ":{"ha":824,"x_min":0,"x_max":0,"o":"m 365 1253 l 471 1253 l 616 1057 l 516 1057 l 418 1194 l 319 1057 l 220 1057 m 415 -16 b 48 255 203 -16 60 87 l 47 264 l 170 264 l 171 255 b 422 96 185 157 280 96 b 652 261 563 96 652 160 l 652 262 b 461 426 652 348 595 396 l 353 450 b 72 721 161 492 72 578 l 72 722 b 416 995 73 882 215 995 b 758 724 608 995 747 884 l 759 714 l 637 714 l 635 724 b 413 882 621 823 537 882 b 197 725 282 882 197 819 l 197 724 b 383 566 197 644 256 594 l 492 543 b 777 268 692 498 777 417 l 777 267 b 415 -16 777 94 639 -16 "},"Ṥ":{"ha":824,"x_min":0,"x_max":0,"o":"m 468 1185 b 407 1246 434 1185 407 1212 l 407 1247 b 468 1307 407 1281 434 1307 l 469 1307 b 530 1247 503 1307 530 1281 l 530 1246 b 469 1185 530 1212 503 1185 l 468 1185 m 471 1162 l 575 1162 l 441 1034 l 361 1034 m 415 -16 b 48 255 203 -16 60 87 l 47 264 l 170 264 l 171 255 b 422 96 185 157 280 96 b 652 261 563 96 652 160 l 652 262 b 461 426 652 348 595 396 l 353 450 b 72 721 161 492 72 578 l 72 722 b 416 995 73 882 215 995 b 758 724 608 995 747 884 l 759 714 l 637 714 l 635 724 b 413 882 621 823 537 882 b 197 725 282 882 197 819 l 197 724 b 383 566 197 644 256 594 l 492 543 b 777 268 692 498 777 417 l 777 267 b 415 -16 777 94 639 -16 "},"Ś":{"ha":824,"x_min":0,"x_max":0,"o":"m 362 1057 l 473 1253 l 594 1253 l 452 1057 m 415 -16 b 48 255 203 -16 60 87 l 47 264 l 170 264 l 171 255 b 422 96 185 157 280 96 b 652 261 563 96 652 160 l 652 262 b 461 426 652 348 595 396 l 353 450 b 72 721 161 492 72 578 l 72 722 b 416 995 73 882 215 995 b 758 724 608 995 747 884 l 759 714 l 637 714 l 635 724 b 413 882 621 823 537 882 b 197 725 282 882 197 819 l 197 724 b 383 566 197 644 256 594 l 492 543 b 777 268 692 498 777 417 l 777 267 b 415 -16 777 94 639 -16 "},"ẞ":{"ha":961,"x_min":0,"x_max":0,"o":"m 614 -16 b 393 28 541 -16 463 -1 l 393 150 b 610 96 468 113 537 96 b 789 264 720 96 789 161 l 789 265 b 564 452 789 365 718 424 l 481 467 l 481 564 l 721 831 b 491 882 642 865 566 882 b 218 621 315 882 218 790 l 218 0 l 96 0 l 96 633 b 494 995 96 861 244 995 b 854 899 602 995 730 960 l 854 808 l 614 546 l 630 543 b 914 267 825 501 914 414 l 914 266 b 614 -16 914 92 799 -16 "},"T":{"ha":807,"x_min":0,"x_max":0,"o":"m 342 869 l 34 869 l 34 979 l 773 979 l 773 869 l 465 869 l 465 0 l 342 0 "},"Ṱ":{"ha":807,"x_min":0,"x_max":0,"o":"m 342 869 l 34 869 l 34 979 l 773 979 l 773 869 l 465 869 l 465 0 l 342 0 m 350 -81 l 457 -81 l 610 -286 l 508 -286 l 404 -140 l 299 -286 l 197 -286 "},"Ṭ":{"ha":807,"x_min":0,"x_max":0,"o":"m 342 869 l 34 869 l 34 979 l 773 979 l 773 869 l 465 869 l 465 0 l 342 0 m 404 -267 b 330 -193 363 -267 330 -234 b 404 -119 330 -152 363 -119 b 477 -193 445 -119 477 -152 b 404 -267 477 -234 445 -267 "},"Ț":{"ha":807,"x_min":0,"x_max":0,"o":"m 342 869 l 34 869 l 34 979 l 773 979 l 773 869 l 465 869 l 465 0 l 342 0 m 345 -81 l 458 -81 l 359 -309 l 283 -309 "},"Ṫ":{"ha":807,"x_min":0,"x_max":0,"o":"m 403 1092 b 333 1162 365 1092 333 1124 b 403 1232 333 1201 365 1232 b 473 1162 442 1232 473 1201 b 403 1092 473 1124 442 1092 m 342 869 l 34 869 l 34 979 l 773 979 l 773 869 l 465 869 l 465 0 l 342 0 "},"Ţ":{"ha":807,"x_min":0,"x_max":0,"o":"m 342 869 l 34 869 l 34 979 l 773 979 l 773 869 l 465 869 l 465 0 l 422 -64 b 543 -184 494 -68 543 -107 l 543 -185 b 399 -309 543 -264 475 -309 b 298 -292 357 -309 318 -302 l 298 -217 b 372 -229 313 -223 342 -229 b 440 -188 408 -229 440 -218 l 440 -186 b 360 -138 440 -153 412 -138 l 329 -138 l 329 -78 l 381 0 l 342 0 "},"Ṯ":{"ha":807,"x_min":0,"x_max":0,"o":"m 342 869 l 34 869 l 34 979 l 773 979 l 773 869 l 465 869 l 465 0 l 342 0 m 216 -142 l 591 -142 l 591 -228 l 216 -228 "},"Ť":{"ha":807,"x_min":0,"x_max":0,"o":"m 456 1057 l 351 1057 l 205 1253 l 305 1253 l 404 1116 l 502 1253 l 602 1253 m 342 869 l 34 869 l 34 979 l 773 979 l 773 869 l 465 869 l 465 0 l 342 0 "},"Ŧ":{"ha":807,"x_min":0,"x_max":0,"o":"m 342 437 l 126 437 l 126 539 l 342 539 l 342 869 l 34 869 l 34 979 l 773 979 l 773 869 l 465 869 l 465 539 l 681 539 l 681 437 l 465 437 l 465 0 l 342 0 "},"U":{"ha":967,"x_min":0,"x_max":0,"o":"m 484 -16 b 95 343 241 -16 95 130 l 95 979 l 217 979 l 217 351 b 484 96 217 201 315 96 b 750 351 654 96 750 201 l 750 979 l 872 979 l 872 343 b 484 -16 872 130 727 -16 "},"Ù":{"ha":967,"x_min":0,"x_max":0,"o":"m 311 1253 l 433 1253 l 543 1057 l 454 1057 m 484 -16 b 95 343 241 -16 95 130 l 95 979 l 217 979 l 217 351 b 484 96 217 201 315 96 b 750 351 654 96 750 201 l 750 979 l 872 979 l 872 343 b 484 -16 872 130 727 -16 "},"Ȕ":{"ha":967,"x_min":0,"x_max":0,"o":"m 193 1253 l 314 1253 l 438 1057 l 349 1057 m 416 1253 l 537 1253 l 648 1057 l 558 1057 m 484 -16 b 95 343 241 -16 95 130 l 95 979 l 217 979 l 217 351 b 484 96 217 201 315 96 b 750 351 654 96 750 201 l 750 979 l 872 979 l 872 343 b 484 -16 872 130 727 -16 "},"Ú":{"ha":967,"x_min":0,"x_max":0,"o":"m 428 1057 l 538 1253 l 660 1253 l 517 1057 m 484 -16 b 95 343 241 -16 95 130 l 95 979 l 217 979 l 217 351 b 484 96 217 201 315 96 b 750 351 654 96 750 201 l 750 979 l 872 979 l 872 343 b 484 -16 872 130 727 -16 "},"Ű":{"ha":967,"x_min":0,"x_max":0,"o":"m 322 1057 l 419 1253 l 541 1253 l 412 1057 m 532 1057 l 642 1253 l 764 1253 l 621 1057 m 484 -16 b 95 343 241 -16 95 130 l 95 979 l 217 979 l 217 351 b 484 96 217 201 315 96 b 750 351 654 96 750 201 l 750 979 l 872 979 l 872 343 b 484 -16 872 130 727 -16 "},"Û":{"ha":967,"x_min":0,"x_max":0,"o":"m 431 1253 l 536 1253 l 682 1057 l 582 1057 l 484 1194 l 385 1057 l 286 1057 m 484 -16 b 95 343 241 -16 95 130 l 95 979 l 217 979 l 217 351 b 484 96 217 201 315 96 b 750 351 654 96 750 201 l 750 979 l 872 979 l 872 343 b 484 -16 872 130 727 -16 "},"Ǔ":{"ha":967,"x_min":0,"x_max":0,"o":"m 536 1057 l 431 1057 l 286 1253 l 385 1253 l 484 1116 l 582 1253 l 682 1253 m 484 -16 b 95 343 241 -16 95 130 l 95 979 l 217 979 l 217 351 b 484 96 217 201 315 96 b 750 351 654 96 750 201 l 750 979 l 872 979 l 872 343 b 484 -16 872 130 727 -16 "},"Ṷ":{"ha":967,"x_min":0,"x_max":0,"o":"m 484 -16 b 95 343 241 -16 95 130 l 95 979 l 217 979 l 217 351 b 484 96 217 201 315 96 b 750 351 654 96 750 201 l 750 979 l 872 979 l 872 343 b 484 -16 872 130 727 -16 m 430 -81 l 537 -81 l 690 -286 l 588 -286 l 484 -140 l 379 -286 l 277 -286 "},"Ü":{"ha":967,"x_min":0,"x_max":0,"o":"m 362 1090 b 295 1157 325 1090 295 1120 b 362 1224 295 1194 325 1224 b 429 1157 399 1224 429 1194 b 362 1090 429 1120 399 1090 m 605 1090 b 538 1157 568 1090 538 1120 b 605 1224 538 1194 568 1224 b 672 1157 643 1224 672 1194 b 605 1090 672 1120 643 1090 m 484 -16 b 95 343 241 -16 95 130 l 95 979 l 217 979 l 217 351 b 484 96 217 201 315 96 b 750 351 654 96 750 201 l 750 979 l 872 979 l 872 343 b 484 -16 872 130 727 -16 "},"Ǜ":{"ha":967,"x_min":0,"x_max":0,"o":"m 460 1187 l 326 1314 l 431 1314 l 540 1187 m 598 1029 b 537 1090 564 1029 537 1056 l 537 1091 b 598 1151 537 1125 564 1151 l 600 1151 b 660 1091 633 1151 660 1125 l 660 1090 b 600 1029 660 1056 633 1029 l 598 1029 m 368 1029 b 307 1090 334 1029 307 1056 l 307 1091 b 368 1151 307 1125 334 1151 l 370 1151 b 430 1091 404 1151 430 1125 l 430 1090 b 370 1029 430 1056 404 1029 l 368 1029 m 484 -16 b 95 343 241 -16 95 130 l 95 979 l 217 979 l 217 351 b 484 96 217 201 315 96 b 750 351 654 96 750 201 l 750 979 l 872 979 l 872 343 b 484 -16 872 130 727 -16 "},"Ǘ":{"ha":967,"x_min":0,"x_max":0,"o":"m 536 1314 l 641 1314 l 507 1187 l 427 1187 m 598 1029 b 537 1090 564 1029 537 1056 l 537 1091 b 598 1151 537 1125 564 1151 l 600 1151 b 660 1091 633 1151 660 1125 l 660 1090 b 600 1029 660 1056 633 1029 l 598 1029 m 368 1029 b 307 1090 334 1029 307 1056 l 307 1091 b 368 1151 307 1125 334 1151 l 370 1151 b 430 1091 404 1151 430 1125 l 430 1090 b 370 1029 430 1056 404 1029 l 368 1029 m 484 -16 b 95 343 241 -16 95 130 l 95 979 l 217 979 l 217 351 b 484 96 217 201 315 96 b 750 351 654 96 750 201 l 750 979 l 872 979 l 872 343 b 484 -16 872 130 727 -16 "},"Ǖ":{"ha":967,"x_min":0,"x_max":0,"o":"m 307 1280 l 660 1280 l 660 1199 l 307 1199 m 598 1029 b 537 1090 564 1029 537 1056 l 537 1091 b 598 1151 537 1125 564 1151 l 600 1151 b 660 1091 633 1151 660 1125 l 660 1090 b 600 1029 660 1056 633 1029 l 598 1029 m 368 1029 b 307 1090 334 1029 307 1056 l 307 1091 b 368 1151 307 1125 334 1151 l 370 1151 b 430 1091 404 1151 430 1125 l 430 1090 b 370 1029 430 1056 404 1029 l 368 1029 m 484 -16 b 95 343 241 -16 95 130 l 95 979 l 217 979 l 217 351 b 484 96 217 201 315 96 b 750 351 654 96 750 201 l 750 979 l 872 979 l 872 343 b 484 -16 872 130 727 -16 "},"Ǚ":{"ha":967,"x_min":0,"x_max":0,"o":"m 433 1181 l 302 1318 l 401 1318 l 484 1230 l 566 1318 l 665 1318 l 534 1181 m 598 1029 b 537 1090 564 1029 537 1056 l 537 1091 b 598 1151 537 1125 564 1151 l 600 1151 b 660 1091 633 1151 660 1125 l 660 1090 b 600 1029 660 1056 633 1029 l 598 1029 m 368 1029 b 307 1090 334 1029 307 1056 l 307 1091 b 368 1151 307 1125 334 1151 l 370 1151 b 430 1091 404 1151 430 1125 l 430 1090 b 370 1029 430 1056 404 1029 l 368 1029 m 484 -16 b 95 343 241 -16 95 130 l 95 979 l 217 979 l 217 351 b 484 96 217 201 315 96 b 750 351 654 96 750 201 l 750 979 l 872 979 l 872 343 b 484 -16 872 130 727 -16 "},"Ṳ":{"ha":967,"x_min":0,"x_max":0,"o":"m 484 -16 b 95 343 241 -16 95 130 l 95 979 l 217 979 l 217 351 b 484 96 217 201 315 96 b 750 351 654 96 750 201 l 750 979 l 872 979 l 872 343 b 484 -16 872 130 727 -16 m 361 -95 b 429 -163 399 -95 429 -125 b 361 -231 429 -201 399 -231 b 293 -163 323 -231 293 -201 b 361 -95 293 -125 323 -95 m 606 -95 b 674 -163 644 -95 674 -125 b 606 -231 674 -201 644 -231 b 538 -163 568 -231 538 -201 b 606 -95 538 -125 568 -95 "},"Ṵ":{"ha":967,"x_min":0,"x_max":0,"o":"m 484 -16 b 95 343 241 -16 95 130 l 95 979 l 217 979 l 217 351 b 484 96 217 201 315 96 b 750 351 654 96 750 201 l 750 979 l 872 979 l 872 343 b 484 -16 872 130 727 -16 m 580 -286 b 485 -250 541 -286 510 -271 l 460 -229 b 399 -193 438 -210 419 -193 b 363 -278 374 -193 363 -220 l 363 -285 l 280 -285 l 280 -277 b 387 -104 280 -162 320 -104 b 479 -141 425 -104 454 -119 l 504 -162 b 568 -197 527 -182 547 -197 b 604 -113 593 -197 604 -170 l 604 -106 l 687 -106 l 687 -114 b 580 -286 687 -229 647 -286 "},"Ủ":{"ha":967,"x_min":0,"x_max":0,"o":"m 432 1059 b 495 1140 473 1089 495 1116 b 415 1186 495 1169 460 1186 b 374 1183 395 1186 382 1184 l 374 1252 b 447 1263 389 1258 416 1263 b 583 1160 518 1263 583 1223 b 516 1057 583 1121 562 1088 l 432 1057 m 484 -16 b 95 343 241 -16 95 130 l 95 979 l 217 979 l 217 351 b 484 96 217 201 315 96 b 750 351 654 96 750 201 l 750 979 l 872 979 l 872 343 b 484 -16 872 130 727 -16 "},"Ŭ":{"ha":967,"x_min":0,"x_max":0,"o":"m 484 1055 b 298 1242 370 1055 298 1132 l 298 1248 l 382 1248 l 382 1244 b 484 1136 382 1186 420 1136 b 585 1244 547 1136 585 1186 l 585 1248 l 670 1248 l 670 1242 b 484 1055 670 1132 598 1055 m 484 -16 b 95 343 241 -16 95 130 l 95 979 l 217 979 l 217 351 b 484 96 217 201 315 96 b 750 351 654 96 750 201 l 750 979 l 872 979 l 872 343 b 484 -16 872 130 727 -16 "},"Ȗ":{"ha":967,"x_min":0,"x_max":0,"o":"m 484 1248 b 670 1061 598 1248 670 1171 l 670 1055 l 585 1055 l 585 1059 b 484 1167 585 1117 547 1167 b 382 1059 420 1167 382 1117 l 382 1055 l 298 1055 l 298 1061 b 484 1248 298 1171 370 1248 m 484 -16 b 95 343 241 -16 95 130 l 95 979 l 217 979 l 217 351 b 484 96 217 201 315 96 b 750 351 654 96 750 201 l 750 979 l 872 979 l 872 343 b 484 -16 872 130 727 -16 "},"Ṹ":{"ha":967,"x_min":0,"x_max":0,"o":"m 536 1322 l 641 1322 l 507 1195 l 427 1195 m 566 1031 b 476 1059 531 1031 504 1041 l 460 1069 b 411 1088 440 1082 427 1088 b 376 1034 389 1088 376 1070 l 376 1031 l 302 1031 l 302 1037 b 401 1162 302 1121 342 1162 b 489 1133 434 1162 462 1151 l 505 1123 b 556 1105 526 1109 539 1105 b 591 1160 578 1105 591 1123 l 591 1162 l 665 1162 l 665 1156 b 566 1031 665 1072 624 1031 m 484 -16 b 95 343 241 -16 95 130 l 95 979 l 217 979 l 217 351 b 484 96 217 201 315 96 b 750 351 654 96 750 201 l 750 979 l 872 979 l 872 343 b 484 -16 872 130 727 -16 "},"Ụ":{"ha":967,"x_min":0,"x_max":0,"o":"m 484 -16 b 95 343 241 -16 95 130 l 95 979 l 217 979 l 217 351 b 484 96 217 201 315 96 b 750 351 654 96 750 201 l 750 979 l 872 979 l 872 343 b 484 -16 872 130 727 -16 m 484 -267 b 410 -193 443 -267 410 -234 b 484 -119 410 -152 443 -119 b 557 -193 525 -119 557 -152 b 484 -267 557 -234 525 -267 "},"Ũ":{"ha":967,"x_min":0,"x_max":0,"o":"m 575 1058 b 485 1093 538 1058 509 1072 l 461 1112 b 404 1145 440 1131 422 1145 b 368 1065 378 1145 368 1120 l 368 1059 l 288 1059 l 288 1067 b 391 1234 288 1178 326 1234 b 479 1199 427 1234 455 1219 l 503 1179 b 563 1146 524 1161 544 1146 b 598 1226 588 1146 598 1172 l 598 1232 l 679 1232 l 679 1225 b 575 1058 679 1114 640 1058 m 484 -16 b 95 343 241 -16 95 130 l 95 979 l 217 979 l 217 351 b 484 96 217 201 315 96 b 750 351 654 96 750 201 l 750 979 l 872 979 l 872 343 b 484 -16 872 130 727 -16 "},"Ū":{"ha":967,"x_min":0,"x_max":0,"o":"m 303 1200 l 663 1200 l 663 1114 l 303 1114 m 484 -16 b 95 343 241 -16 95 130 l 95 979 l 217 979 l 217 351 b 484 96 217 201 315 96 b 750 351 654 96 750 201 l 750 979 l 872 979 l 872 343 b 484 -16 872 130 727 -16 "},"Ṻ":{"ha":967,"x_min":0,"x_max":0,"o":"m 598 1183 b 537 1244 564 1183 537 1211 l 537 1246 b 598 1305 537 1280 564 1305 l 600 1305 b 660 1246 633 1305 660 1280 l 660 1244 b 600 1183 660 1211 633 1183 l 598 1183 m 368 1183 b 307 1244 334 1183 307 1211 l 307 1246 b 368 1305 307 1280 334 1305 l 370 1305 b 430 1246 404 1305 430 1280 l 430 1244 b 370 1183 430 1211 404 1183 l 368 1183 m 307 1128 l 660 1128 l 660 1046 l 307 1046 m 484 -16 b 95 343 241 -16 95 130 l 95 979 l 217 979 l 217 351 b 484 96 217 201 315 96 b 750 351 654 96 750 201 l 750 979 l 872 979 l 872 343 b 484 -16 872 130 727 -16 "},"Ů":{"ha":967,"x_min":0,"x_max":0,"o":"m 486 1034 b 362 1155 418 1034 362 1088 l 362 1156 b 486 1276 362 1223 418 1276 b 610 1156 554 1276 610 1223 l 610 1155 b 486 1034 610 1088 554 1034 m 486 1100 b 541 1155 517 1100 541 1124 l 541 1156 b 486 1211 541 1186 517 1211 b 431 1156 455 1211 431 1186 l 431 1155 b 486 1100 431 1124 455 1100 m 484 -16 b 95 343 241 -16 95 130 l 95 979 l 217 979 l 217 351 b 484 96 217 201 315 96 b 750 351 654 96 750 201 l 750 979 l 872 979 l 872 343 b 484 -16 872 130 727 -16 "},"Ų":{"ha":967,"x_min":0,"x_max":0,"o":"m 538 -320 b 382 -178 454 -320 382 -272 l 382 -177 b 458 -16 382 -119 410 -60 b 95 343 231 -5 95 138 l 95 979 l 217 979 l 217 351 b 484 96 217 201 315 96 b 750 351 654 96 750 201 l 750 979 l 872 979 l 872 343 b 565 -10 872 155 759 19 b 492 -151 517 -52 492 -98 l 492 -153 b 562 -237 492 -211 523 -237 b 604 -230 578 -237 593 -235 l 604 -309 b 538 -320 587 -317 556 -320 "},"Ư":{"ha":967,"x_min":0,"x_max":0,"o":"m 484 -16 b 95 343 241 -16 95 130 l 95 979 l 217 979 l 217 351 b 484 96 217 201 315 96 b 750 351 654 96 750 201 l 750 979 b 902 1171 878 998 902 1040 l 1006 1171 b 872 935 1006 1031 978 970 l 872 343 b 484 -16 872 130 727 -16 "},"Ừ":{"ha":967,"x_min":0,"x_max":0,"o":"m 311 1253 l 433 1253 l 543 1057 l 454 1057 m 484 -16 b 95 343 241 -16 95 130 l 95 979 l 217 979 l 217 351 b 484 96 217 201 315 96 b 750 351 654 96 750 201 l 750 979 b 902 1171 878 998 902 1040 l 1006 1171 b 872 935 1006 1031 978 970 l 872 343 b 484 -16 872 130 727 -16 "},"Ứ":{"ha":967,"x_min":0,"x_max":0,"o":"m 428 1057 l 538 1253 l 660 1253 l 517 1057 m 484 -16 b 95 343 241 -16 95 130 l 95 979 l 217 979 l 217 351 b 484 96 217 201 315 96 b 750 351 654 96 750 201 l 750 979 b 902 1171 878 998 902 1040 l 1006 1171 b 872 935 1006 1031 978 970 l 872 343 b 484 -16 872 130 727 -16 "},"Ự":{"ha":967,"x_min":0,"x_max":0,"o":"m 484 -16 b 95 343 241 -16 95 130 l 95 979 l 217 979 l 217 351 b 484 96 217 201 315 96 b 750 351 654 96 750 201 l 750 979 b 902 1171 878 998 902 1040 l 1006 1171 b 872 935 1006 1031 978 970 l 872 343 b 484 -16 872 130 727 -16 m 484 -267 b 410 -193 443 -267 410 -234 b 484 -119 410 -152 443 -119 b 557 -193 525 -119 557 -152 b 484 -267 557 -234 525 -267 "},"Ử":{"ha":967,"x_min":0,"x_max":0,"o":"m 432 1059 b 495 1140 473 1089 495 1116 b 415 1186 495 1169 460 1186 b 374 1183 395 1186 382 1184 l 374 1252 b 447 1263 389 1258 416 1263 b 583 1160 518 1263 583 1223 b 516 1057 583 1121 562 1088 l 432 1057 m 484 -16 b 95 343 241 -16 95 130 l 95 979 l 217 979 l 217 351 b 484 96 217 201 315 96 b 750 351 654 96 750 201 l 750 979 b 902 1171 878 998 902 1040 l 1006 1171 b 872 935 1006 1031 978 970 l 872 343 b 484 -16 872 130 727 -16 "},"Ữ":{"ha":967,"x_min":0,"x_max":0,"o":"m 580 1058 b 498 1093 547 1058 519 1072 l 477 1112 b 425 1145 458 1131 441 1145 b 393 1065 402 1145 393 1120 l 393 1059 l 318 1059 l 318 1067 b 413 1234 318 1178 354 1234 b 492 1199 446 1234 471 1219 l 514 1179 b 568 1146 534 1161 551 1146 b 600 1226 591 1146 600 1172 l 600 1232 l 675 1232 l 675 1225 b 580 1058 675 1114 640 1058 m 484 -16 b 95 343 241 -16 95 130 l 95 979 l 217 979 l 217 351 b 484 96 217 201 315 96 b 750 351 654 96 750 201 l 750 979 b 902 1171 878 998 902 1040 l 1006 1171 b 872 935 1006 1031 978 970 l 872 343 b 484 -16 872 130 727 -16 "},"V":{"ha":876,"x_min":0,"x_max":0,"o":"m 17 979 l 145 979 l 437 146 l 439 146 l 731 979 l 859 979 l 498 0 l 378 0 "},"Ṽ":{"ha":876,"x_min":0,"x_max":0,"o":"m 530 1058 b 439 1093 493 1058 463 1072 l 416 1112 b 358 1145 395 1131 376 1145 b 323 1065 333 1145 323 1120 l 323 1059 l 242 1059 l 242 1067 b 346 1234 242 1178 281 1234 b 433 1199 382 1234 410 1219 l 457 1179 b 517 1146 479 1161 498 1146 b 553 1226 543 1146 553 1172 l 553 1232 l 633 1232 l 633 1225 b 530 1058 633 1114 595 1058 m 17 979 l 145 979 l 437 146 l 439 146 l 731 979 l 859 979 l 498 0 l 378 0 "},"Ṿ":{"ha":876,"x_min":0,"x_max":0,"o":"m 17 979 l 145 979 l 437 146 l 439 146 l 731 979 l 859 979 l 498 0 l 378 0 m 438 -267 b 364 -193 397 -267 364 -234 b 438 -119 364 -152 397 -119 b 512 -193 479 -119 512 -152 b 438 -267 512 -234 479 -267 "},"W":{"ha":1283,"x_min":0,"x_max":0,"o":"m 31 979 l 158 979 l 355 175 l 358 175 l 580 979 l 703 979 l 925 175 l 928 175 l 1125 979 l 1253 979 l 986 0 l 871 0 l 643 784 l 640 784 l 412 0 l 297 0 "},"Ẁ":{"ha":1283,"x_min":0,"x_max":0,"o":"m 469 1253 l 591 1253 l 701 1057 l 612 1057 m 31 979 l 158 979 l 355 175 l 358 175 l 580 979 l 703 979 l 925 175 l 928 175 l 1125 979 l 1253 979 l 986 0 l 871 0 l 643 784 l 640 784 l 412 0 l 297 0 "},"Ẃ":{"ha":1283,"x_min":0,"x_max":0,"o":"m 586 1057 l 696 1253 l 818 1253 l 675 1057 m 31 979 l 158 979 l 355 175 l 358 175 l 580 979 l 703 979 l 925 175 l 928 175 l 1125 979 l 1253 979 l 986 0 l 871 0 l 643 784 l 640 784 l 412 0 l 297 0 "},"Ẇ":{"ha":1283,"x_min":0,"x_max":0,"o":"m 641 1092 b 571 1162 603 1092 571 1124 b 641 1232 571 1201 603 1232 b 711 1162 680 1232 711 1201 b 641 1092 711 1124 680 1092 m 31 979 l 158 979 l 355 175 l 358 175 l 580 979 l 703 979 l 925 175 l 928 175 l 1125 979 l 1253 979 l 986 0 l 871 0 l 643 784 l 640 784 l 412 0 l 297 0 "},"Ẉ":{"ha":1283,"x_min":0,"x_max":0,"o":"m 31 979 l 158 979 l 355 175 l 358 175 l 580 979 l 703 979 l 925 175 l 928 175 l 1125 979 l 1253 979 l 986 0 l 871 0 l 643 784 l 640 784 l 412 0 l 297 0 m 642 -267 b 568 -193 601 -267 568 -234 b 642 -119 568 -152 601 -119 b 715 -193 683 -119 715 -152 b 642 -267 715 -234 683 -267 "},"Ẅ":{"ha":1283,"x_min":0,"x_max":0,"o":"m 520 1090 b 453 1157 483 1090 453 1120 b 520 1224 453 1194 483 1224 b 587 1157 557 1224 587 1194 b 520 1090 587 1120 557 1090 m 763 1090 b 696 1157 726 1090 696 1120 b 763 1224 696 1194 726 1224 b 830 1157 801 1224 830 1194 b 763 1090 830 1120 801 1090 m 31 979 l 158 979 l 355 175 l 358 175 l 580 979 l 703 979 l 925 175 l 928 175 l 1125 979 l 1253 979 l 986 0 l 871 0 l 643 784 l 640 784 l 412 0 l 297 0 "},"Ŵ":{"ha":1283,"x_min":0,"x_max":0,"o":"m 589 1253 l 694 1253 l 840 1057 l 740 1057 l 642 1194 l 543 1057 l 444 1057 m 31 979 l 158 979 l 355 175 l 358 175 l 580 979 l 703 979 l 925 175 l 928 175 l 1125 979 l 1253 979 l 986 0 l 871 0 l 643 784 l 640 784 l 412 0 l 297 0 "},"X":{"ha":882,"x_min":0,"x_max":0,"o":"m 364 492 l 364 494 l 35 979 l 182 979 l 444 585 l 448 585 l 712 979 l 851 979 l 513 488 l 513 486 l 844 0 l 697 0 l 437 391 l 433 391 l 169 0 l 31 0 "},"Ẋ":{"ha":882,"x_min":0,"x_max":0,"o":"m 446 1092 b 376 1162 408 1092 376 1124 b 446 1232 376 1201 408 1232 b 516 1162 485 1232 516 1201 b 446 1092 516 1124 485 1092 m 364 492 l 364 494 l 35 979 l 182 979 l 444 585 l 448 585 l 712 979 l 851 979 l 513 488 l 513 486 l 844 0 l 697 0 l 437 391 l 433 391 l 169 0 l 31 0 "},"Ẍ":{"ha":882,"x_min":0,"x_max":0,"o":"m 325 1090 b 258 1157 288 1090 258 1120 b 325 1224 258 1194 288 1224 b 391 1157 362 1224 391 1194 b 325 1090 391 1120 362 1090 m 568 1090 b 501 1157 531 1090 501 1120 b 568 1224 501 1194 531 1224 b 635 1157 606 1224 635 1194 b 568 1090 635 1120 606 1090 m 364 492 l 364 494 l 35 979 l 182 979 l 444 585 l 448 585 l 712 979 l 851 979 l 513 488 l 513 486 l 844 0 l 697 0 l 437 391 l 433 391 l 169 0 l 31 0 "},"Y":{"ha":850,"x_min":0,"x_max":0,"o":"m 364 421 l 17 979 l 156 979 l 423 539 l 427 539 l 694 979 l 833 979 l 486 421 l 486 0 l 364 0 "},"Ỳ":{"ha":850,"x_min":0,"x_max":0,"o":"m 253 1253 l 374 1253 l 485 1057 l 395 1057 m 364 421 l 17 979 l 156 979 l 423 539 l 427 539 l 694 979 l 833 979 l 486 421 l 486 0 l 364 0 "},"Ý":{"ha":850,"x_min":0,"x_max":0,"o":"m 370 1057 l 480 1253 l 602 1253 l 459 1057 m 364 421 l 17 979 l 156 979 l 423 539 l 427 539 l 694 979 l 833 979 l 486 421 l 486 0 l 364 0 "},"Ẏ":{"ha":850,"x_min":0,"x_max":0,"o":"m 425 1092 b 355 1162 387 1092 355 1124 b 425 1232 355 1201 387 1232 b 495 1162 464 1232 495 1201 b 425 1092 495 1124 464 1092 m 364 421 l 17 979 l 156 979 l 423 539 l 427 539 l 694 979 l 833 979 l 486 421 l 486 0 l 364 0 "},"Ỵ":{"ha":850,"x_min":0,"x_max":0,"o":"m 364 421 l 17 979 l 156 979 l 423 539 l 427 539 l 694 979 l 833 979 l 486 421 l 486 0 l 364 0 m 425 -267 b 351 -193 385 -267 351 -234 b 425 -119 351 -152 385 -119 b 499 -193 467 -119 499 -152 b 425 -267 499 -234 467 -267 "},"Ÿ":{"ha":850,"x_min":0,"x_max":0,"o":"m 304 1090 b 237 1157 267 1090 237 1120 b 304 1224 237 1194 267 1224 b 370 1157 341 1224 370 1194 b 304 1090 370 1120 341 1090 m 547 1090 b 480 1157 510 1090 480 1120 b 547 1224 480 1194 510 1224 b 614 1157 585 1224 614 1194 b 547 1090 614 1120 585 1090 m 364 421 l 17 979 l 156 979 l 423 539 l 427 539 l 694 979 l 833 979 l 486 421 l 486 0 l 364 0 "},"Ỹ":{"ha":850,"x_min":0,"x_max":0,"o":"m 517 1058 b 427 1093 480 1058 450 1072 l 403 1112 b 345 1145 382 1131 363 1145 b 310 1065 320 1145 310 1120 l 310 1059 l 229 1059 l 229 1067 b 333 1234 229 1178 268 1234 b 420 1199 369 1234 397 1219 l 444 1179 b 505 1146 466 1161 486 1146 b 540 1226 530 1146 540 1172 l 540 1232 l 621 1232 l 621 1225 b 517 1058 621 1114 582 1058 m 364 421 l 17 979 l 156 979 l 423 539 l 427 539 l 694 979 l 833 979 l 486 421 l 486 0 l 364 0 "},"Ŷ":{"ha":850,"x_min":0,"x_max":0,"o":"m 372 1253 l 478 1253 l 623 1057 l 524 1057 l 425 1194 l 327 1057 l 227 1057 m 364 421 l 17 979 l 156 979 l 423 539 l 427 539 l 694 979 l 833 979 l 486 421 l 486 0 l 364 0 "},"Ȳ":{"ha":850,"x_min":0,"x_max":0,"o":"m 245 1200 l 605 1200 l 605 1114 l 245 1114 m 364 421 l 17 979 l 156 979 l 423 539 l 427 539 l 694 979 l 833 979 l 486 421 l 486 0 l 364 0 "},"Ỷ":{"ha":850,"x_min":0,"x_max":0,"o":"m 374 1059 b 437 1140 414 1089 437 1116 b 357 1186 437 1169 401 1186 b 315 1183 336 1186 324 1184 l 315 1252 b 389 1263 331 1258 358 1263 b 525 1160 460 1263 525 1223 b 458 1057 525 1121 504 1088 l 374 1057 m 364 421 l 17 979 l 156 979 l 423 539 l 427 539 l 694 979 l 833 979 l 486 421 l 486 0 l 364 0 "},"⅄":{"ha":850,"x_min":0,"x_max":0,"o":"m 486 557 l 833 0 l 694 0 l 427 439 l 423 439 l 156 0 l 17 0 l 364 557 l 364 979 l 486 979 "},"Z":{"ha":857,"x_min":0,"x_max":0,"o":"m 66 87 l 626 866 l 626 869 l 85 869 l 85 979 l 779 979 l 779 892 l 222 113 l 222 110 l 790 110 l 790 0 l 66 0 "},"Ź":{"ha":857,"x_min":0,"x_max":0,"o":"m 373 1057 l 484 1253 l 605 1253 l 463 1057 m 66 87 l 626 866 l 626 869 l 85 869 l 85 979 l 779 979 l 779 892 l 222 113 l 222 110 l 790 110 l 790 0 l 66 0 "},"Ž":{"ha":857,"x_min":0,"x_max":0,"o":"m 481 1057 l 376 1057 l 231 1253 l 330 1253 l 429 1116 l 527 1253 l 627 1253 m 66 87 l 626 866 l 626 869 l 85 869 l 85 979 l 779 979 l 779 892 l 222 113 l 222 110 l 790 110 l 790 0 l 66 0 "},"Ẑ":{"ha":857,"x_min":0,"x_max":0,"o":"m 376 1253 l 481 1253 l 627 1057 l 527 1057 l 429 1194 l 330 1057 l 231 1057 m 66 87 l 626 866 l 626 869 l 85 869 l 85 979 l 779 979 l 779 892 l 222 113 l 222 110 l 790 110 l 790 0 l 66 0 "},"Ẕ":{"ha":857,"x_min":0,"x_max":0,"o":"m 66 87 l 626 866 l 626 869 l 85 869 l 85 979 l 779 979 l 779 892 l 222 113 l 222 110 l 790 110 l 790 0 l 66 0 m 241 -142 l 616 -142 l 616 -228 l 241 -228 "},"Ẓ":{"ha":857,"x_min":0,"x_max":0,"o":"m 66 87 l 626 866 l 626 869 l 85 869 l 85 979 l 779 979 l 779 892 l 222 113 l 222 110 l 790 110 l 790 0 l 66 0 m 429 -267 b 355 -193 388 -267 355 -234 b 429 -119 355 -152 388 -119 b 503 -193 470 -119 503 -152 b 429 -267 503 -234 470 -267 "},"Ż":{"ha":857,"x_min":0,"x_max":0,"o":"m 428 1092 b 358 1162 390 1092 358 1124 b 428 1232 358 1201 390 1232 b 498 1162 467 1232 498 1201 b 428 1092 498 1124 467 1092 m 66 87 l 626 866 l 626 869 l 85 869 l 85 979 l 779 979 l 779 892 l 222 113 l 222 110 l 790 110 l 790 0 l 66 0 "},"Æ":{"ha":1311,"x_min":0,"x_max":0,"o":"m 488 979 l 1245 979 l 1245 869 l 774 869 l 774 548 l 1220 548 l 1220 439 l 774 439 l 774 110 l 1245 110 l 1245 0 l 652 0 l 652 311 l 283 311 l 129 0 l 3 0 m 334 415 l 652 415 l 652 876 l 563 876 "},"Ǣ":{"ha":1311,"x_min":0,"x_max":0,"o":"m 677 1200 l 1037 1200 l 1037 1114 l 677 1114 m 488 979 l 1245 979 l 1245 869 l 774 869 l 774 548 l 1220 548 l 1220 439 l 774 439 l 774 110 l 1245 110 l 1245 0 l 652 0 l 652 311 l 283 311 l 129 0 l 3 0 m 334 415 l 652 415 l 652 876 l 563 876 "},"Ǽ":{"ha":1311,"x_min":0,"x_max":0,"o":"m 802 1057 l 912 1253 l 1034 1253 l 891 1057 m 488 979 l 1245 979 l 1245 869 l 774 869 l 774 548 l 1220 548 l 1220 439 l 774 439 l 774 110 l 1245 110 l 1245 0 l 652 0 l 652 311 l 283 311 l 129 0 l 3 0 m 334 415 l 652 415 l 652 876 l 563 876 "},"Œ":{"ha":1503,"x_min":0,"x_max":0,"o":"m 513 -16 b 57 488 233 -16 57 178 l 57 490 b 513 995 57 800 233 995 b 844 827 659 995 777 935 l 844 979 l 1437 979 l 1437 869 l 966 869 l 966 555 l 1411 555 l 1411 446 l 966 446 l 966 110 l 1437 110 l 1437 0 l 844 0 l 844 155 b 513 -16 777 46 656 -16 m 513 96 b 842 488 715 96 842 248 l 842 490 b 513 882 842 730 714 882 b 182 490 310 882 182 731 l 182 488 b 513 96 182 248 310 96 "},"Þ":{"ha":836,"x_min":0,"x_max":0,"o":"m 109 979 l 231 979 l 231 798 l 484 798 b 770 517 633 798 770 696 l 770 516 b 482 234 770 338 631 234 l 231 234 l 231 0 l 109 0 m 231 690 l 231 342 l 449 342 b 645 516 562 342 645 400 l 645 517 b 449 690 645 633 562 690 "},"Ɣ":{"ha":749,"x_min":0,"x_max":0,"o":"m 375 -16 b 204 132 273 -16 204 47 l 204 133 b 259 305 204 193 226 244 l 316 406 l 17 979 l 146 979 l 375 511 l 604 979 l 732 979 l 433 406 l 490 305 b 545 133 524 244 545 193 l 545 132 b 375 -16 545 47 477 -16 m 374 77 b 439 142 410 77 439 101 l 439 143 b 385 281 439 173 427 205 l 374 300 l 364 281 b 310 143 322 205 310 173 l 310 142 b 374 77 310 101 338 77 "},"Ǳ":{"ha":1799,"x_min":0,"x_max":0,"o":"m 95 979 l 424 979 b 886 491 713 979 886 798 l 886 490 b 424 0 886 181 715 0 l 95 0 m 1009 87 l 1569 866 l 1569 869 l 1028 869 l 1028 979 l 1721 979 l 1721 892 l 1164 113 l 1164 110 l 1733 110 l 1733 0 l 1009 0 m 416 110 b 761 488 637 110 761 245 l 761 490 b 416 869 761 734 637 869 l 217 869 l 217 110 "},"Ǆ":{"ha":1799,"x_min":0,"x_max":0,"o":"m 1424 1057 l 1318 1057 l 1173 1253 l 1273 1253 l 1371 1116 l 1470 1253 l 1569 1253 m 95 979 l 424 979 b 886 491 713 979 886 798 l 886 490 b 424 0 886 181 715 0 l 95 0 m 1009 87 l 1569 866 l 1569 869 l 1028 869 l 1028 979 l 1721 979 l 1721 892 l 1164 113 l 1164 110 l 1733 110 l 1733 0 l 1009 0 m 416 110 b 761 488 637 110 761 245 l 761 490 b 416 869 761 734 637 869 l 217 869 l 217 110 "},"Ǉ":{"ha":1416,"x_min":0,"x_max":0,"o":"m 95 979 l 217 979 l 217 110 l 689 110 l 689 0 l 95 0 m 1033 -16 b 758 229 863 -16 768 89 l 757 239 l 879 239 l 880 232 b 1032 96 887 158 935 96 b 1199 280 1141 96 1199 161 l 1199 979 l 1321 979 l 1321 279 b 1033 -16 1321 94 1214 -16 "},"Ǌ":{"ha":1659,"x_min":0,"x_max":0,"o":"m 95 979 l 214 979 l 752 206 l 755 206 l 755 979 l 876 979 l 876 0 l 758 0 l 219 772 l 216 772 l 216 0 l 95 0 m 1276 -16 b 1000 229 1106 -16 1010 89 l 1000 239 l 1122 239 l 1122 232 b 1275 96 1130 158 1178 96 b 1442 280 1383 96 1442 161 l 1442 979 l 1564 979 l 1564 279 b 1276 -16 1564 94 1457 -16 "},"Α":{"ha":882,"x_min":0,"x_max":0,"o":"m 381 979 l 502 979 l 865 0 l 737 0 l 638 280 l 244 280 l 145 0 l 17 0 m 281 384 l 602 384 l 443 832 l 440 832 "},"Β":{"ha":840,"x_min":0,"x_max":0,"o":"m 95 979 l 466 979 b 747 734 633 979 747 881 l 747 733 b 570 519 747 632 671 534 l 570 517 b 796 276 711 500 796 406 l 796 275 b 465 0 796 102 673 0 l 95 0 m 217 871 l 217 557 l 400 557 b 623 720 545 557 623 614 l 623 722 b 438 871 623 818 556 871 m 217 452 l 217 108 l 446 108 b 671 279 593 108 671 167 l 671 281 b 435 452 671 394 591 452 "},"Γ":{"ha":720,"x_min":0,"x_max":0,"o":"m 95 0 l 95 979 l 675 979 l 675 869 l 217 869 l 217 0 "},"Δ":{"ha":880,"x_min":0,"x_max":0,"o":"m 37 86 l 380 979 l 500 979 l 843 86 l 843 0 l 37 0 m 707 110 l 707 115 l 442 837 l 438 837 l 174 115 l 174 110 "},"∆":{"ha":880,"x_min":0,"x_max":0,"o":"m 37 0 l 843 0 l 843 86 l 500 979 l 380 979 l 37 86 m 174 110 l 174 115 l 438 837 l 442 837 l 707 115 l 707 110 "},"Ε":{"ha":767,"x_min":0,"x_max":0,"o":"m 95 979 l 701 979 l 701 869 l 217 869 l 217 555 l 676 555 l 676 446 l 217 446 l 217 110 l 701 110 l 701 0 l 95 0 "},"Ζ":{"ha":857,"x_min":0,"x_max":0,"o":"m 66 87 l 626 866 l 626 869 l 85 869 l 85 979 l 779 979 l 779 892 l 222 113 l 222 110 l 790 110 l 790 0 l 66 0 "},"Η":{"ha":971,"x_min":0,"x_max":0,"o":"m 95 979 l 217 979 l 217 555 l 754 555 l 754 979 l 876 979 l 876 0 l 754 0 l 754 446 l 217 446 l 217 0 l 95 0 "},"Θ":{"ha":1025,"x_min":0,"x_max":0,"o":"m 513 -16 b 57 489 233 -16 57 178 l 57 490 b 513 995 57 800 233 995 b 968 490 793 995 968 800 l 968 489 b 513 -16 968 178 793 -16 m 513 96 b 848 489 721 96 848 250 l 848 490 b 513 882 848 730 719 882 b 177 490 307 882 177 731 l 177 489 b 513 96 177 248 307 96 m 317 543 l 707 543 l 707 437 l 317 437 "},"Ι":{"ha":312,"x_min":0,"x_max":0,"o":"m 95 979 l 217 979 l 217 0 l 95 0 "},"Κ":{"ha":834,"x_min":0,"x_max":0,"o":"m 95 979 l 217 979 l 217 498 l 221 498 l 636 979 l 789 979 l 407 545 l 825 0 l 669 0 l 321 457 l 217 342 l 217 0 l 95 0 "},"Λ":{"ha":849,"x_min":0,"x_max":0,"o":"m 364 979 l 485 979 l 832 0 l 704 0 l 427 823 l 422 823 l 145 0 l 17 0 "},"Μ":{"ha":1154,"x_min":0,"x_max":0,"o":"m 95 979 l 236 979 l 575 154 l 579 154 l 918 979 l 1059 979 l 1059 0 l 945 0 l 945 756 l 941 756 l 629 0 l 526 0 l 213 756 l 209 756 l 209 0 l 95 0 "},"Ν":{"ha":971,"x_min":0,"x_max":0,"o":"m 95 979 l 214 979 l 752 206 l 755 206 l 755 979 l 876 979 l 876 0 l 758 0 l 219 772 l 216 772 l 216 0 l 95 0 "},"Ξ":{"ha":850,"x_min":0,"x_max":0,"o":"m 66 979 l 784 979 l 784 869 l 66 869 m 125 555 l 725 555 l 725 446 l 125 446 m 66 110 l 784 110 l 784 0 l 66 0 "},"Ο":{"ha":1016,"x_min":0,"x_max":0,"o":"m 509 -16 b 57 489 231 -16 57 178 l 57 490 b 509 995 57 800 231 995 b 959 490 785 995 959 800 l 959 489 b 509 -16 959 178 786 -16 m 509 96 b 834 489 710 96 834 250 l 834 490 b 509 882 834 730 708 882 b 182 490 309 882 182 731 l 182 489 b 509 96 182 248 308 96 "},"Π":{"ha":958,"x_min":0,"x_max":0,"o":"m 741 0 l 741 869 l 217 869 l 217 0 l 95 0 l 95 979 l 863 979 l 863 0 "},"Ρ":{"ha":802,"x_min":0,"x_max":0,"o":"m 95 979 l 444 979 b 758 666 627 979 758 852 l 758 665 b 444 349 758 479 627 349 l 217 349 l 217 0 l 95 0 m 217 870 l 217 458 l 412 458 b 633 663 552 458 633 534 l 633 665 b 412 870 633 793 552 870 "},"Ʃ":{"ha":836,"x_min":0,"x_max":0,"o":"m 66 87 l 351 492 l 78 882 l 78 979 l 751 979 l 751 869 l 229 869 l 229 864 l 481 503 l 481 498 l 214 115 l 214 110 l 770 110 l 770 0 l 66 0 "},"Σ":{"ha":836,"x_min":0,"x_max":0,"o":"m 66 0 l 770 0 l 770 110 l 214 110 l 214 115 l 481 498 l 481 503 l 229 864 l 229 869 l 751 869 l 751 979 l 78 979 l 78 882 l 351 492 l 66 87 "},"Τ":{"ha":807,"x_min":0,"x_max":0,"o":"m 342 869 l 34 869 l 34 979 l 773 979 l 773 869 l 465 869 l 465 0 l 342 0 "},"Υ":{"ha":850,"x_min":0,"x_max":0,"o":"m 364 421 l 17 979 l 156 979 l 423 539 l 427 539 l 694 979 l 833 979 l 486 421 l 486 0 l 364 0 "},"Φ":{"ha":1104,"x_min":0,"x_max":0,"o":"m 491 58 b 50 486 221 70 50 237 l 50 487 b 491 916 50 737 221 904 l 491 1015 l 613 1015 l 613 916 b 1054 487 883 904 1054 737 l 1054 486 b 613 58 1054 236 883 70 l 613 -39 l 491 -39 m 491 807 b 175 487 294 800 175 680 l 175 486 b 491 167 175 294 294 174 m 613 167 b 929 486 810 174 929 294 l 929 487 b 613 807 929 680 810 800 l 613 167 "},"Χ":{"ha":882,"x_min":0,"x_max":0,"o":"m 364 492 l 364 494 l 35 979 l 182 979 l 444 585 l 448 585 l 712 979 l 851 979 l 513 488 l 513 486 l 844 0 l 697 0 l 437 391 l 433 391 l 169 0 l 31 0 "},"Ψ":{"ha":1070,"x_min":0,"x_max":0,"o":"m 474 230 b 81 609 238 231 81 382 l 81 979 l 203 979 l 203 613 b 474 342 203 444 300 347 l 474 979 l 596 979 l 596 342 b 867 613 770 347 867 444 l 867 979 l 989 979 l 989 609 b 596 230 989 382 831 230 l 596 0 l 474 0 "},"Ω":{"ha":1036,"x_min":0,"x_max":0,"o":"m 71 110 l 281 110 l 281 115 b 71 540 148 207 71 361 l 71 541 b 518 995 71 809 251 995 b 966 541 785 995 966 809 l 966 540 b 755 115 966 361 888 207 l 755 110 l 966 110 l 966 0 l 609 0 l 609 131 b 841 537 767 236 841 363 l 841 538 b 518 882 841 749 718 882 b 195 538 318 882 195 749 l 195 537 b 427 131 195 363 269 236 l 427 0 l 71 0 "},"Ω":{"ha":1036,"x_min":0,"x_max":0,"o":"m 71 0 l 427 0 l 427 131 b 195 537 269 236 195 363 l 195 538 b 518 882 195 749 318 882 b 841 538 718 882 841 749 l 841 537 b 609 131 841 363 767 236 l 609 0 l 966 0 l 966 110 l 755 110 l 755 115 b 966 540 888 207 966 361 l 966 541 b 518 995 966 809 785 995 b 71 541 251 995 71 809 l 71 540 b 281 115 71 361 148 207 l 281 110 l 71 110 "},"Ά":{"ha":882,"x_min":0,"x_max":0,"o":"m 95 775 l 157 979 l 277 979 l 186 775 m 381 979 l 502 979 l 865 0 l 737 0 l 638 280 l 244 280 l 145 0 l 17 0 m 281 384 l 602 384 l 443 832 l 440 832 "},"Έ":{"ha":953,"x_min":0,"x_max":0,"o":"m 17 775 l 79 979 l 199 979 l 109 775 m 281 979 l 887 979 l 887 869 l 403 869 l 403 555 l 862 555 l 862 446 l 403 446 l 403 110 l 887 110 l 887 0 l 281 0 "},"Ή":{"ha":1157,"x_min":0,"x_max":0,"o":"m 17 775 l 79 979 l 199 979 l 109 775 m 281 979 l 403 979 l 403 555 l 940 555 l 940 979 l 1062 979 l 1062 0 l 940 0 l 940 446 l 403 446 l 403 0 l 281 0 "},"Ί":{"ha":498,"x_min":0,"x_max":0,"o":"m 17 775 l 79 979 l 199 979 l 109 775 m 281 979 l 403 979 l 403 0 l 281 0 "},"Ϊ":{"ha":312,"x_min":0,"x_max":0,"o":"m 35 1090 b -33 1157 -3 1090 -33 1120 b 35 1224 -33 1194 -3 1224 b 101 1157 72 1224 101 1194 b 35 1090 101 1120 72 1090 m 277 1090 b 211 1157 241 1090 211 1120 b 277 1224 211 1194 241 1224 b 345 1157 315 1224 345 1194 b 277 1090 345 1120 315 1090 m 95 979 l 217 979 l 217 0 l 95 0 "},"Ό":{"ha":1108,"x_min":0,"x_max":0,"o":"m 601 -16 b 149 489 323 -16 149 178 l 149 490 b 601 995 149 800 323 995 b 1051 490 878 995 1051 800 l 1051 489 b 601 -16 1051 178 878 -16 m 17 775 l 79 979 l 199 979 l 109 775 m 601 96 b 926 489 802 96 926 250 l 926 490 b 601 882 926 730 800 882 b 274 490 401 882 274 731 l 274 489 b 601 96 274 248 400 96 "},"Ύ":{"ha":1072,"x_min":0,"x_max":0,"o":"m 17 775 l 79 979 l 199 979 l 109 775 m 585 421 l 238 979 l 377 979 l 644 539 l 648 539 l 916 979 l 1055 979 l 707 421 l 707 0 l 585 0 "},"Ϋ":{"ha":850,"x_min":0,"x_max":0,"o":"m 304 1090 b 237 1157 267 1090 237 1120 b 304 1224 237 1194 267 1224 b 370 1157 341 1224 370 1194 b 304 1090 370 1120 341 1090 m 547 1090 b 480 1157 510 1090 480 1120 b 547 1224 480 1194 510 1224 b 614 1157 585 1224 614 1194 b 547 1090 614 1120 585 1090 m 364 421 l 17 979 l 156 979 l 423 539 l 427 539 l 694 979 l 833 979 l 486 421 l 486 0 l 364 0 "},"Ώ":{"ha":1113,"x_min":0,"x_max":0,"o":"m 147 110 l 358 110 l 358 115 b 147 540 224 207 147 361 l 147 541 b 595 995 147 809 328 995 b 1042 541 862 995 1042 809 l 1042 540 b 831 115 1042 361 965 207 l 831 110 l 1042 110 l 1042 0 l 686 0 l 686 131 b 918 537 844 236 918 363 l 918 538 b 595 882 918 749 795 882 b 272 538 395 882 272 749 l 272 537 b 504 131 272 363 346 236 l 504 0 l 147 0 m 17 775 l 79 979 l 199 979 l 109 775 "},"Ϝ":{"ha":726,"x_min":0,"x_max":0,"o":"m 102 0 l 102 979 l 682 979 l 682 869 l 224 869 l 224 543 l 682 543 l 682 433 l 224 433 l 224 0 "},"∇":{"ha":880,"x_min":0,"x_max":0,"o":"m 843 892 l 500 0 l 380 0 l 37 892 l 37 979 l 843 979 m 174 869 l 174 864 l 438 142 l 442 142 l 707 864 l 707 869 "},"А":{"ha":896,"x_min":0,"x_max":0,"o":"m 388 979 l 509 979 l 872 0 l 744 0 l 645 280 l 251 280 l 152 0 l 24 0 m 288 384 l 608 384 l 450 832 l 447 832 "},"Ӑ":{"ha":896,"x_min":0,"x_max":0,"o":"m 451 1056 b 252 1240 326 1056 252 1136 l 252 1243 l 347 1243 l 347 1240 b 452 1134 347 1183 382 1134 b 556 1240 518 1134 556 1183 l 556 1243 l 652 1243 l 652 1240 b 451 1056 652 1136 577 1056 m 388 979 l 509 979 l 872 0 l 744 0 l 645 280 l 251 280 l 152 0 l 24 0 m 288 384 l 608 384 l 450 832 l 447 832 "},"Ӓ":{"ha":896,"x_min":0,"x_max":0,"o":"m 327 1090 b 260 1157 290 1090 260 1120 b 327 1224 260 1194 290 1224 b 393 1157 364 1224 393 1194 b 327 1090 393 1120 364 1090 m 570 1090 b 503 1157 533 1090 503 1120 b 570 1224 503 1194 533 1224 b 637 1157 608 1224 637 1194 b 570 1090 637 1120 608 1090 m 388 979 l 509 979 l 872 0 l 744 0 l 645 280 l 251 280 l 152 0 l 24 0 m 288 384 l 608 384 l 450 832 l 447 832 "},"Б":{"ha":852,"x_min":0,"x_max":0,"o":"m 102 979 l 673 979 l 673 869 l 224 869 l 224 589 l 456 589 b 771 294 640 589 771 467 l 771 293 b 458 0 771 121 642 0 l 102 0 m 426 110 b 646 293 566 110 646 176 l 646 294 b 426 479 646 412 566 479 l 224 479 l 224 110 "},"В":{"ha":853,"x_min":0,"x_max":0,"o":"m 102 979 l 473 979 b 753 734 640 979 753 881 l 753 733 b 576 519 753 632 677 534 l 576 517 b 803 276 718 500 803 406 l 803 275 b 471 0 803 102 680 0 l 102 0 m 224 871 l 224 557 l 407 557 b 630 720 551 557 630 614 l 630 722 b 445 871 630 818 563 871 m 224 452 l 224 108 l 453 108 b 677 279 600 108 677 167 l 677 281 b 441 452 677 394 597 452 "},"Г":{"ha":726,"x_min":0,"x_max":0,"o":"m 102 0 l 102 979 l 682 979 l 682 869 l 224 869 l 224 0 "},"Ѓ":{"ha":726,"x_min":0,"x_max":0,"o":"m 328 1057 l 438 1253 l 559 1253 l 417 1057 m 102 0 l 102 979 l 682 979 l 682 869 l 224 869 l 224 0 "},"Ґ":{"ha":726,"x_min":0,"x_max":0,"o":"m 102 0 l 102 979 l 570 979 l 570 1172 l 682 1172 l 682 869 l 224 869 l 224 0 "},"Ӷ":{"ha":726,"x_min":0,"x_max":0,"o":"m 233 0 l 102 0 l 102 979 l 682 979 l 682 869 l 224 869 l 224 110 l 346 110 l 346 -193 l 233 -193 "},"Ғ":{"ha":760,"x_min":0,"x_max":0,"o":"m 136 0 l 136 437 l 34 437 l 34 539 l 136 539 l 136 979 l 716 979 l 716 869 l 258 869 l 258 539 l 461 539 l 461 437 l 258 437 l 258 0 "},"Ӻ":{"ha":760,"x_min":0,"x_max":0,"o":"m 257 0 l 257 -39 b 60 -237 257 -173 193 -237 b -12 -233 33 -237 5 -235 l -12 -137 b 41 -140 2 -138 22 -140 b 135 -39 104 -140 135 -106 l 135 14 l 136 14 l 136 437 l 34 437 l 34 539 l 136 539 l 136 979 l 716 979 l 716 869 l 258 869 l 258 539 l 461 539 l 461 437 l 258 437 l 258 0 "},"Д":{"ha":1004,"x_min":0,"x_max":0,"o":"m 20 -193 l 20 110 l 93 110 b 198 363 164 148 191 235 l 235 979 l 841 979 l 841 110 l 963 110 l 963 -193 l 850 -193 l 850 0 l 134 0 l 134 -193 m 313 360 b 244 115 306 248 292 174 l 244 110 l 719 110 l 719 869 l 345 869 l 313 360 "},"Е":{"ha":781,"x_min":0,"x_max":0,"o":"m 102 979 l 708 979 l 708 869 l 224 869 l 224 555 l 683 555 l 683 446 l 224 446 l 224 110 l 708 110 l 708 0 l 102 0 "},"Ё":{"ha":781,"x_min":0,"x_max":0,"o":"m 283 1090 b 216 1157 246 1090 216 1120 b 283 1224 216 1194 246 1224 b 350 1157 321 1224 350 1194 b 283 1090 350 1120 321 1090 m 526 1090 b 460 1157 490 1090 460 1120 b 526 1224 460 1194 490 1224 b 593 1157 564 1224 593 1194 b 526 1090 593 1120 564 1090 m 102 979 l 708 979 l 708 869 l 224 869 l 224 555 l 683 555 l 683 446 l 224 446 l 224 110 l 708 110 l 708 0 l 102 0 "},"Ӗ":{"ha":781,"x_min":0,"x_max":0,"o":"m 408 1056 b 208 1240 283 1056 208 1136 l 208 1243 l 304 1243 l 304 1240 b 408 1134 304 1183 339 1134 b 513 1240 475 1134 513 1183 l 513 1243 l 608 1243 l 608 1240 b 408 1056 608 1136 534 1056 m 102 979 l 708 979 l 708 869 l 224 869 l 224 555 l 683 555 l 683 446 l 224 446 l 224 110 l 708 110 l 708 0 l 102 0 "},"Ѐ":{"ha":781,"x_min":0,"x_max":0,"o":"m 233 1253 l 354 1253 l 465 1057 l 375 1057 m 102 979 l 708 979 l 708 869 l 224 869 l 224 555 l 683 555 l 683 446 l 224 446 l 224 110 l 708 110 l 708 0 l 102 0 "},"Ж":{"ha":1322,"x_min":0,"x_max":0,"o":"m 756 549 l 1114 979 l 1265 979 l 855 511 l 1309 0 l 1145 0 l 756 451 l 722 451 l 722 0 l 600 0 l 600 451 l 566 451 l 178 0 l 14 0 l 467 511 l 58 979 l 209 979 l 566 549 l 600 549 l 600 979 l 722 979 l 722 549 "},"Ӂ":{"ha":1322,"x_min":0,"x_max":0,"o":"m 665 1056 b 465 1240 540 1056 465 1136 l 465 1243 l 561 1243 l 561 1240 b 665 1134 561 1183 596 1134 b 770 1240 732 1134 770 1183 l 770 1243 l 865 1243 l 865 1240 b 665 1056 865 1136 791 1056 m 756 549 l 1114 979 l 1265 979 l 855 511 l 1309 0 l 1145 0 l 756 451 l 722 451 l 722 0 l 600 0 l 600 451 l 566 451 l 178 0 l 14 0 l 467 511 l 58 979 l 209 979 l 566 549 l 600 549 l 600 979 l 722 979 l 722 549 "},"Ӝ":{"ha":1322,"x_min":0,"x_max":0,"o":"m 541 1090 b 473 1157 503 1090 473 1120 b 541 1224 473 1194 503 1224 b 607 1157 578 1224 607 1194 b 541 1090 607 1120 578 1090 m 783 1090 b 717 1157 747 1090 717 1120 b 783 1224 717 1194 747 1224 b 850 1157 821 1224 850 1194 b 783 1090 850 1120 821 1090 m 756 549 l 1114 979 l 1265 979 l 855 511 l 1309 0 l 1145 0 l 756 451 l 722 451 l 722 0 l 600 0 l 600 451 l 566 451 l 178 0 l 14 0 l 467 511 l 58 979 l 209 979 l 566 549 l 600 549 l 600 979 l 722 979 l 722 549 "},"Җ":{"ha":1385,"x_min":0,"x_max":0,"o":"m 756 549 l 1114 979 l 1265 979 l 855 511 l 1211 110 l 1345 110 l 1345 -193 l 1232 -193 l 1232 0 l 1145 0 l 756 451 l 722 451 l 722 0 l 600 0 l 600 451 l 566 451 l 178 0 l 14 0 l 467 511 l 58 979 l 209 979 l 566 549 l 600 549 l 600 979 l 722 979 l 722 549 "},"З":{"ha":812,"x_min":0,"x_max":0,"o":"m 265 555 l 401 555 b 608 728 526 555 608 627 l 608 730 b 410 882 608 825 536 882 b 199 738 288 882 212 829 l 198 728 l 77 728 l 78 737 b 415 995 90 898 218 995 b 733 741 603 995 733 890 l 733 739 b 553 513 733 631 660 539 l 553 507 b 762 264 683 490 762 397 l 762 263 b 413 -16 762 105 612 -16 b 52 246 202 -16 64 90 l 51 255 l 172 255 l 172 250 b 412 96 184 152 273 96 b 637 267 548 96 637 163 l 637 268 b 407 445 637 379 553 445 l 265 445 "},"Ӟ":{"ha":812,"x_min":0,"x_max":0,"o":"m 290 1090 b 222 1157 252 1090 222 1120 b 290 1224 222 1194 252 1224 b 356 1157 327 1224 356 1194 b 290 1090 356 1120 327 1090 m 532 1090 b 466 1157 496 1090 466 1120 b 532 1224 466 1194 496 1224 b 600 1157 570 1224 600 1194 b 532 1090 600 1120 570 1090 m 265 555 l 401 555 b 608 728 526 555 608 627 l 608 730 b 410 882 608 825 536 882 b 199 738 288 882 212 829 l 198 728 l 77 728 l 78 737 b 415 995 90 898 218 995 b 733 741 603 995 733 890 l 733 739 b 553 513 733 631 660 539 l 553 507 b 762 264 683 490 762 397 l 762 263 b 413 -16 762 105 612 -16 b 52 246 202 -16 64 90 l 51 255 l 172 255 l 172 250 b 412 96 184 152 273 96 b 637 267 548 96 637 163 l 637 268 b 407 445 637 379 553 445 l 265 445 "},"Ҙ":{"ha":812,"x_min":0,"x_max":0,"o":"m 265 555 l 401 555 b 608 728 526 555 608 627 l 608 730 b 410 882 608 825 536 882 b 199 738 288 882 212 829 l 198 728 l 77 728 l 78 737 b 415 995 90 898 218 995 b 733 741 603 995 733 890 l 733 739 b 553 513 733 631 660 539 l 553 507 b 762 264 683 490 762 397 l 762 263 b 467 -13 762 120 638 7 l 467 -194 l 351 -194 l 351 -13 b 52 246 175 6 62 106 l 51 255 l 172 255 l 172 250 b 412 96 184 152 273 96 b 637 267 548 96 637 163 l 637 268 b 407 445 637 379 553 445 l 265 445 "},"Ԑ":{"ha":812,"x_min":0,"x_max":0,"o":"m 406 445 b 176 268 260 445 176 379 l 176 267 b 401 96 176 163 264 96 b 640 250 539 96 628 152 l 641 255 l 762 255 l 761 246 b 399 -16 749 90 610 -16 b 51 263 201 -16 51 105 l 51 264 b 260 507 51 397 130 490 l 260 513 b 79 739 153 539 79 631 l 79 741 b 397 995 79 890 210 995 b 734 737 594 995 723 898 l 735 728 l 614 728 l 613 738 b 402 882 601 829 525 882 b 204 730 277 882 204 825 l 204 728 b 411 555 204 627 286 555 l 547 555 l 547 445 "},"И":{"ha":985,"x_min":0,"x_max":0,"o":"m 102 979 l 222 979 l 222 201 l 227 201 l 764 979 l 883 979 l 883 0 l 762 0 l 762 775 l 758 775 l 220 0 l 102 0 "},"Й":{"ha":985,"x_min":0,"x_max":0,"o":"m 494 1056 b 295 1240 370 1056 295 1136 l 295 1243 l 391 1243 l 391 1240 b 495 1134 391 1183 426 1134 b 600 1240 562 1134 600 1183 l 600 1243 l 695 1243 l 695 1240 b 494 1056 695 1136 621 1056 m 102 979 l 222 979 l 222 201 l 227 201 l 764 979 l 883 979 l 883 0 l 762 0 l 762 775 l 758 775 l 220 0 l 102 0 "},"Ѝ":{"ha":985,"x_min":0,"x_max":0,"o":"m 319 1253 l 441 1253 l 551 1057 l 462 1057 m 102 979 l 222 979 l 222 201 l 227 201 l 764 979 l 883 979 l 883 0 l 762 0 l 762 775 l 758 775 l 220 0 l 102 0 "},"Ӣ":{"ha":985,"x_min":0,"x_max":0,"o":"m 311 1200 l 671 1200 l 671 1114 l 311 1114 m 102 979 l 222 979 l 222 201 l 227 201 l 764 979 l 883 979 l 883 0 l 762 0 l 762 775 l 758 775 l 220 0 l 102 0 "},"Ӥ":{"ha":985,"x_min":0,"x_max":0,"o":"m 370 1090 b 303 1157 333 1090 303 1120 b 370 1224 303 1194 333 1224 b 437 1157 408 1224 437 1194 b 370 1090 437 1120 408 1090 m 613 1090 b 547 1157 576 1090 547 1120 b 613 1224 547 1194 576 1224 b 680 1157 651 1224 680 1194 b 613 1090 680 1120 651 1090 m 102 979 l 222 979 l 222 201 l 227 201 l 764 979 l 883 979 l 883 0 l 762 0 l 762 775 l 758 775 l 220 0 l 102 0 "},"Ҋ":{"ha":1025,"x_min":0,"x_max":0,"o":"m 494 1056 b 295 1240 370 1056 295 1136 l 295 1243 l 391 1243 l 391 1240 b 495 1134 391 1183 426 1134 b 600 1240 562 1134 600 1183 l 600 1243 l 695 1243 l 695 1240 b 494 1056 695 1136 621 1056 m 102 979 l 222 979 l 222 201 l 227 201 l 764 979 l 883 979 l 883 110 l 1005 110 l 1005 75 l 933 -193 l 820 -193 l 873 0 l 762 0 l 762 775 l 758 775 l 220 0 l 102 0 "},"К":{"ha":859,"x_min":0,"x_max":0,"o":"m 102 0 l 102 979 l 224 979 l 224 549 l 264 549 l 644 979 l 798 979 l 366 511 l 843 0 l 679 0 l 264 451 l 224 451 l 224 0 "},"Ќ":{"ha":859,"x_min":0,"x_max":0,"o":"m 345 1057 l 455 1253 l 576 1253 l 434 1057 m 102 0 l 102 979 l 224 979 l 224 549 l 264 549 l 644 979 l 798 979 l 366 511 l 843 0 l 679 0 l 264 451 l 224 451 l 224 0 "},"Қ":{"ha":918,"x_min":0,"x_max":0,"o":"m 102 0 l 102 979 l 224 979 l 224 549 l 264 549 l 644 979 l 798 979 l 366 511 l 741 110 l 877 110 l 877 -193 l 764 -193 l 764 0 l 679 0 l 264 451 l 224 451 l 224 0 "},"Ҝ":{"ha":934,"x_min":0,"x_max":0,"o":"m 102 0 l 102 979 l 224 979 l 224 549 l 320 549 l 320 798 l 412 798 l 412 549 l 429 549 l 731 979 l 873 979 l 536 512 l 918 0 l 766 0 l 429 451 l 412 451 l 412 210 l 320 210 l 320 451 l 224 451 l 224 0 "},"Ҟ":{"ha":892,"x_min":0,"x_max":0,"o":"m 136 0 l 136 749 l 34 749 l 34 851 l 136 851 l 136 979 l 258 979 l 258 851 l 373 851 l 373 749 l 258 749 l 258 549 l 298 549 l 678 979 l 831 979 l 400 511 l 877 0 l 713 0 l 298 451 l 258 451 l 258 0 "},"Ҡ":{"ha":1034,"x_min":0,"x_max":0,"o":"m 277 0 l 277 869 l 37 869 l 37 979 l 399 979 l 399 549 l 439 549 l 819 979 l 972 979 l 541 511 l 1018 0 l 854 0 l 439 451 l 399 451 l 399 0 "},"Ӄ":{"ha":864,"x_min":0,"x_max":0,"o":"m 386 -279 b 338 -275 368 -279 349 -277 l 338 -164 b 386 -166 353 -165 368 -166 b 642 119 541 -166 642 -56 l 642 121 b 245 438 642 317 490 438 l 224 438 l 224 0 l 102 0 l 102 979 l 224 979 l 224 548 l 233 548 l 663 979 l 817 979 l 368 536 b 766 125 612 500 766 341 l 766 123 b 386 -279 766 -119 615 -279 "},"Л":{"ha":954,"x_min":0,"x_max":0,"o":"m 81 -7 b 34 0 64 -7 46 -4 l 34 109 b 71 105 41 107 60 105 b 216 370 163 105 205 181 l 251 979 l 852 979 l 852 0 l 730 0 l 730 869 l 362 869 l 331 366 b 81 -7 315 105 239 -7 "},"Ӆ":{"ha":993,"x_min":0,"x_max":0,"o":"m 81 -7 b 34 0 64 -7 46 -4 l 34 109 b 71 105 41 107 60 105 b 216 370 163 105 205 181 l 251 979 l 852 979 l 852 110 l 972 110 l 972 75 l 901 -193 l 787 -193 l 840 0 l 730 0 l 730 869 l 362 869 l 331 366 b 81 -7 315 105 239 -7 "},"Ԯ":{"ha":1015,"x_min":0,"x_max":0,"o":"m 81 -7 b 34 0 64 -7 46 -4 l 34 109 b 71 105 41 107 60 105 b 216 370 163 105 205 181 l 251 979 l 852 979 l 852 110 l 974 110 l 974 -193 l 861 -193 l 861 0 l 730 0 l 730 869 l 362 869 l 331 366 b 81 -7 315 105 239 -7 "},"Ԓ":{"ha":954,"x_min":0,"x_max":0,"o":"m 81 -7 b 34 0 64 -7 46 -4 l 34 109 b 71 105 41 107 60 105 b 216 370 163 105 205 181 l 251 979 l 852 979 l 852 -39 b 654 -237 852 -173 787 -237 b 583 -233 628 -237 600 -235 l 583 -137 b 636 -140 597 -138 616 -140 b 730 -39 699 -140 730 -106 l 730 869 l 362 869 l 331 366 b 81 -7 315 105 239 -7 "},"М":{"ha":1168,"x_min":0,"x_max":0,"o":"m 102 979 l 243 979 l 582 154 l 586 154 l 925 979 l 1066 979 l 1066 0 l 952 0 l 952 756 l 948 756 l 635 0 l 532 0 l 220 756 l 216 756 l 216 0 l 102 0 "},"Ӎ":{"ha":1215,"x_min":0,"x_max":0,"o":"m 102 979 l 243 979 l 582 154 l 586 154 l 925 979 l 1066 979 l 1066 110 l 1195 110 l 1195 75 l 1123 -193 l 1010 -193 l 1063 0 l 952 0 l 952 756 l 948 756 l 635 0 l 532 0 l 220 756 l 216 756 l 216 0 l 102 0 "},"Н":{"ha":985,"x_min":0,"x_max":0,"o":"m 102 979 l 224 979 l 224 555 l 761 555 l 761 979 l 883 979 l 883 0 l 761 0 l 761 446 l 224 446 l 224 0 l 102 0 "},"Ӈ":{"ha":985,"x_min":0,"x_max":0,"o":"m 102 979 l 224 979 l 224 555 l 761 555 l 761 979 l 883 979 l 883 -39 b 686 -237 883 -173 819 -237 b 614 -233 659 -237 631 -235 l 614 -137 b 667 -140 628 -138 648 -140 b 761 -39 730 -140 761 -106 l 761 446 l 224 446 l 224 0 l 102 0 "},"Ң":{"ha":1046,"x_min":0,"x_max":0,"o":"m 102 979 l 224 979 l 224 555 l 761 555 l 761 979 l 883 979 l 883 110 l 1005 110 l 1005 -193 l 892 -193 l 892 0 l 761 0 l 761 446 l 224 446 l 224 0 l 102 0 "},"Ӊ":{"ha":1024,"x_min":0,"x_max":0,"o":"m 102 979 l 224 979 l 224 555 l 761 555 l 761 979 l 883 979 l 883 110 l 1004 110 l 1004 75 l 932 -193 l 819 -193 l 871 0 l 761 0 l 761 446 l 224 446 l 224 0 l 102 0 "},"Ҥ":{"ha":1379,"x_min":0,"x_max":0,"o":"m 95 979 l 217 979 l 217 555 l 754 555 l 754 979 l 1335 979 l 1335 869 l 876 869 l 876 0 l 754 0 l 754 446 l 217 446 l 217 0 l 95 0 "},"О":{"ha":1029,"x_min":0,"x_max":0,"o":"m 515 -16 b 64 489 237 -16 64 178 l 64 490 b 515 995 64 800 238 995 b 966 490 792 995 966 800 l 966 489 b 515 -16 966 178 793 -16 m 515 96 b 841 489 717 96 841 250 l 841 490 b 515 882 841 730 715 882 b 189 490 315 882 189 731 l 189 489 b 515 96 189 248 315 96 "},"Ӧ":{"ha":1029,"x_min":0,"x_max":0,"o":"m 393 1090 b 326 1157 356 1090 326 1120 b 393 1224 326 1194 356 1224 b 460 1157 431 1224 460 1194 b 393 1090 460 1120 431 1090 m 636 1090 b 570 1157 600 1090 570 1120 b 636 1224 570 1194 600 1224 b 703 1157 674 1224 703 1194 b 636 1090 703 1120 674 1090 m 515 -16 b 64 489 237 -16 64 178 l 64 490 b 515 995 64 800 238 995 b 966 490 792 995 966 800 l 966 489 b 515 -16 966 178 793 -16 m 515 96 b 841 489 717 96 841 250 l 841 490 b 515 882 841 730 715 882 b 189 490 315 882 189 731 l 189 489 b 515 96 189 248 315 96 "},"Ө":{"ha":1029,"x_min":0,"x_max":0,"o":"m 515 -16 b 64 489 237 -16 64 178 l 64 490 b 515 995 64 800 238 995 b 966 490 792 995 966 800 l 966 489 b 515 -16 966 178 793 -16 m 515 882 b 191 550 332 882 211 755 l 838 550 b 515 882 819 755 698 882 m 515 96 b 840 448 705 96 826 233 l 190 448 b 515 96 203 231 326 96 "},"Ӫ":{"ha":1029,"x_min":0,"x_max":0,"o":"m 393 1090 b 326 1157 356 1090 326 1120 b 393 1224 326 1194 356 1224 b 460 1157 431 1224 460 1194 b 393 1090 460 1120 431 1090 m 636 1090 b 570 1157 600 1090 570 1120 b 636 1224 570 1194 600 1224 b 703 1157 674 1224 703 1194 b 636 1090 703 1120 674 1090 m 515 -16 b 64 489 237 -16 64 178 l 64 490 b 515 995 64 800 238 995 b 966 490 792 995 966 800 l 966 489 b 515 -16 966 178 793 -16 m 515 882 b 191 550 332 882 211 755 l 838 550 b 515 882 819 755 698 882 m 515 96 b 840 448 705 96 826 233 l 190 448 b 515 96 203 231 326 96 "},"Ѳ":{"ha":1025,"x_min":0,"x_max":0,"o":"m 513 -16 b 64 489 236 -16 64 177 l 64 490 b 513 995 64 800 237 995 b 961 490 789 995 961 802 l 961 489 b 513 -16 961 177 789 -16 m 330 585 b 695 503 490 585 564 503 b 833 552 759 503 804 519 b 513 882 814 758 694 882 b 191 542 329 882 208 752 b 330 585 228 570 275 585 m 513 96 b 835 446 699 96 821 229 b 692 402 798 417 750 402 b 322 484 526 402 452 484 b 191 436 269 484 221 467 b 513 96 208 225 328 96 "},"П":{"ha":971,"x_min":0,"x_max":0,"o":"m 747 0 l 747 869 l 224 869 l 224 0 l 102 0 l 102 979 l 869 979 l 869 0 "},"Ԥ":{"ha":1034,"x_min":0,"x_max":0,"o":"m 880 0 l 747 0 l 747 869 l 224 869 l 224 0 l 102 0 l 102 979 l 869 979 l 869 110 l 993 110 l 993 -193 l 880 -193 "},"Џ":{"ha":971,"x_min":0,"x_max":0,"o":"m 224 979 l 224 110 l 747 110 l 747 979 l 869 979 l 869 0 l 544 0 l 544 -194 l 427 -194 l 427 0 l 102 0 l 102 979 "},"Р":{"ha":816,"x_min":0,"x_max":0,"o":"m 102 979 l 450 979 b 764 666 634 979 764 852 l 764 665 b 450 349 764 479 634 349 l 224 349 l 224 0 l 102 0 m 224 870 l 224 458 l 419 458 b 640 663 559 458 640 534 l 640 665 b 419 870 640 793 559 870 "},"Ҏ":{"ha":802,"x_min":0,"x_max":0,"o":"m 95 979 l 444 979 b 758 666 627 979 758 852 l 758 665 b 559 368 758 521 680 410 l 642 175 l 553 137 l 461 350 b 444 349 456 349 450 349 l 217 349 l 217 0 l 95 0 m 217 870 l 217 458 l 412 458 b 420 458 415 458 418 458 l 340 645 l 420 680 l 509 473 b 633 663 589 501 633 568 l 633 665 b 412 870 633 793 552 870 "},"С":{"ha":966,"x_min":0,"x_max":0,"o":"m 511 -16 b 64 490 239 -16 64 182 l 64 490 b 511 995 64 798 238 995 b 909 686 714 995 872 871 l 911 680 l 787 680 l 783 694 b 511 882 745 813 648 882 b 189 490 315 882 189 728 l 189 490 b 511 96 189 252 316 96 b 785 293 648 96 743 164 l 787 299 l 911 299 l 909 292 b 511 -16 872 105 715 -16 "},"Ҫ":{"ha":966,"x_min":0,"x_max":0,"o":"m 909 292 b 570 -13 876 123 745 8 l 570 -194 l 453 -194 l 453 -13 b 64 490 214 13 64 204 l 64 490 b 511 995 64 798 238 995 b 909 686 714 995 872 871 l 911 680 l 787 680 l 783 694 b 511 882 745 813 648 882 b 189 490 315 882 189 728 l 189 490 b 511 96 189 252 316 96 b 785 293 648 96 743 164 l 787 299 l 911 299 l 909 292 "},"Т":{"ha":821,"x_min":0,"x_max":0,"o":"m 349 869 l 41 869 l 41 979 l 780 979 l 780 869 l 471 869 l 471 0 l 349 0 "},"Ҭ":{"ha":821,"x_min":0,"x_max":0,"o":"m 349 869 l 41 869 l 41 979 l 780 979 l 780 869 l 471 869 l 471 110 l 593 110 l 593 -193 l 481 -193 l 481 0 l 349 0 "},"У":{"ha":827,"x_min":0,"x_max":0,"o":"m 198 -7 b 144 2 176 -7 155 -3 l 144 111 b 198 106 157 108 177 106 b 358 209 271 106 319 137 l 24 979 l 154 979 l 416 345 l 427 345 l 684 979 l 810 979 l 511 280 b 198 -7 418 63 342 -7 "},"Ў":{"ha":827,"x_min":0,"x_max":0,"o":"m 422 1056 b 222 1240 297 1056 222 1136 l 222 1243 l 318 1243 l 318 1240 b 422 1134 318 1183 353 1134 b 527 1240 489 1134 527 1183 l 527 1243 l 623 1243 l 623 1240 b 422 1056 623 1136 548 1056 m 198 -7 b 144 2 176 -7 155 -3 l 144 111 b 198 106 157 108 177 106 b 358 209 271 106 319 137 l 24 979 l 154 979 l 416 345 l 427 345 l 684 979 l 810 979 l 511 280 b 198 -7 418 63 342 -7 "},"Ӯ":{"ha":827,"x_min":0,"x_max":0,"o":"m 239 1200 l 599 1200 l 599 1114 l 239 1114 m 198 -7 b 144 2 176 -7 155 -3 l 144 111 b 198 106 157 108 177 106 b 358 209 271 106 319 137 l 24 979 l 154 979 l 416 345 l 427 345 l 684 979 l 810 979 l 511 280 b 198 -7 418 63 342 -7 "},"Ӱ":{"ha":827,"x_min":0,"x_max":0,"o":"m 298 1090 b 231 1157 260 1090 231 1120 b 298 1224 231 1194 260 1224 b 364 1157 335 1224 364 1194 b 298 1090 364 1120 335 1090 m 541 1090 b 474 1157 504 1090 474 1120 b 541 1224 474 1194 504 1224 b 608 1157 578 1224 608 1194 b 541 1090 608 1120 578 1090 m 198 -7 b 144 2 176 -7 155 -3 l 144 111 b 198 106 157 108 177 106 b 358 209 271 106 319 137 l 24 979 l 154 979 l 416 345 l 427 345 l 684 979 l 810 979 l 511 280 b 198 -7 418 63 342 -7 "},"Ӳ":{"ha":827,"x_min":0,"x_max":0,"o":"m 258 1057 l 355 1253 l 476 1253 l 347 1057 m 467 1057 l 578 1253 l 699 1253 l 557 1057 m 198 -7 b 144 2 176 -7 155 -3 l 144 111 b 198 106 157 108 177 106 b 358 209 271 106 319 137 l 24 979 l 154 979 l 416 345 l 427 345 l 684 979 l 810 979 l 511 280 b 198 -7 418 63 342 -7 "},"Ү":{"ha":864,"x_min":0,"x_max":0,"o":"m 371 421 l 24 979 l 163 979 l 430 539 l 434 539 l 701 979 l 840 979 l 493 421 l 493 0 l 371 0 "},"Ұ":{"ha":864,"x_min":0,"x_max":0,"o":"m 371 380 l 128 380 l 128 481 l 334 481 l 24 979 l 163 979 l 430 539 l 434 539 l 701 979 l 840 979 l 530 481 l 736 481 l 736 380 l 493 380 l 493 0 l 371 0 "},"Ф":{"ha":1101,"x_min":0,"x_max":0,"o":"m 490 89 b 58 492 225 96 58 253 l 58 493 b 490 897 58 734 225 890 l 490 985 l 611 985 l 611 897 b 1043 493 876 890 1043 734 l 1043 492 b 611 89 1043 253 876 96 l 611 -7 l 490 -7 m 183 492 b 490 198 183 318 300 205 l 490 787 b 183 493 300 781 183 668 l 183 492 m 611 198 b 918 492 802 205 918 318 l 918 493 b 611 787 918 668 802 781 "},"Х":{"ha":895,"x_min":0,"x_max":0,"o":"m 371 492 l 371 494 l 41 979 l 189 979 l 450 585 l 454 585 l 719 979 l 858 979 l 519 488 l 519 486 l 850 0 l 704 0 l 444 391 l 439 391 l 176 0 l 37 0 "},"Ҳ":{"ha":937,"x_min":0,"x_max":0,"o":"m 371 492 l 371 494 l 41 979 l 189 979 l 450 585 l 454 585 l 719 979 l 858 979 l 519 488 l 519 486 l 776 110 l 897 110 l 897 -193 l 784 -193 l 784 0 l 704 0 l 444 391 l 439 391 l 176 0 l 37 0 "},"Ӿ":{"ha":895,"x_min":0,"x_max":0,"o":"m 335 439 l 99 439 l 99 541 l 340 541 l 41 979 l 189 979 l 450 585 l 454 585 l 719 979 l 858 979 l 555 541 l 797 541 l 797 439 l 551 439 l 850 0 l 704 0 l 444 391 l 439 391 l 176 0 l 37 0 "},"Ӽ":{"ha":895,"x_min":0,"x_max":0,"o":"m 617 -264 b 570 -260 599 -264 583 -262 l 570 -148 b 608 -151 581 -150 595 -151 b 706 -67 670 -151 706 -120 b 634 102 706 -22 687 22 l 444 391 l 439 391 l 176 0 l 37 0 l 371 492 l 371 494 l 41 979 l 189 979 l 450 585 l 454 585 l 719 979 l 858 979 l 519 488 l 519 486 l 732 171 b 829 -72 806 61 829 5 b 617 -264 829 -187 744 -264 "},"Ц":{"ha":1034,"x_min":0,"x_max":0,"o":"m 880 0 l 102 0 l 102 979 l 224 979 l 224 110 l 747 110 l 747 979 l 869 979 l 869 110 l 993 110 l 993 -193 l 880 -193 "},"Ҵ":{"ha":1238,"x_min":0,"x_max":0,"o":"m 35 979 l 700 979 l 700 869 l 429 869 l 429 110 l 953 110 l 953 979 l 1075 979 l 1075 110 l 1198 110 l 1198 -193 l 1086 -193 l 1086 0 l 307 0 l 307 869 l 35 869 "},"Ч":{"ha":927,"x_min":0,"x_max":0,"o":"m 703 431 l 701 431 b 459 363 644 393 564 363 b 85 723 212 363 85 523 l 85 979 l 207 979 l 207 722 b 458 476 207 571 296 476 b 703 555 562 476 652 507 l 703 979 l 825 979 l 825 0 l 703 0 "},"Ӵ":{"ha":927,"x_min":0,"x_max":0,"o":"m 333 1090 b 266 1157 296 1090 266 1120 b 333 1224 266 1194 296 1224 b 399 1157 370 1224 399 1194 b 333 1090 399 1120 370 1090 m 576 1090 b 509 1157 539 1090 509 1120 b 576 1224 509 1194 539 1224 b 643 1157 614 1224 643 1194 b 576 1090 643 1120 614 1090 m 703 431 l 701 431 b 459 363 644 393 564 363 b 85 723 212 363 85 523 l 85 979 l 207 979 l 207 722 b 458 476 207 571 296 476 b 703 555 562 476 652 507 l 703 979 l 825 979 l 825 0 l 703 0 "},"Ҷ":{"ha":988,"x_min":0,"x_max":0,"o":"m 703 431 l 701 431 b 459 363 644 393 564 363 b 85 723 212 363 85 523 l 85 979 l 207 979 l 207 722 b 458 476 207 571 296 476 b 703 555 562 476 652 507 l 703 979 l 825 979 l 825 110 l 947 110 l 947 -193 l 835 -193 l 835 0 l 703 0 "},"Ӌ":{"ha":927,"x_min":0,"x_max":0,"o":"m 581 -193 l 581 110 l 703 110 l 703 431 l 701 431 b 459 363 644 393 564 363 b 85 723 212 363 85 523 l 85 979 l 207 979 l 207 722 b 458 476 207 571 296 476 b 703 555 562 476 652 507 l 703 979 l 825 979 l 825 0 l 694 0 l 694 -193 "},"Ҹ":{"ha":968,"x_min":0,"x_max":0,"o":"m 433 365 b 85 723 197 382 85 534 l 85 979 l 207 979 l 207 722 b 433 478 207 584 281 493 l 433 758 l 526 758 l 526 478 b 744 555 614 486 701 515 l 744 979 l 866 979 l 866 0 l 744 0 l 744 431 l 741 431 b 526 366 692 399 613 372 l 526 171 l 433 171 "},"Ҩ":{"ha":1308,"x_min":0,"x_max":0,"o":"m 610 -16 b 64 507 286 -16 64 197 l 64 509 b 488 995 64 759 239 968 l 488 879 b 193 507 300 840 193 694 l 193 506 b 609 97 193 252 377 97 b 738 111 659 97 700 101 b 538 507 612 201 538 345 l 538 509 b 858 866 538 709 665 866 b 1178 523 1051 866 1178 729 l 1178 522 b 962 105 1178 338 1085 190 b 1076 90 999 95 1038 90 b 1260 134 1128 90 1192 102 l 1260 26 b 1074 -16 1218 -1 1148 -16 b 849 41 992 -16 918 3 b 610 -16 775 5 696 -16 m 663 510 b 850 160 663 372 732 243 b 1053 522 973 235 1053 366 l 1053 523 b 858 753 1053 653 976 753 b 663 511 727 753 663 647 l 663 510 "},"Ҽ":{"ha":1146,"x_min":0,"x_max":0,"o":"m 682 -16 b 241 477 412 -16 244 172 b 14 684 103 480 14 561 b 37 795 14 728 25 769 l 147 795 b 127 694 138 769 127 734 b 248 587 127 622 169 587 b 665 995 281 836 440 995 b 1082 532 922 995 1082 817 l 1082 477 l 366 477 l 366 467 b 685 96 366 239 489 96 b 940 241 812 96 905 148 l 942 247 l 1067 247 l 1066 241 b 682 -16 1027 85 876 -16 m 663 882 b 371 587 507 882 395 764 l 948 587 l 947 596 b 663 882 935 774 826 882 "},"Ҿ":{"ha":1146,"x_min":0,"x_max":0,"o":"m 1066 241 b 741 -13 1031 101 905 5 l 741 -194 l 624 -194 l 624 -13 b 241 477 388 12 244 194 b 14 684 103 480 14 561 b 37 795 14 728 25 769 l 147 795 b 127 694 138 769 127 734 b 248 587 127 622 169 587 b 665 995 281 836 440 995 b 1082 532 922 995 1082 817 l 1082 477 l 366 477 l 366 467 b 685 96 366 239 489 96 b 940 241 812 96 905 148 l 942 247 l 1067 247 l 1066 241 m 663 882 b 371 587 507 882 395 764 l 948 587 l 947 596 b 663 882 935 774 826 882 "},"Һ":{"ha":937,"x_min":0,"x_max":0,"o":"m 102 979 l 224 979 l 224 571 l 227 571 b 468 637 283 608 372 637 b 842 278 715 637 842 478 l 842 0 l 720 0 l 720 279 b 469 525 720 430 631 525 b 224 446 366 525 275 494 l 224 0 l 102 0 "},"Ԧ":{"ha":1005,"x_min":0,"x_max":0,"o":"m 102 979 l 224 979 l 224 571 l 227 571 b 468 637 283 608 372 637 b 842 278 715 637 842 478 l 842 110 l 964 110 l 964 -193 l 852 -193 l 852 0 l 720 0 l 720 279 b 469 525 720 430 631 525 b 224 446 366 525 275 494 l 224 0 l 102 0 "},"Ш":{"ha":1278,"x_min":0,"x_max":0,"o":"m 102 979 l 224 979 l 224 111 l 578 111 l 578 979 l 700 979 l 700 111 l 1054 111 l 1054 979 l 1176 979 l 1176 1 l 102 1 "},"Щ":{"ha":1339,"x_min":0,"x_max":0,"o":"m 102 979 l 224 979 l 224 111 l 578 111 l 578 979 l 700 979 l 700 111 l 1054 111 l 1054 979 l 1176 979 l 1176 110 l 1298 110 l 1298 -193 l 1185 -193 l 1185 0 l 1054 0 l 1054 1 l 102 1 "},"Ъ":{"ha":1004,"x_min":0,"x_max":0,"o":"m 277 869 l 37 869 l 37 979 l 399 979 l 399 616 l 638 616 b 953 308 823 616 953 488 l 953 307 b 640 0 953 127 824 0 l 277 0 m 399 506 l 399 110 l 608 110 b 828 307 748 110 828 181 l 828 308 b 608 506 828 434 747 506 "},"Ы":{"ha":1131,"x_min":0,"x_max":0,"o":"m 102 979 l 224 979 l 224 616 l 463 616 b 778 308 648 616 778 488 l 778 307 b 465 0 778 127 649 0 l 102 0 m 907 979 l 1029 979 l 1029 0 l 907 0 m 224 506 l 224 110 l 433 110 b 653 307 573 110 653 181 l 653 308 b 433 506 653 434 572 506 "},"Ӹ":{"ha":1131,"x_min":0,"x_max":0,"o":"m 444 1090 b 377 1157 407 1090 377 1120 b 444 1224 377 1194 407 1224 b 511 1157 481 1224 511 1194 b 444 1090 511 1120 481 1090 m 687 1090 b 621 1157 650 1090 621 1120 b 687 1224 621 1194 650 1224 b 754 1157 725 1224 754 1194 b 687 1090 754 1120 725 1090 m 102 979 l 224 979 l 224 616 l 463 616 b 778 308 648 616 778 488 l 778 307 b 465 0 778 127 649 0 l 102 0 m 907 979 l 1029 979 l 1029 0 l 907 0 m 224 506 l 224 110 l 433 110 b 653 307 573 110 653 181 l 653 308 b 433 506 653 434 572 506 "},"Ҍ":{"ha":863,"x_min":0,"x_max":0,"o":"m 136 788 l 34 788 l 34 880 l 136 880 l 136 1020 l 258 1020 l 258 880 l 461 880 l 461 788 l 258 788 l 258 616 l 497 616 b 812 308 682 616 812 488 l 812 307 b 498 0 812 127 683 0 l 136 0 m 258 506 l 258 110 l 467 110 b 687 307 607 110 687 181 l 687 308 b 467 506 687 434 606 506 "},"Ѣ":{"ha":1046,"x_min":0,"x_max":0,"o":"m 319 781 l 41 781 l 41 887 l 319 887 l 319 1020 l 441 1020 l 441 887 l 781 887 l 781 781 l 441 781 l 441 616 l 681 616 b 996 308 865 616 996 488 l 996 307 b 682 0 996 127 867 0 l 319 0 m 441 506 l 441 110 l 650 110 b 871 307 791 110 871 181 l 871 308 b 650 506 871 434 790 506 "},"Ь":{"ha":829,"x_min":0,"x_max":0,"o":"m 102 979 l 224 979 l 224 616 l 463 616 b 778 308 648 616 778 488 l 778 307 b 465 0 778 127 649 0 l 102 0 m 224 506 l 224 110 l 433 110 b 653 307 573 110 653 181 l 653 308 b 433 506 653 434 572 506 "},"Љ":{"ha":1457,"x_min":0,"x_max":0,"o":"m 81 -7 b 34 0 64 -7 46 -4 l 34 109 b 71 105 41 107 60 105 b 216 370 163 105 205 181 l 251 979 l 852 979 l 852 616 l 1091 616 b 1406 308 1276 616 1406 488 l 1406 307 b 1093 0 1406 127 1277 0 l 730 0 l 730 869 l 362 869 l 331 366 b 81 -7 315 105 239 -7 m 852 506 l 852 110 l 1061 110 b 1281 307 1201 110 1281 181 l 1281 308 b 1061 506 1281 434 1200 506 "},"Њ":{"ha":1488,"x_min":0,"x_max":0,"o":"m 102 979 l 224 979 l 224 555 l 761 555 l 761 979 l 883 979 l 883 616 l 1122 616 b 1437 308 1307 616 1437 488 l 1437 307 b 1124 0 1437 127 1308 0 l 761 0 l 761 446 l 224 446 l 224 0 l 102 0 m 883 506 l 883 110 l 1092 110 b 1312 307 1232 110 1312 181 l 1312 308 b 1092 506 1312 434 1232 506 "},"Э":{"ha":964,"x_min":0,"x_max":0,"o":"m 454 -16 b 54 286 249 -16 90 105 l 53 292 l 176 292 l 178 286 b 454 96 219 163 317 96 b 774 446 638 96 759 233 l 333 446 l 333 555 l 772 555 b 454 882 751 756 633 882 b 178 692 317 882 219 815 l 176 686 l 53 686 l 54 693 b 454 995 90 872 250 995 b 900 490 726 995 900 798 l 900 490 b 454 -16 900 182 726 -16 "},"Ӭ":{"ha":964,"x_min":0,"x_max":0,"o":"m 338 1090 b 271 1157 300 1090 271 1120 b 338 1224 271 1194 300 1224 b 404 1157 375 1224 404 1194 b 338 1090 404 1120 375 1090 m 581 1090 b 514 1157 544 1090 514 1120 b 581 1224 514 1194 544 1224 b 648 1157 618 1224 648 1194 b 581 1090 648 1120 618 1090 m 454 -16 b 54 286 249 -16 90 105 l 53 292 l 176 292 l 178 286 b 454 96 219 163 317 96 b 774 446 638 96 759 233 l 333 446 l 333 555 l 772 555 b 454 882 751 756 633 882 b 178 692 317 882 219 815 l 176 686 l 53 686 l 54 693 b 454 995 90 872 250 995 b 900 490 726 995 900 798 l 900 490 b 454 -16 900 182 726 -16 "},"Є":{"ha":964,"x_min":0,"x_max":0,"o":"m 510 -16 b 64 490 238 -16 64 182 l 64 490 b 510 995 64 798 237 995 b 909 693 713 995 873 872 l 911 686 l 787 686 l 785 692 b 510 882 745 815 647 882 b 192 555 331 882 213 756 l 631 555 l 631 446 l 190 446 b 510 96 205 233 326 96 b 785 286 647 96 745 163 l 787 292 l 911 292 l 909 286 b 510 -16 873 105 715 -16 "},"Ю":{"ha":1337,"x_min":0,"x_max":0,"o":"m 102 979 l 224 979 l 224 555 l 391 555 b 832 995 414 827 578 995 b 1273 490 1106 995 1273 800 l 1273 489 b 832 -16 1273 181 1107 -16 b 391 446 569 -16 406 162 l 224 446 l 224 0 l 102 0 m 832 882 b 515 490 637 882 515 730 l 515 489 b 832 96 515 251 633 96 b 1148 489 1029 96 1148 251 l 1148 490 b 832 882 1148 730 1028 882 "},"Я":{"ha":873,"x_min":0,"x_max":0,"o":"m 649 0 l 649 376 l 452 376 l 182 0 l 37 0 l 318 391 b 88 677 180 423 88 532 l 88 679 b 401 979 88 855 218 979 l 771 979 l 771 0 m 649 869 l 433 869 b 213 679 293 869 213 800 l 213 677 b 433 486 213 555 294 486 l 649 486 "},"Ӏ":{"ha":326,"x_min":0,"x_max":0,"o":"m 102 979 l 224 979 l 224 0 l 102 0 "},"І":{"ha":326,"x_min":0,"x_max":0,"o":"m 102 979 l 224 979 l 224 0 l 102 0 "},"Ї":{"ha":326,"x_min":0,"x_max":0,"o":"m 41 1090 b -26 1157 4 1090 -26 1120 b 41 1224 -26 1194 4 1224 b 108 1157 79 1224 108 1194 b 41 1090 108 1120 79 1090 m 284 1090 b 218 1157 248 1090 218 1120 b 284 1224 218 1194 248 1224 b 351 1157 322 1224 351 1194 b 284 1090 351 1120 322 1090 m 102 979 l 224 979 l 224 0 l 102 0 "},"Ѕ":{"ha":838,"x_min":0,"x_max":0,"o":"m 422 -16 b 55 255 210 -16 67 87 l 54 264 l 176 264 l 178 255 b 429 96 192 157 287 96 b 659 261 570 96 659 160 l 659 262 b 468 426 659 348 602 396 l 359 450 b 79 721 168 492 79 578 l 79 722 b 423 995 79 882 222 995 b 765 724 614 995 754 884 l 766 714 l 644 714 l 642 724 b 420 882 627 823 544 882 b 203 725 289 882 203 819 l 203 724 b 390 566 203 644 262 594 l 498 543 b 783 268 699 498 783 417 l 783 267 b 422 -16 783 94 646 -16 "},"Ʒ":{"ha":801,"x_min":0,"x_max":0,"o":"m 397 -16 b 53 245 201 -16 64 90 l 52 255 l 172 255 l 174 245 b 395 96 186 153 273 96 b 616 277 530 96 616 164 l 616 279 b 346 485 616 420 521 485 l 267 485 l 267 589 l 541 858 l 541 869 l 87 869 l 87 979 l 720 979 l 720 892 l 418 594 l 418 583 b 741 281 616 575 741 471 l 741 279 b 397 -16 741 106 597 -16 "},"Ӡ":{"ha":801,"x_min":0,"x_max":0,"o":"m 397 -16 b 741 279 597 -16 741 106 l 741 281 b 418 583 741 471 616 575 l 418 594 l 720 892 l 720 979 l 87 979 l 87 869 l 541 869 l 541 858 l 267 589 l 267 485 l 346 485 b 616 279 521 485 616 420 l 616 277 b 395 96 616 164 530 96 b 174 245 273 96 186 153 l 172 255 l 52 255 l 53 245 b 397 -16 64 90 201 -16 "},"Ћ":{"ha":1185,"x_min":0,"x_max":0,"o":"m 349 869 l 41 869 l 41 979 l 780 979 l 780 869 l 471 869 l 471 557 l 474 557 b 715 624 530 595 619 624 b 1090 264 963 624 1090 465 l 1090 0 l 968 0 l 968 265 b 716 511 968 416 879 511 b 471 433 613 511 522 480 l 471 0 l 349 0 "},"Ђ":{"ha":1137,"x_min":0,"x_max":0,"o":"m 736 -49 b 661 -39 704 -49 677 -45 l 661 71 b 728 64 677 66 706 64 b 931 283 841 64 931 136 l 931 284 b 722 503 931 411 848 503 b 478 356 619 503 529 439 l 478 0 l 356 0 l 356 869 l 41 869 l 41 979 l 793 979 l 793 869 l 478 869 l 478 509 l 485 509 b 734 615 551 576 634 615 b 1056 286 924 615 1056 479 l 1056 284 b 736 -49 1056 78 916 -49 "},"Ҕ":{"ha":883,"x_min":0,"x_max":0,"o":"m 482 -49 b 407 -39 450 -49 422 -45 l 407 71 b 473 64 423 66 452 64 b 677 283 587 64 677 136 l 677 284 b 467 503 677 411 593 503 b 224 356 365 503 275 440 l 224 0 l 102 0 l 102 979 l 648 979 l 648 869 l 224 869 l 224 509 l 231 509 b 479 615 296 576 380 615 b 802 286 670 615 802 479 l 802 284 b 482 -49 802 78 662 -49 "},"Ҧ":{"ha":1487,"x_min":0,"x_max":0,"o":"m 1086 -49 b 1011 -39 1054 -49 1027 -45 l 1011 71 b 1078 64 1027 66 1056 64 b 1281 283 1191 64 1281 136 l 1281 284 b 1072 503 1281 411 1198 503 b 828 356 969 503 879 439 l 828 0 l 706 0 l 706 869 l 224 869 l 224 0 l 102 0 l 102 979 l 828 979 l 828 509 l 835 509 b 1084 615 901 576 984 615 b 1406 286 1274 615 1406 479 l 1406 284 b 1086 -49 1406 78 1266 -49 "},"Ј":{"ha":701,"x_min":0,"x_max":0,"o":"m 311 -16 b 36 229 142 -16 46 89 l 35 239 l 157 239 l 158 232 b 311 96 165 158 214 96 b 477 280 419 96 477 161 l 477 979 l 600 979 l 600 279 b 311 -16 600 94 492 -16 "},"Ѵ":{"ha":995,"x_min":0,"x_max":0,"o":"m 24 979 l 152 979 l 443 149 l 447 149 l 680 810 b 874 991 719 922 774 991 b 986 966 911 991 957 981 l 949 863 b 886 876 930 871 904 876 b 785 758 831 876 810 827 l 505 0 l 385 0 "},"Ѷ":{"ha":995,"x_min":0,"x_max":0,"o":"m 170 1253 l 292 1253 l 416 1057 l 326 1057 m 393 1253 l 515 1253 l 625 1057 l 536 1057 m 24 979 l 152 979 l 443 149 l 447 149 l 680 810 b 874 991 719 922 774 991 b 986 966 911 991 957 981 l 949 863 b 886 876 930 871 904 876 b 785 758 831 876 810 827 l 505 0 l 385 0 "},"Ԝ":{"ha":1297,"x_min":0,"x_max":0,"o":"m 37 979 l 165 979 l 362 175 l 365 175 l 587 979 l 710 979 l 932 175 l 935 175 l 1132 979 l 1259 979 l 993 0 l 878 0 l 650 784 l 647 784 l 419 0 l 304 0 "},"Ӕ":{"ha":1311,"x_min":0,"x_max":0,"o":"m 488 979 l 1245 979 l 1245 869 l 774 869 l 774 548 l 1220 548 l 1220 439 l 774 439 l 774 110 l 1245 110 l 1245 0 l 652 0 l 652 311 l 283 311 l 129 0 l 3 0 m 334 415 l 652 415 l 652 876 l 563 876 "},"Ə":{"ha":975,"x_min":0,"x_max":0,"o":"m 484 -16 b 64 465 225 -16 64 168 l 64 514 l 787 514 l 787 532 b 468 882 787 739 653 882 b 212 745 342 882 258 837 l 205 732 l 80 732 l 84 743 b 471 995 144 903 288 995 b 911 489 741 995 911 800 l 911 488 b 484 -16 911 184 741 -16 m 487 96 b 784 406 644 96 763 216 l 198 406 l 199 397 b 487 96 212 207 321 96 "},"Ә":{"ha":989,"x_min":0,"x_max":0,"o":"m 491 -16 b 71 465 232 -16 71 168 l 71 514 l 793 514 l 793 532 b 475 882 793 739 660 882 b 218 745 349 882 264 837 l 212 732 l 87 732 l 91 743 b 477 995 151 903 294 995 b 918 489 747 995 918 800 l 918 488 b 491 -16 918 184 747 -16 m 494 96 b 791 406 651 96 770 216 l 205 406 l 205 397 b 494 96 219 207 328 96 "},"Ӛ":{"ha":989,"x_min":0,"x_max":0,"o":"m 353 1090 b 286 1157 316 1090 286 1120 b 353 1224 286 1194 316 1224 b 420 1157 391 1224 420 1194 b 353 1090 420 1120 391 1090 m 596 1090 b 530 1157 559 1090 530 1120 b 596 1224 530 1194 559 1224 b 663 1157 634 1224 663 1194 b 596 1090 663 1120 634 1090 m 491 -16 b 71 465 232 -16 71 168 l 71 514 l 793 514 l 793 532 b 475 882 793 739 660 882 b 218 745 349 882 264 837 l 212 732 l 87 732 l 91 743 b 477 995 151 903 294 995 b 918 489 747 995 918 800 l 918 488 b 491 -16 918 184 747 -16 m 494 96 b 791 406 651 96 770 216 l 205 406 l 205 397 b 494 96 219 207 328 96 "},"ᴀ":{"ha":692,"x_min":0,"x_max":0,"o":"m 286 705 l 408 705 l 677 0 l 558 0 l 490 191 l 203 191 l 134 0 l 16 0 m 234 278 l 459 278 l 348 589 l 345 589 "},"ʙ":{"ha":724,"x_min":0,"x_max":0,"o":"m 77 705 l 395 705 b 631 530 537 705 631 636 l 631 528 b 482 375 631 454 567 385 l 482 372 b 671 201 598 363 671 294 l 671 199 b 395 0 671 75 568 0 l 77 0 m 195 614 l 195 406 l 339 406 b 513 514 451 406 513 445 l 513 515 b 367 614 513 578 460 614 m 195 320 l 195 92 l 374 92 b 550 205 488 92 550 131 l 550 207 b 366 320 550 281 487 320 "},"ᴄ":{"ha":715,"x_min":0,"x_max":0,"o":"m 378 -12 b 42 353 173 -12 42 129 l 42 353 b 378 717 42 576 173 717 b 682 484 539 717 659 623 l 683 479 l 570 479 l 568 489 b 378 623 543 572 477 623 b 158 353 244 623 158 517 l 158 353 b 378 82 158 188 245 82 b 569 221 475 82 542 131 l 570 225 l 683 225 l 682 220 b 378 -12 660 81 539 -12 "},"ᴅ":{"ha":730,"x_min":0,"x_max":0,"o":"m 77 705 l 337 705 b 688 355 557 705 688 576 l 688 354 b 337 0 688 131 558 0 l 77 0 m 326 94 b 572 353 484 94 572 186 l 572 354 b 326 612 572 520 484 612 l 190 612 l 190 94 "},"ᴇ":{"ha":588,"x_min":0,"x_max":0,"o":"m 77 705 l 546 705 l 546 614 l 190 614 l 190 404 l 527 404 l 527 315 l 190 315 l 190 92 l 546 92 l 546 0 l 77 0 "},"ꜰ":{"ha":557,"x_min":0,"x_max":0,"o":"m 77 705 l 538 705 l 538 614 l 190 614 l 190 387 l 509 387 l 509 297 l 190 297 l 190 0 l 77 0 "},"ɢ":{"ha":726,"x_min":0,"x_max":0,"o":"m 380 -12 b 42 355 173 -12 42 130 l 42 356 b 380 717 42 578 173 717 b 686 495 549 717 656 622 l 688 486 l 572 486 l 570 492 b 380 623 540 574 474 623 b 158 357 241 623 158 523 l 158 356 b 382 82 158 186 244 82 b 582 265 499 82 581 156 l 582 277 l 392 277 l 392 364 l 694 364 l 694 293 b 380 -12 694 102 578 -12 "},"ʛ":{"ha":836,"x_min":0,"x_max":0,"o":"m 376 -12 b 42 355 171 -12 42 128 l 42 356 b 374 717 42 578 171 717 b 574 656 456 717 524 694 l 574 794 b 769 992 574 924 626 992 b 836 987 793 992 819 990 l 836 892 b 779 895 821 893 800 895 b 684 793 715 895 684 861 l 684 485 l 558 485 l 557 490 b 374 616 528 570 465 616 b 163 356 242 616 163 519 b 377 88 163 189 245 88 b 568 263 489 88 566 159 l 568 275 l 390 275 l 390 366 l 684 366 l 684 293 b 376 -12 684 102 570 -12 "},"ʜ":{"ha":732,"x_min":0,"x_max":0,"o":"m 77 705 l 186 705 l 186 406 l 549 406 l 549 705 l 659 705 l 659 0 l 549 0 l 549 313 l 186 313 l 186 0 l 77 0 "},"ɪ":{"ha":463,"x_min":0,"x_max":0,"o":"m 32 92 l 172 92 l 172 614 l 32 614 l 32 705 l 430 705 l 430 614 l 290 614 l 290 92 l 430 92 l 430 0 l 32 0 "},"ᵻ":{"ha":286,"x_min":0,"x_max":0,"o":"m 84 351 l 0 351 l 0 435 l 84 435 l 84 705 l 202 705 l 202 435 l 286 435 l 286 351 l 202 351 l 202 0 l 84 0 "},"ᴊ":{"ha":530,"x_min":0,"x_max":0,"o":"m 235 -12 b 20 183 102 -12 25 68 l 19 189 l 130 189 l 131 184 b 233 89 135 131 169 89 b 343 212 305 89 343 132 l 343 705 l 456 705 l 456 210 b 235 -12 456 70 374 -12 "},"ᴋ":{"ha":642,"x_min":0,"x_max":0,"o":"m 77 705 l 195 705 l 195 370 l 198 370 l 476 705 l 614 705 l 349 393 l 636 0 l 491 0 l 265 315 l 195 234 l 195 0 l 77 0 "},"ʟ":{"ha":555,"x_min":0,"x_max":0,"o":"m 77 705 l 190 705 l 190 92 l 536 92 l 536 0 l 77 0 "},"ᴌ":{"ha":525,"x_min":0,"x_max":0,"o":"m 64 264 l 9 237 l 9 326 l 64 353 l 64 705 l 182 705 l 182 412 l 371 505 l 371 416 l 182 323 l 182 98 l 506 98 l 506 0 l 64 0 "},"ᴍ":{"ha":869,"x_min":0,"x_max":0,"o":"m 77 705 l 208 705 l 433 140 l 436 140 l 662 705 l 793 705 l 793 0 l 690 0 l 690 522 l 688 522 l 476 0 l 393 0 l 181 522 l 180 522 l 180 0 l 77 0 "},"ɴ":{"ha":731,"x_min":0,"x_max":0,"o":"m 77 705 l 180 705 l 539 182 l 542 182 l 542 705 l 654 705 l 654 0 l 551 0 l 192 524 l 189 524 l 189 0 l 77 0 "},"ᴎ":{"ha":731,"x_min":0,"x_max":0,"o":"m 542 0 l 542 524 l 539 524 l 180 0 l 77 0 l 77 705 l 189 705 l 189 182 l 192 182 l 551 705 l 654 705 l 654 0 "},"ᴏ":{"ha":747,"x_min":0,"x_max":0,"o":"m 374 -12 b 42 352 170 -12 42 128 l 42 353 b 374 717 42 576 170 717 b 705 353 578 717 705 576 l 705 352 b 374 -12 705 128 578 -12 m 374 84 b 590 352 508 84 590 189 l 590 353 b 374 621 590 517 507 621 b 158 353 242 621 158 517 l 158 352 b 374 84 158 187 241 84 "},"ᴘ":{"ha":623,"x_min":0,"x_max":0,"o":"m 77 705 l 342 705 b 577 475 481 705 577 612 l 577 473 b 342 241 577 336 481 241 l 190 241 l 190 0 l 77 0 m 190 614 l 190 332 l 313 332 b 462 473 408 332 462 384 l 462 473 b 313 614 462 562 408 614 "},"ᴩ":{"ha":623,"x_min":0,"x_max":0,"o":"m 77 0 l 190 0 l 190 241 l 342 241 b 577 473 481 241 577 336 l 577 475 b 342 705 577 612 481 705 l 77 705 m 313 614 b 462 473 408 614 462 562 l 462 473 b 313 332 462 384 408 332 l 190 332 l 190 614 "},"ꞯ":{"ha":747,"x_min":0,"x_max":0,"o":"m 374 -12 b 42 352 170 -12 42 128 l 42 353 b 374 717 42 576 170 717 b 705 353 578 717 705 576 l 705 352 b 581 54 705 219 661 116 l 675 -75 l 558 -75 l 498 8 b 374 -12 460 -5 419 -12 m 374 84 b 436 93 396 84 417 87 l 348 215 l 465 215 l 517 142 b 589 352 563 189 589 261 l 589 353 b 374 621 589 517 505 621 b 158 353 241 621 158 517 l 158 352 b 374 84 158 187 241 84 "},"ʀ":{"ha":665,"x_min":0,"x_max":0,"o":"m 77 705 l 363 705 b 610 490 515 705 610 622 l 610 489 b 466 288 610 393 555 317 l 632 0 l 501 0 l 349 271 l 190 271 l 190 0 l 77 0 m 353 360 b 493 487 441 360 493 406 l 493 488 b 349 614 493 566 438 614 l 190 614 l 190 360 "},"ᴙ":{"ha":665,"x_min":0,"x_max":0,"o":"m 475 0 l 475 271 l 315 271 l 163 0 l 33 0 l 199 288 b 55 489 110 317 55 393 l 55 490 b 301 705 55 622 150 705 l 588 705 l 588 0 m 475 614 l 315 614 b 172 488 227 614 172 566 l 172 487 b 312 360 172 406 223 360 l 475 360 "},"ʁ":{"ha":669,"x_min":0,"x_max":0,"o":"m 592 0 l 303 0 b 55 217 151 0 55 83 l 55 218 b 198 419 55 313 109 390 l 33 705 l 168 705 l 319 437 l 474 437 l 474 705 l 592 705 m 315 344 b 176 219 227 344 176 298 l 176 218 b 318 94 176 141 231 94 l 474 94 l 474 344 "},"ꜱ":{"ha":658,"x_min":0,"x_max":0,"o":"m 330 -12 b 46 187 165 -12 55 63 l 45 195 l 156 195 l 157 188 b 335 82 168 123 235 82 b 498 191 435 82 498 125 b 359 300 498 249 457 280 l 278 317 b 63 513 133 346 63 410 l 63 514 b 331 717 63 634 174 717 b 598 518 485 717 590 636 l 599 510 l 488 510 l 487 517 b 329 623 477 583 417 623 b 178 519 237 622 178 581 l 178 518 b 313 414 178 465 220 432 l 394 397 b 612 198 547 366 612 307 b 330 -12 612 69 506 -12 "},"ᴛ":{"ha":595,"x_min":0,"x_max":0,"o":"m 241 612 l 26 612 l 26 705 l 569 705 l 569 612 l 354 612 l 354 0 l 241 0 "},"ᴜ":{"ha":745,"x_min":0,"x_max":0,"o":"m 373 -12 b 73 248 187 -12 73 93 l 73 705 l 186 705 l 186 256 b 373 84 186 153 254 84 b 559 256 492 84 559 153 l 559 705 l 672 705 l 672 248 b 373 -12 672 93 559 -12 "},"ᴠ":{"ha":661,"x_min":0,"x_max":0,"o":"m 16 705 l 144 705 l 330 125 l 332 125 l 517 705 l 646 705 l 397 0 l 264 0 "},"ᴡ":{"ha":935,"x_min":0,"x_max":0,"o":"m 16 705 l 138 705 l 265 158 l 267 158 l 412 705 l 522 705 l 667 158 l 669 158 l 795 705 l 918 705 l 729 0 l 615 0 l 468 525 l 466 525 l 319 0 l 205 0 "},"ʏ":{"ha":671,"x_min":0,"x_max":0,"o":"m 276 286 l 16 705 l 146 705 l 334 395 l 337 395 l 524 705 l 655 705 l 395 286 l 395 0 l 276 0 "},"ᴢ":{"ha":656,"x_min":0,"x_max":0,"o":"m 62 77 l 443 606 l 443 608 l 73 608 l 73 705 l 585 705 l 585 628 l 206 100 l 206 98 l 595 98 l 595 0 l 62 0 "},"ɶ":{"ha":1129,"x_min":0,"x_max":0,"o":"m 384 -12 b 42 351 176 -12 42 131 l 42 353 b 384 717 42 574 176 717 b 629 593 493 717 583 671 l 630 593 l 630 705 l 1087 705 l 1087 607 l 741 607 l 741 406 l 1067 406 l 1067 312 l 741 312 l 741 98 l 1087 98 l 1087 0 l 630 0 l 630 113 l 629 113 b 384 -12 583 35 492 -12 m 393 88 b 623 351 534 88 623 191 l 623 353 b 393 616 623 513 533 616 b 163 353 252 616 163 514 l 163 351 b 393 88 163 191 252 88 "},"ᴁ":{"ha":965,"x_min":0,"x_max":0,"o":"m 347 705 l 924 705 l 924 608 l 591 608 l 591 401 l 905 401 l 905 309 l 591 309 l 591 98 l 924 98 l 924 0 l 479 0 l 479 206 l 231 206 l 135 0 l 16 0 m 273 296 l 479 296 l 479 614 l 420 614 "},"ᴆ":{"ha":710,"x_min":0,"x_max":0,"o":"m 80 311 l 16 311 l 16 394 l 80 394 l 80 705 l 334 705 b 668 355 543 705 668 577 l 668 354 b 334 0 668 131 544 0 l 80 0 m 321 98 b 547 353 467 98 547 188 l 547 354 b 321 608 547 517 466 608 l 198 608 l 198 394 l 315 394 l 315 311 l 198 311 l 198 98 "},"ᴦ":{"ha":532,"x_min":0,"x_max":0,"o":"m 77 0 l 77 705 l 513 705 l 513 608 l 195 608 l 195 0 "},"ᴧ":{"ha":650,"x_min":0,"x_max":0,"o":"m 260 705 l 390 705 l 634 0 l 509 0 l 326 581 l 322 581 l 138 0 l 16 0 "},"ᴨ":{"ha":735,"x_min":0,"x_max":0,"o":"m 541 0 l 541 608 l 195 608 l 195 0 l 77 0 l 77 705 l 659 705 l 659 0 "},"ᴪ":{"ha":837,"x_min":0,"x_max":0,"o":"m 361 159 b 73 440 185 161 73 271 l 73 705 l 187 705 l 187 441 b 361 257 187 327 248 262 l 361 705 l 475 705 l 475 257 b 649 441 588 262 649 327 l 649 705 l 763 705 l 763 440 b 475 159 763 271 650 161 l 475 0 l 361 0 "},"a":{"ha":697,"x_min":0,"x_max":0,"o":"m 283 -14 b 48 199 142 -14 48 71 l 48 201 b 304 406 48 321 142 396 l 506 417 l 506 476 b 351 614 506 562 450 614 b 190 508 260 614 203 571 l 189 502 l 75 502 l 75 509 b 353 719 85 625 186 719 b 624 488 519 719 624 629 l 624 0 l 506 0 l 506 115 l 503 115 b 283 -14 462 37 377 -14 m 169 199 b 309 89 169 132 224 89 b 506 268 420 89 506 165 l 506 326 l 317 314 b 169 201 223 309 169 267 l 169 199 "},"à":{"ha":697,"x_min":0,"x_max":0,"o":"m 172 989 l 295 989 l 411 786 l 320 786 m 283 -14 b 48 199 142 -14 48 71 l 48 201 b 304 406 48 321 142 396 l 506 417 l 506 476 b 351 614 506 562 450 614 b 190 508 260 614 203 571 l 189 502 l 75 502 l 75 509 b 353 719 85 625 186 719 b 624 488 519 719 624 629 l 624 0 l 506 0 l 506 115 l 503 115 b 283 -14 462 37 377 -14 m 169 199 b 309 89 169 132 224 89 b 506 268 420 89 506 165 l 506 326 l 317 314 b 169 201 223 309 169 267 l 169 199 "},"á":{"ha":697,"x_min":0,"x_max":0,"o":"m 294 786 l 410 989 l 534 989 l 385 786 m 283 -14 b 48 199 142 -14 48 71 l 48 201 b 304 406 48 321 142 396 l 506 417 l 506 476 b 351 614 506 562 450 614 b 190 508 260 614 203 571 l 189 502 l 75 502 l 75 509 b 353 719 85 625 186 719 b 624 488 519 719 624 629 l 624 0 l 506 0 l 506 115 l 503 115 b 283 -14 462 37 377 -14 m 169 199 b 309 89 169 132 224 89 b 506 268 420 89 506 165 l 506 326 l 317 314 b 169 201 223 309 169 267 l 169 199 "},"ä":{"ha":697,"x_min":0,"x_max":0,"o":"m 227 822 b 158 890 189 822 158 852 b 227 958 158 928 189 958 b 294 890 264 958 294 928 b 227 822 294 852 264 822 m 479 822 b 411 890 441 822 411 852 b 479 958 411 928 441 958 b 547 890 517 958 547 928 b 479 822 547 852 517 822 m 283 -14 b 48 199 142 -14 48 71 l 48 201 b 304 406 48 321 142 396 l 506 417 l 506 476 b 351 614 506 562 450 614 b 190 508 260 614 203 571 l 189 502 l 75 502 l 75 509 b 353 719 85 625 186 719 b 624 488 519 719 624 629 l 624 0 l 506 0 l 506 115 l 503 115 b 283 -14 462 37 377 -14 m 169 199 b 309 89 169 132 224 89 b 506 268 420 89 506 165 l 506 326 l 317 314 b 169 201 223 309 169 267 l 169 199 "},"ǟ":{"ha":697,"x_min":0,"x_max":0,"o":"m 149 1120 l 557 1120 l 557 1034 l 149 1034 m 475 800 b 407 869 437 800 407 831 b 475 937 407 907 437 937 b 543 869 513 937 543 907 b 475 800 543 831 513 800 m 231 800 b 162 869 193 800 162 831 b 231 937 162 907 193 937 b 298 869 269 937 298 907 b 231 800 298 831 269 800 m 283 -14 b 48 199 142 -14 48 71 l 48 201 b 304 406 48 321 142 396 l 506 417 l 506 476 b 351 614 506 562 450 614 b 190 508 260 614 203 571 l 189 502 l 75 502 l 75 509 b 353 719 85 625 186 719 b 624 488 519 719 624 629 l 624 0 l 506 0 l 506 115 l 503 115 b 283 -14 462 37 377 -14 m 169 199 b 309 89 169 132 224 89 b 506 268 420 89 506 165 l 506 326 l 317 314 b 169 201 223 309 169 267 l 169 199 "},"å":{"ha":697,"x_min":0,"x_max":0,"o":"m 353 769 b 218 901 278 769 218 829 l 218 902 b 353 1034 218 975 278 1034 b 488 902 427 1034 488 975 l 488 901 b 353 769 488 829 427 769 m 353 840 b 414 901 387 840 414 867 l 414 902 b 353 963 414 936 387 963 b 291 902 318 963 291 936 l 291 901 b 353 840 291 867 318 840 m 283 -14 b 48 199 142 -14 48 71 l 48 201 b 304 406 48 321 142 396 l 506 417 l 506 476 b 351 614 506 562 450 614 b 190 508 260 614 203 571 l 189 502 l 75 502 l 75 509 b 353 719 85 625 186 719 b 624 488 519 719 624 629 l 624 0 l 506 0 l 506 115 l 503 115 b 283 -14 462 37 377 -14 m 169 199 b 309 89 169 132 224 89 b 506 268 420 89 506 165 l 506 326 l 317 314 b 169 201 223 309 169 267 l 169 199 "},"ǻ":{"ha":697,"x_min":0,"x_max":0,"o":"m 418 1281 l 539 1281 l 392 1091 l 309 1091 m 352 773 b 217 905 277 773 217 833 l 217 906 b 352 1038 217 979 277 1038 l 353 1038 b 488 906 428 1038 488 979 l 488 905 b 353 773 488 833 428 773 l 352 773 m 353 842 b 416 905 388 842 416 871 l 416 906 b 353 968 416 941 388 968 l 352 968 b 289 906 317 968 289 941 l 289 905 b 352 842 289 871 317 842 m 283 -14 b 48 199 142 -14 48 71 l 48 201 b 304 406 48 321 142 396 l 506 417 l 506 476 b 351 614 506 562 450 614 b 190 508 260 614 203 571 l 189 502 l 75 502 l 75 509 b 353 719 85 625 186 719 b 624 488 519 719 624 629 l 624 0 l 506 0 l 506 115 l 503 115 b 283 -14 462 37 377 -14 m 169 199 b 309 89 169 132 224 89 b 506 268 420 89 506 165 l 506 326 l 317 314 b 169 201 223 309 169 267 l 169 199 "},"ã":{"ha":697,"x_min":0,"x_max":0,"o":"m 449 787 b 354 824 410 787 379 802 l 330 845 b 269 880 307 864 288 880 b 232 795 243 880 232 853 l 232 789 l 149 789 l 149 797 b 256 969 149 911 189 969 b 349 932 294 969 323 954 l 373 911 b 437 876 396 892 416 876 b 473 961 463 876 473 903 l 473 968 l 556 968 l 556 960 b 449 787 556 845 516 787 m 283 -14 b 48 199 142 -14 48 71 l 48 201 b 304 406 48 321 142 396 l 506 417 l 506 476 b 351 614 506 562 450 614 b 190 508 260 614 203 571 l 189 502 l 75 502 l 75 509 b 353 719 85 625 186 719 b 624 488 519 719 624 629 l 624 0 l 506 0 l 506 115 l 503 115 b 283 -14 462 37 377 -14 m 169 199 b 309 89 169 132 224 89 b 506 268 420 89 506 165 l 506 326 l 317 314 b 169 201 223 309 169 267 l 169 199 "},"ằ":{"ha":697,"x_min":0,"x_max":0,"o":"m 166 1219 l 287 1219 l 396 1029 l 313 1029 m 353 784 b 149 978 227 784 149 864 l 149 985 l 235 985 l 235 981 b 353 865 235 920 279 865 b 470 981 427 865 470 920 l 470 985 l 557 985 l 557 978 b 353 784 557 864 478 784 m 283 -14 b 48 199 142 -14 48 71 l 48 201 b 304 406 48 321 142 396 l 506 417 l 506 476 b 351 614 506 562 450 614 b 190 508 260 614 203 571 l 189 502 l 75 502 l 75 509 b 353 719 85 625 186 719 b 624 488 519 719 624 629 l 624 0 l 506 0 l 506 115 l 503 115 b 283 -14 462 37 377 -14 m 169 199 b 309 89 169 132 224 89 b 506 268 420 89 506 165 l 506 326 l 317 314 b 169 201 223 309 169 267 l 169 199 "},"ǡ":{"ha":697,"x_min":0,"x_max":0,"o":"m 149 1120 l 557 1120 l 557 1034 l 149 1034 m 352 801 b 284 869 315 801 284 831 b 352 937 284 907 315 937 b 420 869 391 937 420 907 b 352 801 420 831 391 801 m 283 -14 b 48 199 142 -14 48 71 l 48 201 b 304 406 48 321 142 396 l 506 417 l 506 476 b 351 614 506 562 450 614 b 190 508 260 614 203 571 l 189 502 l 75 502 l 75 509 b 353 719 85 625 186 719 b 624 488 519 719 624 629 l 624 0 l 506 0 l 506 115 l 503 115 b 283 -14 462 37 377 -14 m 169 199 b 309 89 169 132 224 89 b 506 268 420 89 506 165 l 506 326 l 317 314 b 169 201 223 309 169 267 l 169 199 "},"ḁ":{"ha":697,"x_min":0,"x_max":0,"o":"m 283 -14 b 48 199 142 -14 48 71 l 48 201 b 304 406 48 321 142 396 l 506 417 l 506 476 b 351 614 506 562 450 614 b 190 508 260 614 203 571 l 189 502 l 75 502 l 75 509 b 353 719 85 625 186 719 b 624 488 519 719 624 629 l 624 0 l 506 0 l 506 115 l 503 115 b 283 -14 462 37 377 -14 m 169 199 b 309 89 169 132 224 89 b 506 268 420 89 506 165 l 506 326 l 317 314 b 169 201 223 309 169 267 l 169 199 m 353 -68 b 488 -200 428 -68 488 -127 l 488 -201 b 353 -332 488 -273 428 -332 l 352 -332 b 217 -201 277 -332 217 -273 l 217 -200 b 352 -68 217 -127 277 -68 l 353 -68 m 352 -137 b 289 -200 317 -137 289 -165 l 289 -201 b 352 -263 289 -235 317 -263 l 353 -263 b 416 -201 389 -263 416 -235 l 416 -200 b 353 -137 416 -165 389 -137 "},"â":{"ha":697,"x_min":0,"x_max":0,"o":"m 296 989 l 409 989 l 559 786 l 457 786 l 353 927 l 248 786 l 146 786 m 283 -14 b 48 199 142 -14 48 71 l 48 201 b 304 406 48 321 142 396 l 506 417 l 506 476 b 351 614 506 562 450 614 b 190 508 260 614 203 571 l 189 502 l 75 502 l 75 509 b 353 719 85 625 186 719 b 624 488 519 719 624 629 l 624 0 l 506 0 l 506 115 l 503 115 b 283 -14 462 37 377 -14 m 169 199 b 309 89 169 132 224 89 b 506 268 420 89 506 165 l 506 326 l 317 314 b 169 201 223 309 169 267 l 169 199 "},"ậ":{"ha":697,"x_min":0,"x_max":0,"o":"m 296 989 l 409 989 l 559 786 l 457 786 l 353 927 l 248 786 l 146 786 m 283 -14 b 48 199 142 -14 48 71 l 48 201 b 304 406 48 321 142 396 l 506 417 l 506 476 b 351 614 506 562 450 614 b 190 508 260 614 203 571 l 189 502 l 75 502 l 75 509 b 353 719 85 625 186 719 b 624 488 519 719 624 629 l 624 0 l 506 0 l 506 115 l 503 115 b 283 -14 462 37 377 -14 m 169 199 b 309 89 169 132 224 89 b 506 268 420 89 506 165 l 506 326 l 317 314 b 169 201 223 309 169 267 l 169 199 m 353 -267 b 279 -193 312 -267 279 -234 b 353 -119 279 -152 312 -119 b 427 -193 394 -119 427 -152 b 353 -267 427 -234 394 -267 "},"ấ":{"ha":697,"x_min":0,"x_max":0,"o":"m 578 1192 l 699 1192 l 551 1002 l 469 1002 m 298 989 l 408 989 l 562 786 l 460 786 l 353 928 l 245 786 l 144 786 m 283 -14 b 48 199 142 -14 48 71 l 48 201 b 304 406 48 321 142 396 l 506 417 l 506 476 b 351 614 506 562 450 614 b 190 508 260 614 203 571 l 189 502 l 75 502 l 75 509 b 353 719 85 625 186 719 b 624 488 519 719 624 629 l 624 0 l 506 0 l 506 115 l 503 115 b 283 -14 462 37 377 -14 m 169 199 b 309 89 169 132 224 89 b 506 268 420 89 506 165 l 506 326 l 317 314 b 169 201 223 309 169 267 l 169 199 "},"ẫ":{"ha":697,"x_min":0,"x_max":0,"o":"m 456 1039 b 355 1076 416 1039 384 1053 l 332 1095 b 267 1129 309 1114 287 1129 b 228 1047 239 1129 228 1103 l 228 1040 l 146 1040 l 146 1048 b 251 1215 146 1160 184 1215 b 351 1178 290 1215 323 1201 l 374 1159 b 439 1125 397 1140 419 1125 b 479 1207 466 1125 479 1152 l 479 1214 l 560 1214 l 560 1206 b 456 1039 560 1095 520 1039 m 298 989 l 408 989 l 562 786 l 460 786 l 353 928 l 245 786 l 144 786 m 283 -14 b 48 199 142 -14 48 71 l 48 201 b 304 406 48 321 142 396 l 506 417 l 506 476 b 351 614 506 562 450 614 b 190 508 260 614 203 571 l 189 502 l 75 502 l 75 509 b 353 719 85 625 186 719 b 624 488 519 719 624 629 l 624 0 l 506 0 l 506 115 l 503 115 b 283 -14 462 37 377 -14 m 169 199 b 309 89 169 132 224 89 b 506 268 420 89 506 165 l 506 326 l 317 314 b 169 201 223 309 169 267 l 169 199 "},"ầ":{"ha":697,"x_min":0,"x_max":0,"o":"m 326 1192 l 446 1192 l 555 1002 l 473 1002 m 277 989 l 387 989 l 541 786 l 439 786 l 332 928 l 224 786 l 123 786 m 283 -14 b 48 199 142 -14 48 71 l 48 201 b 304 406 48 321 142 396 l 506 417 l 506 476 b 351 614 506 562 450 614 b 190 508 260 614 203 571 l 189 502 l 75 502 l 75 509 b 353 719 85 625 186 719 b 624 488 519 719 624 629 l 624 0 l 506 0 l 506 115 l 503 115 b 283 -14 462 37 377 -14 m 169 199 b 309 89 169 132 224 89 b 506 268 420 89 506 165 l 506 326 l 317 314 b 169 201 223 309 169 267 l 169 199 "},"ẩ":{"ha":697,"x_min":0,"x_max":0,"o":"m 459 1004 b 518 1084 498 1033 518 1061 b 445 1128 518 1112 486 1128 b 402 1124 423 1128 411 1126 l 402 1194 b 475 1206 418 1200 445 1206 b 608 1102 545 1206 608 1166 b 546 1002 608 1065 590 1031 l 459 1002 m 298 989 l 408 989 l 562 786 l 460 786 l 353 928 l 245 786 l 144 786 m 283 -14 b 48 199 142 -14 48 71 l 48 201 b 304 406 48 321 142 396 l 506 417 l 506 476 b 351 614 506 562 450 614 b 190 508 260 614 203 571 l 189 502 l 75 502 l 75 509 b 353 719 85 625 186 719 b 624 488 519 719 624 629 l 624 0 l 506 0 l 506 115 l 503 115 b 283 -14 462 37 377 -14 m 169 199 b 309 89 169 132 224 89 b 506 268 420 89 506 165 l 506 326 l 317 314 b 169 201 223 309 169 267 l 169 199 "},"ă":{"ha":697,"x_min":0,"x_max":0,"o":"m 353 784 b 149 978 227 784 149 864 l 149 985 l 235 985 l 235 981 b 353 865 235 920 279 865 b 470 981 427 865 470 920 l 470 985 l 557 985 l 557 978 b 353 784 557 864 478 784 m 283 -14 b 48 199 142 -14 48 71 l 48 201 b 304 406 48 321 142 396 l 506 417 l 506 476 b 351 614 506 562 450 614 b 190 508 260 614 203 571 l 189 502 l 75 502 l 75 509 b 353 719 85 625 186 719 b 624 488 519 719 624 629 l 624 0 l 506 0 l 506 115 l 503 115 b 283 -14 462 37 377 -14 m 169 199 b 309 89 169 132 224 89 b 506 268 420 89 506 165 l 506 326 l 317 314 b 169 201 223 309 169 267 l 169 199 "},"ắ":{"ha":697,"x_min":0,"x_max":0,"o":"m 418 1219 l 539 1219 l 392 1029 l 309 1029 m 353 784 b 149 978 227 784 149 864 l 149 985 l 235 985 l 235 981 b 353 865 235 920 279 865 b 470 981 427 865 470 920 l 470 985 l 557 985 l 557 978 b 353 784 557 864 478 784 m 283 -14 b 48 199 142 -14 48 71 l 48 201 b 304 406 48 321 142 396 l 506 417 l 506 476 b 351 614 506 562 450 614 b 190 508 260 614 203 571 l 189 502 l 75 502 l 75 509 b 353 719 85 625 186 719 b 624 488 519 719 624 629 l 624 0 l 506 0 l 506 115 l 503 115 b 283 -14 462 37 377 -14 m 169 199 b 309 89 169 132 224 89 b 506 268 420 89 506 165 l 506 326 l 317 314 b 169 201 223 309 169 267 l 169 199 "},"ẵ":{"ha":697,"x_min":0,"x_max":0,"o":"m 455 1039 b 355 1076 415 1039 383 1053 l 332 1095 b 267 1129 309 1114 286 1129 b 227 1047 238 1129 227 1103 l 227 1040 l 146 1040 l 146 1048 b 250 1215 146 1160 184 1215 b 351 1178 289 1215 323 1201 l 374 1159 b 439 1125 397 1140 418 1125 b 478 1207 465 1125 478 1152 l 478 1214 l 559 1214 l 559 1206 b 455 1039 559 1095 519 1039 m 353 784 b 149 978 227 784 149 864 l 149 985 l 235 985 l 235 981 b 353 865 235 920 279 865 b 470 981 427 865 470 920 l 470 985 l 557 985 l 557 978 b 353 784 557 864 478 784 m 283 -14 b 48 199 142 -14 48 71 l 48 201 b 304 406 48 321 142 396 l 506 417 l 506 476 b 351 614 506 562 450 614 b 190 508 260 614 203 571 l 189 502 l 75 502 l 75 509 b 353 719 85 625 186 719 b 624 488 519 719 624 629 l 624 0 l 506 0 l 506 115 l 503 115 b 283 -14 462 37 377 -14 m 169 199 b 309 89 169 132 224 89 b 506 268 420 89 506 165 l 506 326 l 317 314 b 169 201 223 309 169 267 l 169 199 "},"ẳ":{"ha":697,"x_min":0,"x_max":0,"o":"m 300 1031 b 359 1111 339 1060 359 1088 b 286 1155 359 1139 326 1155 b 243 1151 264 1155 252 1153 l 243 1221 b 316 1233 258 1227 286 1233 b 449 1129 385 1233 449 1193 b 387 1029 449 1092 431 1058 l 300 1029 m 353 784 b 149 978 227 784 149 864 l 149 985 l 235 985 l 235 981 b 353 865 235 920 279 865 b 470 981 427 865 470 920 l 470 985 l 557 985 l 557 978 b 353 784 557 864 478 784 m 283 -14 b 48 199 142 -14 48 71 l 48 201 b 304 406 48 321 142 396 l 506 417 l 506 476 b 351 614 506 562 450 614 b 190 508 260 614 203 571 l 189 502 l 75 502 l 75 509 b 353 719 85 625 186 719 b 624 488 519 719 624 629 l 624 0 l 506 0 l 506 115 l 503 115 b 283 -14 462 37 377 -14 m 169 199 b 309 89 169 132 224 89 b 506 268 420 89 506 165 l 506 326 l 317 314 b 169 201 223 309 169 267 l 169 199 "},"ặ":{"ha":697,"x_min":0,"x_max":0,"o":"m 353 784 b 149 978 227 784 149 864 l 149 985 l 235 985 l 235 981 b 353 865 235 920 279 865 b 470 981 427 865 470 920 l 470 985 l 557 985 l 557 978 b 353 784 557 864 478 784 m 283 -14 b 48 199 142 -14 48 71 l 48 201 b 304 406 48 321 142 396 l 506 417 l 506 476 b 351 614 506 562 450 614 b 190 508 260 614 203 571 l 189 502 l 75 502 l 75 509 b 353 719 85 625 186 719 b 624 488 519 719 624 629 l 624 0 l 506 0 l 506 115 l 503 115 b 283 -14 462 37 377 -14 m 169 199 b 309 89 169 132 224 89 b 506 268 420 89 506 165 l 506 326 l 317 314 b 169 201 223 309 169 267 l 169 199 m 353 -267 b 279 -193 312 -267 279 -234 b 353 -119 279 -152 312 -119 b 427 -193 394 -119 427 -152 b 353 -267 427 -234 394 -267 "},"ȃ":{"ha":697,"x_min":0,"x_max":0,"o":"m 353 985 b 546 791 471 985 546 905 l 546 784 l 459 784 l 459 787 b 353 903 459 849 420 903 b 246 787 286 903 246 849 l 246 784 l 159 784 l 159 791 b 353 985 159 905 234 985 m 283 -14 b 48 199 142 -14 48 71 l 48 201 b 304 406 48 321 142 396 l 506 417 l 506 476 b 351 614 506 562 450 614 b 190 508 260 614 203 571 l 189 502 l 75 502 l 75 509 b 353 719 85 625 186 719 b 624 488 519 719 624 629 l 624 0 l 506 0 l 506 115 l 503 115 b 283 -14 462 37 377 -14 m 169 199 b 309 89 169 132 224 89 b 506 268 420 89 506 165 l 506 326 l 317 314 b 169 201 223 309 169 267 l 169 199 "},"ǎ":{"ha":697,"x_min":0,"x_max":0,"o":"m 409 786 l 296 786 l 146 989 l 248 989 l 353 848 l 457 989 l 559 989 m 283 -14 b 48 199 142 -14 48 71 l 48 201 b 304 406 48 321 142 396 l 506 417 l 506 476 b 351 614 506 562 450 614 b 190 508 260 614 203 571 l 189 502 l 75 502 l 75 509 b 353 719 85 625 186 719 b 624 488 519 719 624 629 l 624 0 l 506 0 l 506 115 l 503 115 b 283 -14 462 37 377 -14 m 169 199 b 309 89 169 132 224 89 b 506 268 420 89 506 165 l 506 326 l 317 314 b 169 201 223 309 169 267 l 169 199 "},"ȧ":{"ha":697,"x_min":0,"x_max":0,"o":"m 353 825 b 279 899 312 825 279 858 b 353 972 279 940 312 972 b 427 899 394 972 427 940 b 353 825 427 858 394 825 m 283 -14 b 48 199 142 -14 48 71 l 48 201 b 304 406 48 321 142 396 l 506 417 l 506 476 b 351 614 506 562 450 614 b 190 508 260 614 203 571 l 189 502 l 75 502 l 75 509 b 353 719 85 625 186 719 b 624 488 519 719 624 629 l 624 0 l 506 0 l 506 115 l 503 115 b 283 -14 462 37 377 -14 m 169 199 b 309 89 169 132 224 89 b 506 268 420 89 506 165 l 506 326 l 317 314 b 169 201 223 309 169 267 l 169 199 "},"ạ":{"ha":697,"x_min":0,"x_max":0,"o":"m 283 -14 b 48 199 142 -14 48 71 l 48 201 b 304 406 48 321 142 396 l 506 417 l 506 476 b 351 614 506 562 450 614 b 190 508 260 614 203 571 l 189 502 l 75 502 l 75 509 b 353 719 85 625 186 719 b 624 488 519 719 624 629 l 624 0 l 506 0 l 506 115 l 503 115 b 283 -14 462 37 377 -14 m 169 199 b 309 89 169 132 224 89 b 506 268 420 89 506 165 l 506 326 l 317 314 b 169 201 223 309 169 267 l 169 199 m 353 -267 b 279 -193 312 -267 279 -234 b 353 -119 279 -152 312 -119 b 427 -193 394 -119 427 -152 b 353 -267 427 -234 394 -267 "},"ả":{"ha":697,"x_min":0,"x_max":0,"o":"m 297 788 b 364 873 340 820 364 848 b 280 921 364 903 326 921 b 237 917 258 921 246 919 l 237 987 b 313 999 254 994 281 999 b 454 892 387 999 454 958 b 384 786 454 852 433 818 l 297 786 m 283 -14 b 48 199 142 -14 48 71 l 48 201 b 304 406 48 321 142 396 l 506 417 l 506 476 b 351 614 506 562 450 614 b 190 508 260 614 203 571 l 189 502 l 75 502 l 75 509 b 353 719 85 625 186 719 b 624 488 519 719 624 629 l 624 0 l 506 0 l 506 115 l 503 115 b 283 -14 462 37 377 -14 m 169 199 b 309 89 169 132 224 89 b 506 268 420 89 506 165 l 506 326 l 317 314 b 169 201 223 309 169 267 l 169 199 "},"ȁ":{"ha":697,"x_min":0,"x_max":0,"o":"m 46 989 l 170 989 l 300 786 l 209 786 m 278 989 l 401 989 l 517 786 l 427 786 m 283 -14 b 48 199 142 -14 48 71 l 48 201 b 304 406 48 321 142 396 l 506 417 l 506 476 b 351 614 506 562 450 614 b 190 508 260 614 203 571 l 189 502 l 75 502 l 75 509 b 353 719 85 625 186 719 b 624 488 519 719 624 629 l 624 0 l 506 0 l 506 115 l 503 115 b 283 -14 462 37 377 -14 m 169 199 b 309 89 169 132 224 89 b 506 268 420 89 506 165 l 506 326 l 317 314 b 169 201 223 309 169 267 l 169 199 "},"ā":{"ha":697,"x_min":0,"x_max":0,"o":"m 165 933 l 540 933 l 540 847 l 165 847 m 283 -14 b 48 199 142 -14 48 71 l 48 201 b 304 406 48 321 142 396 l 506 417 l 506 476 b 351 614 506 562 450 614 b 190 508 260 614 203 571 l 189 502 l 75 502 l 75 509 b 353 719 85 625 186 719 b 624 488 519 719 624 629 l 624 0 l 506 0 l 506 115 l 503 115 b 283 -14 462 37 377 -14 m 169 199 b 309 89 169 132 224 89 b 506 268 420 89 506 165 l 506 326 l 317 314 b 169 201 223 309 169 267 l 169 199 "},"ą":{"ha":697,"x_min":0,"x_max":0,"o":"m 283 -14 b 48 199 142 -14 48 71 l 48 201 b 304 406 48 321 142 396 l 506 417 l 506 476 b 351 614 506 562 450 614 b 190 508 260 614 203 571 l 189 502 l 75 502 l 75 509 b 353 719 85 625 186 719 b 624 488 519 719 624 629 l 624 0 b 519 -159 557 -46 519 -97 l 519 -161 b 590 -237 519 -214 551 -237 b 632 -230 606 -237 621 -235 l 632 -309 b 566 -320 614 -317 584 -320 b 410 -178 481 -320 410 -272 l 410 -177 b 506 1 410 -111 446 -45 l 506 115 l 503 115 b 283 -14 462 37 377 -14 m 169 199 b 309 89 169 132 224 89 b 506 268 420 89 506 165 l 506 326 l 317 314 b 169 201 223 309 169 267 l 169 199 "},"ⱥ":{"ha":697,"x_min":0,"x_max":0,"o":"m 535 797 l 503 688 b 624 488 580 650 624 579 l 624 0 l 506 0 l 506 115 l 503 115 b 294 -14 463 41 384 -9 l 262 -120 l 165 -91 l 192 0 b 48 199 103 28 48 102 l 48 201 b 304 406 48 321 142 396 l 313 406 l 374 614 b 351 614 367 614 359 614 b 190 508 260 614 203 571 l 189 502 l 75 502 l 75 509 b 353 719 85 625 186 719 b 405 715 371 719 388 718 l 437 826 m 506 476 b 469 574 506 517 493 551 l 420 412 l 506 417 l 506 476 m 506 326 l 393 319 l 325 90 b 506 268 429 96 506 170 m 169 199 b 224 108 169 159 189 127 l 284 311 b 169 201 210 298 169 258 l 169 199 "},"ɐ":{"ha":697,"x_min":0,"x_max":0,"o":"m 414 719 b 649 506 555 719 649 634 l 649 505 b 393 300 649 385 555 309 l 191 288 l 191 229 b 346 91 191 143 248 91 b 507 197 437 91 494 134 l 509 203 l 623 203 l 622 196 b 345 -14 612 80 511 -14 b 73 218 178 -14 73 77 l 73 705 l 191 705 l 191 591 l 194 591 b 414 719 235 668 320 719 m 191 380 l 380 391 b 528 505 474 397 528 439 l 528 506 b 388 616 528 574 473 616 b 191 437 277 616 191 540 "},"ɑ":{"ha":769,"x_min":0,"x_max":0,"o":"m 342 -14 b 42 353 161 -14 42 130 l 42 353 b 340 719 42 576 163 719 b 566 587 439 719 522 669 l 568 587 l 568 705 l 686 705 l 686 0 l 568 0 l 568 119 l 566 119 b 342 -14 522 37 443 -14 m 365 91 b 569 353 484 91 569 195 l 569 353 b 365 614 569 511 484 614 b 163 353 240 614 163 514 l 163 353 b 365 91 163 191 240 91 "},"ɒ":{"ha":769,"x_min":0,"x_max":0,"o":"m 427 719 b 727 353 608 719 727 575 l 727 352 b 429 -14 727 130 606 -14 b 203 118 330 -14 248 37 l 201 118 l 201 0 l 83 0 l 83 705 l 201 705 l 201 586 l 203 586 b 427 719 248 668 326 719 m 404 614 b 200 353 285 614 200 511 l 200 352 b 404 91 200 195 286 91 b 606 352 529 91 606 191 l 606 353 b 404 614 606 515 529 614 "},"b":{"ha":769,"x_min":0,"x_max":0,"o":"m 427 -14 b 203 119 326 -14 248 37 l 201 119 l 201 0 l 83 0 l 83 979 l 201 979 l 201 587 l 203 587 b 429 719 248 669 330 719 b 727 353 606 719 727 576 l 727 353 b 427 -14 727 130 608 -14 m 404 91 b 606 353 529 91 606 191 l 606 353 b 404 614 606 514 529 614 b 200 353 286 614 200 511 l 200 353 b 404 91 200 195 285 91 "},"ḇ":{"ha":769,"x_min":0,"x_max":0,"o":"m 427 -14 b 203 119 326 -14 248 37 l 201 119 l 201 0 l 83 0 l 83 979 l 201 979 l 201 587 l 203 587 b 429 719 248 669 330 719 b 727 353 606 719 727 576 l 727 353 b 427 -14 727 130 608 -14 m 404 91 b 606 353 529 91 606 191 l 606 353 b 404 614 606 514 529 614 b 200 353 286 614 200 511 l 200 353 b 404 91 200 195 285 91 m 218 -142 l 592 -142 l 592 -228 l 218 -228 "},"ḅ":{"ha":769,"x_min":0,"x_max":0,"o":"m 427 -14 b 203 119 326 -14 248 37 l 201 119 l 201 0 l 83 0 l 83 979 l 201 979 l 201 587 l 203 587 b 429 719 248 669 330 719 b 727 353 606 719 727 576 l 727 353 b 427 -14 727 130 608 -14 m 404 91 b 606 353 529 91 606 191 l 606 353 b 404 614 606 514 529 614 b 200 353 286 614 200 511 l 200 353 b 404 91 200 195 285 91 m 405 -267 b 331 -193 364 -267 331 -234 b 405 -119 331 -152 364 -119 b 479 -193 446 -119 479 -152 b 405 -267 479 -234 446 -267 "},"ḃ":{"ha":769,"x_min":0,"x_max":0,"o":"m 141 1092 b 71 1162 103 1092 71 1124 b 141 1232 71 1201 103 1232 b 212 1162 180 1232 212 1201 b 141 1092 212 1124 180 1092 m 427 -14 b 203 119 326 -14 248 37 l 201 119 l 201 0 l 83 0 l 83 979 l 201 979 l 201 587 l 203 587 b 429 719 248 669 330 719 b 727 353 606 719 727 576 l 727 353 b 427 -14 727 130 608 -14 m 404 91 b 606 353 529 91 606 191 l 606 353 b 404 614 606 514 529 614 b 200 353 286 614 200 511 l 200 353 b 404 91 200 195 285 91 "},"ɓ":{"ha":769,"x_min":0,"x_max":0,"o":"m 427 -14 b 203 119 326 -14 248 37 l 201 119 l 201 0 l 83 0 l 83 794 b 280 992 83 928 147 992 b 352 987 307 992 335 990 l 352 892 b 296 895 337 893 316 895 b 201 793 232 895 201 861 l 201 587 l 203 587 b 429 719 248 669 330 719 b 727 353 606 719 727 576 l 727 353 b 427 -14 727 130 608 -14 m 404 91 b 606 353 529 91 606 191 l 606 353 b 404 614 606 514 529 614 b 200 353 286 614 200 511 l 200 353 b 404 91 200 195 285 91 "},"c":{"ha":696,"x_min":0,"x_max":0,"o":"m 369 -14 b 42 353 169 -14 42 129 l 42 354 b 368 719 42 576 172 719 b 662 481 543 719 647 602 l 663 476 l 547 476 l 546 481 b 368 614 528 552 471 614 b 163 353 245 614 163 513 l 163 352 b 369 91 163 188 247 91 b 547 224 465 91 527 145 l 548 229 l 664 229 l 663 224 b 369 -14 644 90 528 -14 "},"ć":{"ha":696,"x_min":0,"x_max":0,"o":"m 311 786 l 427 989 l 550 989 l 401 786 m 369 -14 b 42 353 169 -14 42 129 l 42 354 b 368 719 42 576 172 719 b 662 481 543 719 647 602 l 663 476 l 547 476 l 546 481 b 368 614 528 552 471 614 b 163 353 245 614 163 513 l 163 352 b 369 91 163 188 247 91 b 547 224 465 91 527 145 l 548 229 l 664 229 l 663 224 b 369 -14 644 90 528 -14 "},"č":{"ha":696,"x_min":0,"x_max":0,"o":"m 425 786 l 313 786 l 163 989 l 264 989 l 369 848 l 473 989 l 575 989 m 369 -14 b 42 353 169 -14 42 129 l 42 354 b 368 719 42 576 172 719 b 662 481 543 719 647 602 l 663 476 l 547 476 l 546 481 b 368 614 528 552 471 614 b 163 353 245 614 163 513 l 163 352 b 369 91 163 188 247 91 b 547 224 465 91 527 145 l 548 229 l 664 229 l 663 224 b 369 -14 644 90 528 -14 "},"ĉ":{"ha":696,"x_min":0,"x_max":0,"o":"m 313 989 l 425 989 l 575 786 l 473 786 l 369 927 l 264 786 l 163 786 m 369 -14 b 42 353 169 -14 42 129 l 42 354 b 368 719 42 576 172 719 b 662 481 543 719 647 602 l 663 476 l 547 476 l 546 481 b 368 614 528 552 471 614 b 163 353 245 614 163 513 l 163 352 b 369 91 163 188 247 91 b 547 224 465 91 527 145 l 548 229 l 664 229 l 663 224 b 369 -14 644 90 528 -14 "},"ċ":{"ha":696,"x_min":0,"x_max":0,"o":"m 369 825 b 295 899 328 825 295 858 b 369 972 295 940 328 972 b 443 899 410 972 443 940 b 369 825 443 858 410 825 m 369 -14 b 42 353 169 -14 42 129 l 42 354 b 368 719 42 576 172 719 b 662 481 543 719 647 602 l 663 476 l 547 476 l 546 481 b 368 614 528 552 471 614 b 163 353 245 614 163 513 l 163 352 b 369 91 163 188 247 91 b 547 224 465 91 527 145 l 548 229 l 664 229 l 663 224 b 369 -14 644 90 528 -14 "},"ç":{"ha":696,"x_min":0,"x_max":0,"o":"m 362 -309 b 260 -292 320 -309 281 -302 l 260 -217 b 334 -229 276 -223 305 -229 b 403 -188 370 -229 403 -218 l 403 -186 b 323 -138 403 -153 374 -138 l 292 -138 l 292 -78 l 336 -12 b 42 353 155 3 42 142 l 42 354 b 368 719 42 576 172 719 b 662 481 543 719 647 602 l 663 476 l 547 476 l 546 481 b 368 614 528 552 471 614 b 163 353 245 614 163 513 l 163 352 b 369 91 163 188 247 91 b 547 224 465 91 527 145 l 548 229 l 664 229 l 663 224 b 420 -9 646 105 553 10 l 385 -64 b 506 -184 456 -68 506 -107 l 506 -185 b 362 -309 506 -264 437 -309 "},"ḉ":{"ha":696,"x_min":0,"x_max":0,"o":"m 311 786 l 427 989 l 550 989 l 401 786 m 362 -309 b 260 -292 320 -309 281 -302 l 260 -217 b 334 -229 276 -223 305 -229 b 403 -188 370 -229 403 -218 l 403 -186 b 323 -138 403 -153 374 -138 l 292 -138 l 292 -78 l 336 -12 b 42 353 155 3 42 142 l 42 354 b 368 719 42 576 172 719 b 662 481 543 719 647 602 l 663 476 l 547 476 l 546 481 b 368 614 528 552 471 614 b 163 353 245 614 163 513 l 163 352 b 369 91 163 188 247 91 b 547 224 465 91 527 145 l 548 229 l 664 229 l 663 224 b 420 -9 646 105 553 10 l 385 -64 b 506 -184 456 -68 506 -107 l 506 -185 b 362 -309 506 -264 437 -309 "},"ɕ":{"ha":696,"x_min":0,"x_max":0,"o":"m 346 -11 b 42 351 177 7 42 123 l 42 353 b 366 719 42 576 172 719 b 661 486 537 719 640 610 l 663 474 l 547 474 l 545 482 b 367 614 527 555 468 614 b 163 353 245 614 163 513 l 163 351 b 346 81 163 195 220 100 l 346 111 b 519 321 346 234 405 321 b 673 174 606 321 673 261 l 673 172 b 448 -11 673 73 578 4 l 448 -152 l 346 -152 m 448 80 b 569 168 533 89 569 123 l 569 170 b 516 224 569 205 545 224 b 448 119 474 224 448 191 "},"ʗ":{"ha":696,"x_min":0,"x_max":0,"o":"m 369 -251 b 42 227 169 -251 42 -64 l 42 229 b 368 704 42 517 172 704 b 662 414 543 704 647 553 l 663 407 l 547 407 l 546 414 b 368 596 528 508 471 596 b 163 227 245 596 163 451 l 163 225 b 369 -143 163 -5 247 -143 b 547 39 465 -143 527 -68 l 548 46 l 664 46 l 663 39 b 369 -251 644 -123 528 -251 "},"ȼ":{"ha":696,"x_min":0,"x_max":0,"o":"m 369 -14 b 298 -7 344 -14 320 -12 l 264 -120 l 166 -91 l 201 28 b 42 353 101 85 42 201 l 42 354 b 368 719 42 576 172 719 b 406 717 381 719 394 718 l 439 826 l 536 797 l 505 691 b 662 481 597 649 652 566 l 663 476 l 547 476 l 546 481 b 473 586 536 523 512 561 l 328 95 b 369 91 341 92 355 91 b 547 224 465 91 527 145 l 548 229 l 664 229 l 663 224 b 369 -14 644 90 528 -14 m 163 352 b 235 143 163 259 190 187 l 376 614 b 368 614 373 614 370 614 b 163 353 245 614 163 513 l 163 352 "},"d":{"ha":769,"x_min":0,"x_max":0,"o":"m 342 -14 b 42 353 161 -14 42 130 l 42 353 b 340 719 42 576 163 719 b 566 587 439 719 522 669 l 568 587 l 568 979 l 686 979 l 686 0 l 568 0 l 568 119 l 566 119 b 342 -14 522 37 443 -14 m 365 91 b 569 353 484 91 569 195 l 569 353 b 365 614 569 511 484 614 b 163 353 240 614 163 514 l 163 353 b 365 91 163 191 240 91 "},"ḋ":{"ha":769,"x_min":0,"x_max":0,"o":"m 627 1092 b 557 1162 589 1092 557 1124 b 627 1232 557 1201 589 1232 b 697 1162 666 1232 697 1201 b 627 1092 697 1124 666 1092 m 342 -14 b 42 353 161 -14 42 130 l 42 353 b 340 719 42 576 163 719 b 566 587 439 719 522 669 l 568 587 l 568 979 l 686 979 l 686 0 l 568 0 l 568 119 l 566 119 b 342 -14 522 37 443 -14 m 365 91 b 569 353 484 91 569 195 l 569 353 b 365 614 569 511 484 614 b 163 353 240 614 163 514 l 163 353 b 365 91 163 191 240 91 "},"ḓ":{"ha":769,"x_min":0,"x_max":0,"o":"m 342 -14 b 42 353 161 -14 42 130 l 42 353 b 340 719 42 576 163 719 b 566 587 439 719 522 669 l 568 587 l 568 979 l 686 979 l 686 0 l 568 0 l 568 119 l 566 119 b 342 -14 522 37 443 -14 m 365 91 b 569 353 484 91 569 195 l 569 353 b 365 614 569 511 484 614 b 163 353 240 614 163 514 l 163 353 b 365 91 163 191 240 91 m 360 -81 l 467 -81 l 620 -286 l 518 -286 l 414 -140 l 309 -286 l 208 -286 "},"ḑ":{"ha":769,"x_min":0,"x_max":0,"o":"m 342 -14 b 42 353 161 -14 42 130 l 42 353 b 340 719 42 576 163 719 b 566 587 439 719 522 669 l 568 587 l 568 979 l 686 979 l 686 0 l 568 0 l 568 119 l 566 119 b 342 -14 522 37 443 -14 m 365 91 b 569 353 484 91 569 195 l 569 353 b 365 614 569 511 484 614 b 163 353 240 614 163 514 l 163 353 b 365 91 163 191 240 91 m 355 -81 l 469 -81 l 370 -309 l 294 -309 "},"ḏ":{"ha":769,"x_min":0,"x_max":0,"o":"m 342 -14 b 42 353 161 -14 42 130 l 42 353 b 340 719 42 576 163 719 b 566 587 439 719 522 669 l 568 587 l 568 979 l 686 979 l 686 0 l 568 0 l 568 119 l 566 119 b 342 -14 522 37 443 -14 m 365 91 b 569 353 484 91 569 195 l 569 353 b 365 614 569 511 484 614 b 163 353 240 614 163 514 l 163 353 b 365 91 163 191 240 91 m 227 -142 l 601 -142 l 601 -228 l 227 -228 "},"ď":{"ha":896,"x_min":0,"x_max":0,"o":"m 789 989 l 896 989 l 807 786 l 735 786 m 342 -14 b 42 353 161 -14 42 130 l 42 353 b 340 719 42 576 163 719 b 566 587 439 719 522 669 l 568 587 l 568 979 l 686 979 l 686 0 l 568 0 l 568 119 l 566 119 b 342 -14 522 37 443 -14 m 365 91 b 569 353 484 91 569 195 l 569 353 b 365 614 569 511 484 614 b 163 353 240 614 163 514 l 163 353 b 365 91 163 191 240 91 "},"ḍ":{"ha":769,"x_min":0,"x_max":0,"o":"m 342 -14 b 42 353 161 -14 42 130 l 42 353 b 340 719 42 576 163 719 b 566 587 439 719 522 669 l 568 587 l 568 979 l 686 979 l 686 0 l 568 0 l 568 119 l 566 119 b 342 -14 522 37 443 -14 m 365 91 b 569 353 484 91 569 195 l 569 353 b 365 614 569 511 484 614 b 163 353 240 614 163 514 l 163 353 b 365 91 163 191 240 91 m 414 -267 b 340 -193 373 -267 340 -234 b 414 -119 340 -152 373 -119 b 488 -193 455 -119 488 -152 b 414 -267 488 -234 455 -267 "},"đ":{"ha":796,"x_min":0,"x_max":0,"o":"m 342 -14 b 42 353 161 -14 42 130 l 42 353 b 340 719 42 576 163 719 b 566 587 439 719 522 669 l 568 587 l 568 799 l 433 799 l 433 883 l 568 883 l 568 979 l 686 979 l 686 883 l 769 883 l 769 799 l 686 799 l 686 0 l 568 0 l 568 119 l 566 119 b 342 -14 522 37 443 -14 m 365 91 b 569 353 484 91 569 195 l 569 353 b 365 614 569 511 484 614 b 163 353 240 614 163 514 l 163 353 b 365 91 163 191 240 91 "},"ɗ":{"ha":769,"x_min":0,"x_max":0,"o":"m 342 -14 b 42 353 161 -14 42 130 l 42 353 b 340 719 42 576 163 719 b 566 587 439 719 522 669 l 568 587 l 568 794 b 766 992 568 928 633 992 b 838 987 792 992 821 990 l 838 892 b 781 895 823 893 802 895 b 686 793 718 895 686 861 l 686 0 l 568 0 l 568 119 l 566 119 b 342 -14 522 37 443 -14 m 365 91 b 569 353 484 91 569 195 l 569 353 b 365 614 569 511 484 614 b 163 353 240 614 163 514 l 163 353 b 365 91 163 191 240 91 "},"ɖ":{"ha":769,"x_min":0,"x_max":0,"o":"m 342 -14 b 42 353 161 -14 42 130 l 42 353 b 340 719 42 576 163 719 b 566 587 439 719 522 669 l 568 587 l 568 979 l 686 979 l 686 -39 b 781 -140 686 -106 718 -140 b 838 -137 802 -140 823 -138 l 838 -233 b 766 -237 821 -235 792 -237 b 568 -39 633 -237 568 -173 l 568 119 l 566 119 b 342 -14 522 37 443 -14 m 365 91 b 569 353 484 91 569 195 l 569 353 b 365 614 569 511 484 614 b 163 353 240 614 163 514 l 163 353 b 365 91 163 191 240 91 "},"e":{"ha":711,"x_min":0,"x_max":0,"o":"m 367 -14 b 42 350 164 -14 42 128 l 42 351 b 359 719 42 569 167 719 b 669 364 552 719 669 576 l 669 321 l 161 321 b 370 91 164 176 244 91 b 543 196 459 91 522 136 l 545 202 l 661 202 l 659 195 b 367 -14 636 79 521 -14 m 359 614 b 163 413 256 614 176 545 l 549 413 b 359 614 538 550 462 614 "},"è":{"ha":711,"x_min":0,"x_max":0,"o":"m 182 989 l 306 989 l 422 786 l 331 786 m 367 -14 b 42 350 164 -14 42 128 l 42 351 b 359 719 42 569 167 719 b 669 364 552 719 669 576 l 669 321 l 161 321 b 370 91 164 176 244 91 b 543 196 459 91 522 136 l 545 202 l 661 202 l 659 195 b 367 -14 636 79 521 -14 m 359 614 b 163 413 256 614 176 545 l 549 413 b 359 614 538 550 462 614 "},"ȅ":{"ha":711,"x_min":0,"x_max":0,"o":"m 57 989 l 180 989 l 311 786 l 220 786 m 289 989 l 412 989 l 528 786 l 437 786 m 367 -14 b 42 350 164 -14 42 128 l 42 351 b 359 719 42 569 167 719 b 669 364 552 719 669 576 l 669 321 l 161 321 b 370 91 164 176 244 91 b 543 196 459 91 522 136 l 545 202 l 661 202 l 659 195 b 367 -14 636 79 521 -14 m 359 614 b 163 413 256 614 176 545 l 549 413 b 359 614 538 550 462 614 "},"é":{"ha":711,"x_min":0,"x_max":0,"o":"m 305 786 l 421 989 l 545 989 l 396 786 m 367 -14 b 42 350 164 -14 42 128 l 42 351 b 359 719 42 569 167 719 b 669 364 552 719 669 576 l 669 321 l 161 321 b 370 91 164 176 244 91 b 543 196 459 91 522 136 l 545 202 l 661 202 l 659 195 b 367 -14 636 79 521 -14 m 359 614 b 163 413 256 614 176 545 l 549 413 b 359 614 538 550 462 614 "},"ê":{"ha":711,"x_min":0,"x_max":0,"o":"m 307 989 l 420 989 l 570 786 l 468 786 l 363 927 l 259 786 l 157 786 m 367 -14 b 42 350 164 -14 42 128 l 42 351 b 359 719 42 569 167 719 b 669 364 552 719 669 576 l 669 321 l 161 321 b 370 91 164 176 244 91 b 543 196 459 91 522 136 l 545 202 l 661 202 l 659 195 b 367 -14 636 79 521 -14 m 359 614 b 163 413 256 614 176 545 l 549 413 b 359 614 538 550 462 614 "},"ể":{"ha":711,"x_min":0,"x_max":0,"o":"m 470 1004 b 529 1084 509 1033 529 1061 b 456 1128 529 1112 496 1128 b 413 1124 434 1128 422 1126 l 413 1194 b 486 1206 429 1200 456 1206 b 619 1102 555 1206 619 1166 b 557 1002 619 1065 601 1031 l 470 1002 m 309 989 l 418 989 l 572 786 l 471 786 l 363 928 l 256 786 l 155 786 m 367 -14 b 42 350 164 -14 42 128 l 42 351 b 359 719 42 569 167 719 b 669 364 552 719 669 576 l 669 321 l 161 321 b 370 91 164 176 244 91 b 543 196 459 91 522 136 l 545 202 l 661 202 l 659 195 b 367 -14 636 79 521 -14 m 359 614 b 163 413 256 614 176 545 l 549 413 b 359 614 538 550 462 614 "},"ề":{"ha":711,"x_min":0,"x_max":0,"o":"m 336 1192 l 457 1192 l 566 1002 l 484 1002 m 288 989 l 397 989 l 551 786 l 450 786 l 342 928 l 235 786 l 134 786 m 367 -14 b 42 350 164 -14 42 128 l 42 351 b 359 719 42 569 167 719 b 669 364 552 719 669 576 l 669 321 l 161 321 b 370 91 164 176 244 91 b 543 196 459 91 522 136 l 545 202 l 661 202 l 659 195 b 367 -14 636 79 521 -14 m 359 614 b 163 413 256 614 176 545 l 549 413 b 359 614 538 550 462 614 "},"ễ":{"ha":711,"x_min":0,"x_max":0,"o":"m 467 1039 b 366 1076 427 1039 395 1053 l 343 1095 b 278 1129 320 1114 298 1129 b 239 1047 250 1129 239 1103 l 239 1040 l 157 1040 l 157 1048 b 262 1215 157 1160 195 1215 b 362 1178 300 1215 334 1201 l 385 1159 b 450 1125 408 1140 430 1125 b 490 1207 477 1125 490 1152 l 490 1214 l 571 1214 l 571 1206 b 467 1039 571 1095 531 1039 m 309 989 l 418 989 l 572 786 l 471 786 l 363 928 l 256 786 l 155 786 m 367 -14 b 42 350 164 -14 42 128 l 42 351 b 359 719 42 569 167 719 b 669 364 552 719 669 576 l 669 321 l 161 321 b 370 91 164 176 244 91 b 543 196 459 91 522 136 l 545 202 l 661 202 l 659 195 b 367 -14 636 79 521 -14 m 359 614 b 163 413 256 614 176 545 l 549 413 b 359 614 538 550 462 614 "},"ệ":{"ha":711,"x_min":0,"x_max":0,"o":"m 307 989 l 420 989 l 570 786 l 468 786 l 363 927 l 259 786 l 157 786 m 367 -14 b 42 350 164 -14 42 128 l 42 351 b 359 719 42 569 167 719 b 669 364 552 719 669 576 l 669 321 l 161 321 b 370 91 164 176 244 91 b 543 196 459 91 522 136 l 545 202 l 661 202 l 659 195 b 367 -14 636 79 521 -14 m 359 614 b 163 413 256 614 176 545 l 549 413 b 359 614 538 550 462 614 m 369 -267 b 295 -193 328 -267 295 -234 b 369 -119 295 -152 328 -119 b 443 -193 410 -119 443 -152 b 369 -267 443 -234 410 -267 "},"ế":{"ha":711,"x_min":0,"x_max":0,"o":"m 589 1192 l 709 1192 l 562 1002 l 479 1002 m 309 989 l 418 989 l 572 786 l 471 786 l 363 928 l 256 786 l 155 786 m 367 -14 b 42 350 164 -14 42 128 l 42 351 b 359 719 42 569 167 719 b 669 364 552 719 669 576 l 669 321 l 161 321 b 370 91 164 176 244 91 b 543 196 459 91 522 136 l 545 202 l 661 202 l 659 195 b 367 -14 636 79 521 -14 m 359 614 b 163 413 256 614 176 545 l 549 413 b 359 614 538 550 462 614 "},"ë":{"ha":711,"x_min":0,"x_max":0,"o":"m 237 822 b 169 890 199 822 169 852 b 237 958 169 928 199 958 b 305 890 275 958 305 928 b 237 822 305 852 275 822 m 490 822 b 422 890 452 822 422 852 b 490 958 422 928 452 958 b 558 890 528 958 558 928 b 490 822 558 852 528 822 m 367 -14 b 42 350 164 -14 42 128 l 42 351 b 359 719 42 569 167 719 b 669 364 552 719 669 576 l 669 321 l 161 321 b 370 91 164 176 244 91 b 543 196 459 91 522 136 l 545 202 l 661 202 l 659 195 b 367 -14 636 79 521 -14 m 359 614 b 163 413 256 614 176 545 l 549 413 b 359 614 538 550 462 614 "}}}
